<?xml version="1.0" encoding="UTF-8"?>
<!-- Generated by jsxcad -->
<!DOCTYPE svg PUBLIC "-//W3C//DTD SVG 1.1 Tiny//EN" "http://www.w3.org/Graphics/SVG/1.1/DTD/svg11-tiny.dtd">
<svg viewBox="-250 -250 500 500" width="500" height="500" xmlns="http://www.w3.org/2000/svg"><path d="M161.62615427476524,-69.78253083487074L-47.36844563468201,-97.13344350990916L-55.98448787420039,-92.5955264181106zM161.62615427476524,-69.78253083487074L-38.59365913663928,-101.34922318729974L-47.36844563468201,-97.13344350990916zM161.62615427476524,-69.78253083487074L-55.98448787420039,-92.5955264181106L-64.41906159606268,-87.74731217139811zM161.62615427476524,-69.78253083487074L-29.683090964918733,-105.23145992848448L-38.59365913663928,-101.34922318729974zM161.62615427476524,-69.78253083487074L-64.41906159606268,-87.74731217139811L-72.64961750283112,-82.60106935712514zM161.62615427476524,-69.78253083487074L-20.659946849281067,-108.76913433370582L-29.683090964918733,-105.23145992848448zM161.62615427476524,-69.78253083487074L-72.64961750283112,-82.60106935712514L-80.65377028344874,-77.16954614946589zM161.62615427476524,-69.78253083487074L-11.547773059463067,-111.95160103060006L-20.659946849281067,-108.76913433370582zM161.62615427476524,-69.78253083487074L-80.65377028344874,-77.16954614946589L-88.40925247267101,-71.46596373811089zM161.62615427476524,-69.78253083487074L-2.3704559161678094,-114.76863702994014L-11.547773059463067,-111.95160103060006zM161.62615427476524,-69.78253083487074L-88.40925247267101,-71.46596373811089L-95.8938982506911,-65.50409887525778zM161.62615427476524,-69.78253083487074L6.847708193578091,-117.21039201445008L-2.3704559161678094,-114.76863702994014zM161.62615427476524,-69.78253083487074L-95.8938982506911,-65.50409887525778L-103.08559258710453,-59.29829636941542zM161.62615427476524,-69.78253083487074L16.081974652318728,-119.26740885502556L6.847708193578091,-117.21039201445008zM161.62615427476524,-69.78253083487074L-103.08559258710453,-59.29829636941542L-109.96232092052942,-52.863536436283724zM161.62615427476524,-69.78253083487074L25.307118004395974,-120.93069691733633L16.081974652318728,-119.26740885502556zM161.62615427476524,-69.78253083487074L-109.96232092052942,-52.863536436283724L-116.50211963588261,-46.21545733075534zM161.62615427476524,-69.78253083487074L34.497371723361866,-122.19167706144793L25.307118004395974,-120.93069691733633zM161.62615427476524,-69.78253083487074L-116.50211963588261,-46.21545733075534L-122.68309282866619,-39.37043178602688zM161.62615427476524,-69.78253083487074L43.62642088730445,-123.04231255655135L34.497371723361866,-122.19167706144793zM161.62615427476524,-69.78253083487074L-122.68309282866619,-39.37043178602688L-128.4834280895163,-32.34559926000798zM161.62615427476524,-69.78253083487074L52.66734690537138,-123.47509251648786L43.62642088730445,-123.04231255655135zM161.62615427476524,-69.78253083487074L-128.4834280895163,-32.34559926000798L-133.88143359350235,-25.15892903656783zM161.62615427476524,-69.78253083487074L61.59262345291627,-123.48309109903165L52.66734690537138,-123.47509251648786zM161.62615427476524,-69.78253083487074L-133.88143359350235,-25.15892903656783L-138.8555825602435,-17.829265421537592zM161.62615427476524,-69.78253083487074L70.37408412019255,-123.06009452871616L61.59262345291627,-123.48309109903165zM161.62615427476524,-69.78253083487074L-138.8555825602435,-17.829265421537592L-143.38454759955513,-10.376392950507388zM-6.168593464561235,-25.305101146029344L-154.49733301584615,13.741743931441341L-154.5402074302513,13.872073805399824zM-7.9360476491905345,-24.633062418902828L-154.5402074302513,13.872073805399824L-154.61148873799598,14.088787402917305zM-4.386567707746216,-25.899243411435098L-154.48302506638225,13.698250668502576L-154.49733301584615,13.741743931441341zM-9.682426352718222,-23.885659689996523L-154.61148873799598,14.088787402917305L-154.71092669088137,14.39111641332768zM-11.401278796353369,-23.065683173455415L-154.71092669088137,14.39111641332768L-154.83819757700462,14.778009391503375zM-13.086278912513665,-22.176176918063575L-154.83819757700462,14.778009391503375L-154.99281785692966,15.248095162922535zM-14.731209398588717,-21.220413219572848L-154.99281785692966,15.248095162922535L-155.17427417893074,15.799720949692254zM-16.329985664555316,-20.201903363298552L-155.17427417893074,15.799720949692254L-155.38189524217393,16.43092736509193zM161.62615427476524,-69.78253083487074L78.98292544995307,-122.20062154711621L70.37408412019255,-123.06009452871616zM-17.876668934564513,-19.12436878389842L-155.38189524217393,16.43092736509193L-155.61496621575435,17.139486470837838zM-19.365509953866205,-17.99173868385835L-155.61496621575435,17.139486470837838L-155.87264817342682,17.922869042035188zM-20.790931144070694,-16.808152117094327L-155.87264817342682,17.922869042035188L-156.1540123928683,18.778271794340085zM161.62615427476524,-69.78253083487074L-143.38454759955513,-10.376392950507388L-147.4472760190124,-2.821065439356234zM-22.14756297809514,-15.577925470800015L-156.1540123928683,18.778271794340085L-156.45806347073167,19.702623373169377zM-23.43027817743728,-14.305540298713284L-156.45806347073167,19.702623373169377L-156.63370545730467,20.236590448552445zM-23.43027817743728,-14.305540298713284L-156.63370545730467,20.236590448552445L-156.74901095333558,20.68349257382815zM-24.634152644061878,-12.995668967226734L-156.74901095333558,20.68349257382815L-157.01503794266537,21.714512713355408zM161.62615427476524,-69.78253083487074L87.38972987140734,-120.90001074387474L78.98292544995307,-122.20062154711621zM-25.75455001736739,-11.653105274891898L-157.01503794266537,21.714512713355408L-157.29579421203576,22.802610839510944zM-26.78709905226826,-10.282789362671178L-157.29579421203576,22.802610839510944L-157.5902358460016,23.943799393048348zM161.62615427476524,-69.78253083487074L-147.4472760190124,-2.821065439356234L-151.02309444462438,4.81494255715626zM-27.72771330348532,-8.88979090943392L-157.5902358460016,23.943799393048348L-157.8972985076369,25.13387260067373zM-28.57260748007538,-7.479270874079593L-157.8972985076369,25.13387260067373L-158.21584017306324,26.368428820995383zM161.62615427476524,-69.78253083487074L95.56446985543245,-119.15458058734599L87.38972987140734,-120.90001074387474zM-29.31833609802718,-6.056495790376033L-158.21584017306324,26.368428820995383L-158.5446776706711,27.642852918105618zM-29.961770412271377,-4.626804773270313L-158.5446776706711,27.642852918105618L-158.62992541665741,27.973287625713667zM-29.961770412271377,-4.626804773270313L-158.62992541665741,27.973287625713667L-158.8080164571624,28.93294321362483zM161.62615427476524,-69.78253083487074L-151.02309444462438,4.81494255715626L-154.09177748785538,12.50879722872025zM-30.50014834742861,-3.195593125709084L-158.8080164571624,28.93294321362483L-159.0516891885112,30.24606985128116zM-9.682426352718222,-23.885659689996523L-7.9360476491905345,-24.633062418902828L-154.61148873799598,14.088787402917305zM-11.401278796353369,-23.065683173455415L-9.682426352718222,-23.885659689996523L-154.71092669088137,14.39111641332768zM-7.9360476491905345,-24.633062418902828L-6.168593464561235,-25.305101146029344L-154.5402074302513,13.872073805399824zM-13.086278912513665,-22.176176918063575L-11.401278796353369,-23.065683173455415L-154.83819757700462,14.778009391503375zM-6.168593464561235,-25.305101146029344L-4.386567707746216,-25.899243411435098L-154.49733301584615,13.741743931441341zM-14.731209398588717,-21.220413219572848L-13.086278912513665,-22.176176918063575L-154.99281785692966,15.248095162922535zM-4.386567707746216,-25.899243411435098L-2.5965508829211257,-26.41321447194177L-154.48302506638225,13.698250668502576zM-16.329985664555316,-20.201903363298552L-14.731209398588717,-21.220413219572848L-155.17427417893074,15.799720949692254zM-17.876668934564513,-19.12436878389842L-16.329985664555316,-20.201903363298552L-155.38189524217393,16.43092736509193zM161.62615427476524,-69.78253083487074L103.47653246256607,-116.96165178092053L95.56446985543245,-119.15458058734599zM-30.931056055217024,-1.768294901073578L-159.0516891885112,30.24606985128116L-159.2999281979686,31.583805093990406zM-19.365509953866205,-17.99173868385835L-17.876668934564513,-19.12436878389842L-155.61496621575435,17.139486470837838zM161.62615427476524,-69.78253083487074L-154.09177748785538,12.50879722872025L-154.48302506638225,13.698250668502576zM-20.790931144070694,-16.808152117094327L-19.365509953866205,-17.99173868385835L-155.87264817342682,17.922869042035188zM-22.14756297809514,-15.577925470800015L-20.790931144070694,-16.808152117094327L-156.1540123928683,18.778271794340085zM-31.25247647025823,-0.3503815181014009L-159.2999281979686,31.583805093990406L-159.5517766215747,32.94100525816626zM-23.43027817743728,-14.305540298713284L-22.14756297809514,-15.577925470800015L-156.45806347073167,19.702623373169377zM-31.462770871715033,1.0526857233544367L-159.5517766215747,32.94100525816626L-159.80627360876377,34.312435881780075zM-24.634152644061878,-12.995668967226734L-23.43027817743728,-14.305540298713284L-156.74901095333558,20.68349257382815zM-25.75455001736739,-11.653105274891898L-24.634152644061878,-12.995668967226734L-157.01503794266537,21.714512713355408zM-31.5607145292732,2.435450225768271L-159.80627360876377,34.312435881780075L-160.0624176905216,35.69275473811028zM161.62615427476524,-69.78253083487074L111.09481647770426,-114.31973222381141L103.47653246256607,-116.96165178092053zM-26.78709905226826,-10.282789362671178L-25.75455001736739,-11.653105274891898L-157.29579421203576,22.802610839510944z" style="fill:rgb(83,212,212)"/><path d="M-6.154690844485351,-12.863047739043393L-13.086278912513665,-22.176176918063575L-7.823428006742357,-11.981843983653336z" style="fill:rgb(168,53,222)"/><path d="M-4.451979733346297,-13.674519752997298L-11.401278796353369,-23.065683173455415L-6.154690844485351,-12.863047739043393z" style="fill:rgb(160,49,222)"/><path d="M-7.823428006742357,-11.981843983653336L-14.731209398588717,-21.220413219572848L-9.452029380919493,-11.034152994692532z" style="fill:rgb(175,57,222)"/><path d="M-2.7215664952394913,-14.41324531890561L-9.682426352718222,-23.885659689996523L-4.451979733346297,-13.674519752997298z" style="fill:rgb(153,46,222)"/><path d="M-9.452029380919493,-11.034152994692532L-16.329985664555316,-20.201903363298552L-11.034468992362864,-10.023456665852931z" style="fill:rgb(181,61,221)"/><path d="M-0.9698461853589281,-15.0764663058794L-7.9360476491905345,-24.633062418902828L-2.7215664952394913,-14.41324531890561z" style="fill:rgb(146,43,221)"/><path d="M-11.034468992362864,-10.023456665852931L-17.876668934564513,-19.12436878389842L-12.56486263069401,-8.953451545668887z" style="fill:rgb(188,65,220)"/><path d="M0.7967311433477601,-15.661677166923258L-6.168593464561235,-25.305101146029344L-0.9698461853589281,-15.0764663058794z" style="fill:rgb(138,40,220)"/><path d="M-31.545484847371302,3.7924944139537606L-160.0624176905216,35.69275473811028L-160.2129322784078,37.0490780119713zM-27.72771330348532,-8.88979090943392L-26.78709905226826,-10.282789362671178L-157.5902358460016,23.943799393048348z" style="fill:rgb(83,212,212)"/><path d="M-12.56486263069401,-8.953451545668887L-19.365509953866205,-17.99173868385835L-14.037518653733319,-7.828044048619854z" style="fill:rgb(194,70,219)"/><path d="M2.571637880200359,-16.166639752230473L-4.386567707746216,-25.899243411435098L0.7967311433477601,-15.661677166923258z" style="fill:rgb(131,38,218)"/><path d="M-14.037518653733319,-7.828044048619854L-20.790931144070694,-16.808152117094327L-15.446916735843226,-6.651345102564333z" style="fill:rgb(200,75,217)"/><path d="M4.348309258030753,-16.589387901166468L-2.5965508829211257,-26.41321447194177L2.571637880200359,-16.166639752230473z" style="fill:rgb(123,36,216)"/><path d="M-28.57260748007538,-7.479270874079593L-27.72771330348532,-8.88979090943392L-157.8972985076369,25.13387260067373z" style="fill:rgb(83,212,212)"/><path d="M-15.446916735843226,-6.651345102564333L-22.14756297809514,-15.577925470800015L-16.787744465629526,-5.42765169797834z" style="fill:rgb(206,80,215)"/><path d="M6.120157364812375,-16.928234030417293L-0.8051592142545765,-26.845015110110342L4.348309258030753,-16.589387901166468z" style="fill:rgb(116,34,214)"/><path d="M-31.416696489024684,5.118454343456006L-160.2129322784078,37.0490780119713L-160.36323614194094,38.40352261445738z" style="fill:rgb(83,212,212)"/><path d="M-16.787744465629526,-5.42765169797834L-23.43027817743728,-14.305540298713284L-18.05493137024436,-4.1614223202784535z" style="fill:rgb(212,85,213)"/><path d="M7.880583721105169,-17.181775192358238L0.980967702787394,-27.192926948298613L6.120157364812375,-16.928234030417293z" style="fill:rgb(108,33,211)"/><path d="M-29.31833609802718,-6.056495790376033L-28.57260748007538,-7.479270874079593L-158.21584017306324,26.368428820995383z" style="fill:rgb(83,212,212)"/><path d="M-18.05493137024436,-4.1614223202784535L-24.634152644061878,-12.995668967226734L-19.243610326427113,-2.857310989348611z" style="fill:rgb(217,91,210)"/><path d="M9.623021016457018,-17.34891311462401L2.7551812656550716,-27.455512831118995L7.880583721105169,-17.181775192358238z" style="fill:rgb(101,32,208)"/><path d="M-31.17438408383703,6.408037572385433L-160.36323614194094,38.40352261445738L-160.5127403488723,39.75069016157773z" style="fill:rgb(83,212,212)"/><path d="M-6.154690844485351,-12.863047739043393L-11.401278796353369,-23.065683173455415L-13.086278912513665,-22.176176918063575z" style="fill:rgb(168,53,222)"/><path d="M-4.451979733346297,-13.674519752997298L-9.682426352718222,-23.885659689996523L-11.401278796353369,-23.065683173455415z" style="fill:rgb(160,49,222)"/><path d="M-7.823428006742357,-11.981843983653336L-13.086278912513665,-22.176176918063575L-14.731209398588717,-21.220413219572848z" style="fill:rgb(175,57,222)"/><path d="M-2.7215664952394913,-14.41324531890561L-7.9360476491905345,-24.633062418902828L-9.682426352718222,-23.885659689996523z" style="fill:rgb(153,46,222)"/><path d="M-9.452029380919493,-11.034152994692532L-14.731209398588717,-21.220413219572848L-16.329985664555316,-20.201903363298552z" style="fill:rgb(181,61,221)"/><path d="M-0.9698461853589281,-15.0764663058794L-6.168593464561235,-25.305101146029344L-7.9360476491905345,-24.633062418902828z" style="fill:rgb(146,43,221)"/><path d="M-11.034468992362864,-10.023456665852931L-16.329985664555316,-20.201903363298552L-17.876668934564513,-19.12436878389842z" style="fill:rgb(188,65,220)"/><path d="M-29.961770412271377,-4.626804773270313L-29.31833609802718,-6.056495790376033L-158.5446776706711,27.642852918105618z" style="fill:rgb(83,212,212)"/><path d="M-19.243610326427113,-2.857310989348611L-25.75455001736739,-11.653105274891898L-20.349202661385497,-1.5200902938900116z" style="fill:rgb(222,96,207)"/><path d="M11.340911118311057,-17.428827388912918L4.510865574647429,-27.63163539943814L9.623021016457018,-17.34891311462401z" style="fill:rgb(94,32,205)"/><path d="M0.7967311433477601,-15.661677166923258L-4.386567707746216,-25.899243411435098L-6.168593464561235,-25.305101146029344z" style="fill:rgb(138,40,220)"/><path d="M-12.56486263069401,-8.953451545668887L-17.876668934564513,-19.12436878389842L-19.365509953866205,-17.99173868385835z" style="fill:rgb(194,70,219)"/><path d="M161.62615427476524,-69.78253083487074L118.38773270318376,-111.22861526802176L111.09481647770426,-114.31973222381141z" style="fill:rgb(83,212,212)"/><path d="M2.571637880200359,-16.166639752230473L-2.5965508829211257,-26.41321447194177L-4.386567707746216,-25.899243411435098z" style="fill:rgb(131,38,218)"/><path d="M-14.037518653733319,-7.828044048619854L-19.365509953866205,-17.99173868385835L-20.790931144070694,-16.808152117094327z" style="fill:rgb(200,75,217)"/><path d="M-30.819032964844414,7.656061455763214L-160.5127403488723,39.75069016157773L-160.66083548246687,41.085184083533235z" style="fill:rgb(83,212,212)"/><path d="M-20.349202661385497,-1.5200902938900116L-26.78709905226826,-10.282789362671178L-21.367389989749373,-0.15468554799659315z" style="fill:rgb(226,102,203)"/><path d="M13.027778708896092,-17.421027099424983L6.241416004972059,-27.72044489676794L11.340911118311057,-17.428827388912918z" style="fill:rgb(86,32,201)"/><path d="M4.348309258030753,-16.589387901166468L-0.8051592142545765,-26.845015110110342L-2.5965508829211257,-26.41321447194177z" style="fill:rgb(123,36,216)"/><path d="M-30.50014834742861,-3.195593125709084L-29.961770412271377,-4.626804773270313L-158.8080164571624,28.93294321362483z" style="fill:rgb(83,212,212)"/><path d="M-15.446916735843226,-6.651345102564333L-20.790931144070694,-16.808152117094327L-22.14756297809514,-15.577925470800015z" style="fill:rgb(206,80,215)"/><path d="M6.120157364812375,-16.928234030417293L0.980967702787394,-27.192926948298613L-0.8051592142545765,-26.845015110110342z" style="fill:rgb(116,34,214)"/><path d="M-16.787744465629526,-5.42765169797834L-22.14756297809514,-15.577925470800015L-23.43027817743728,-14.305540298713284z" style="fill:rgb(212,85,213)"/><path d="M-21.367389989749373,-0.15468554799659315L-27.72771330348532,-8.88979090943392L-22.294139340710363,1.2338515672564045z" style="fill:rgb(230,108,199)"/><path d="M14.677217958429804,-17.325308745163802L7.940310404717771,-27.721410814240148L13.027778708896092,-17.421027099424983z" style="fill:rgb(79,32,198)"/><path d="M-30.351558913070136,8.857439854283287L-160.66083548246687,41.085184083533235L-160.80692379450994,42.401596292870444z" style="fill:rgb(83,212,212)"/><path d="M7.880583721105169,-17.181775192358238L2.7551812656550716,-27.455512831118995L0.980967702787394,-27.192926948298613z" style="fill:rgb(108,33,211)"/><path d="M-30.931056055217024,-1.768294901073578L-30.50014834742861,-3.195593125709084L-159.0516891885112,30.24606985128116z" style="fill:rgb(83,212,212)"/><path d="M-18.05493137024436,-4.1614223202784535L-23.43027817743728,-14.305540298713284L-24.634152644061878,-12.995668967226734z" style="fill:rgb(217,91,210)"/><path d="M-22.294139340710363,1.2338515672564045L-28.57260748007538,-7.479270874079593L-23.125725346351405,2.640374321815666z" style="fill:rgb(234,114,195)"/><path d="M16.28291984424203,-17.14180055883093L9.601098269700039,-27.634297109661045L14.677217958429804,-17.325308745163802z" style="fill:rgb(73,33,193)"/><path d="M9.623021016457018,-17.34891311462401L4.510865574647429,-27.63163539943814L2.7551812656550716,-27.455512831118995z" style="fill:rgb(101,32,208)"/><path d="M-19.243610326427113,-2.857310989348611L-24.634152644061878,-12.995668967226734L-25.75455001736739,-11.653105274891898z" style="fill:rgb(222,96,207)"/><path d="M-29.773345653668063,10.007249480072371L-160.80692379450994,42.401596292870444L-160.91412908788178,43.36773015879928zM-31.25247647025823,-0.3503815181014009L-30.931056055217024,-1.768294901073578L-159.2999281979686,31.583805093990406z" style="fill:rgb(83,212,212)"/><path d="M-23.125725346351405,2.640374321815666L-29.31833609802718,-6.056495790376033L-23.858753908484278,4.059629231388245z" style="fill:rgb(237,120,191)"/><path d="M11.340911118311057,-17.428827388912918L6.241416004972059,-27.72044489676794L4.510865574647429,-27.63163539943814z" style="fill:rgb(94,32,205)"/><path d="M-29.773345653668063,10.007249480072371L-160.91412908788178,43.36773015879928L-160.924890722828,43.688017416469464z" style="fill:rgb(83,212,212)"/><path d="M17.838688677060052,-16.870926108964813L11.217430204306474,-27.45919241799402L16.28291984424203,-17.14180055883093z" style="fill:rgb(66,34,189)"/><path d="M-20.349202661385497,-1.5200902938900116L-25.75455001736739,-11.653105274891898L-26.78709905226826,-10.282789362671178z" style="fill:rgb(226,102,203)"/><path d="M13.027778708896092,-17.421027099424983L7.940310404717771,-27.721410814240148L6.241416004972059,-27.72044489676794z" style="fill:rgb(86,32,201)"/><path d="M-21.367389989749373,-0.15468554799659315L-26.78709905226826,-10.282789362671178L-27.72771330348532,-8.88979090943392z" style="fill:rgb(230,108,199)"/><path d="M-23.858753908484278,4.059629231388245L-29.961770412271377,-4.626804773270313L-24.490146442548898,5.4862891796463815z" style="fill:rgb(240,125,187)"/><path d="M-29.08621005498661,11.100722031742007L-160.924890722828,43.688017416469464L-160.9664649457513,44.92694377173757zM-31.462770871715033,1.0526857233544367L-31.25247647025823,-0.3503815181014009L-159.5517766215747,32.94100525816626z" style="fill:rgb(83,212,212)"/><path d="M19.338490344775696,-16.513442966430986L12.783067458604537,-27.196489447790178L17.838688677060052,-16.870926108964813z" style="fill:rgb(60,35,184)"/><path d="M161.62615427476524,-69.78253083487074L125.32335116450544,-107.68950489457687L118.38773270318376,-111.22861526802176z" style="fill:rgb(83,212,212)"/><path d="M14.677217958429804,-17.325308745163802L9.601098269700039,-27.634297109661045L7.940310404717771,-27.721410814240148z" style="fill:rgb(79,32,198)"/><path d="M-22.294139340710363,1.2338515672564045L-27.72771330348532,-8.88979090943392L-28.57260748007538,-7.479270874079593z" style="fill:rgb(234,114,195)"/><path d="M-24.490146442548898,5.4862891796463815L-30.50014834742861,-3.195593125709084L-25.01718646064959,6.9149698922718175z" style="fill:rgb(242,131,182)"/><path d="M-28.29243560184631,12.133275263550438L-160.9664649457513,44.92694377173757L-161.006932661503,46.132643468647714z" style="fill:rgb(83,212,212)"/><path d="M20.776438693513402,-16.070428538351447L14.29193789665907,-26.84691106224578L19.338490344775696,-16.513442966430986z" style="fill:rgb(54,37,179)"/><path d="M-31.5607145292732,2.435450225768271L-31.462770871715033,1.0526857233544367L-159.80627360876377,34.312435881780075z" style="fill:rgb(83,212,212)"/><path d="M16.28291984424203,-17.14180055883093L11.217430204306474,-27.45919241799402L9.601098269700039,-27.634297109661045z" style="fill:rgb(73,33,193)"/><path d="M-23.125725346351405,2.640374321815666L-28.57260748007538,-7.479270874079593L-29.31833609802718,-6.056495790376033z" style="fill:rgb(237,120,191)"/><path d="M-25.01718646064959,6.9149698922718175L-30.931056055217024,-1.768294901073578L-25.437515641491917,8.34024718025549z" style="fill:rgb(244,137,177)"/><path d="M22.14683702549503,-15.54327549186274L15.738118701540095,-26.411496168263096L20.776438693513402,-16.070428538351447z" style="fill:rgb(48,39,174)"/><path d="M-27.39473443315216,13.100524884927419L-161.006932661503,46.132643468647714L-161.04611893451118,47.30009772371435zM-31.545484847371302,3.7924944139537606L-31.5607145292732,2.435450225768271L-160.0624176905216,35.69275473811028z" style="fill:rgb(83,212,212)"/><path d="M17.838688677060052,-16.870926108964813L12.783067458604537,-27.196489447790178L11.217430204306474,-27.45919241799402z" style="fill:rgb(66,34,189)"/><path d="M-23.858753908484278,4.059629231388245L-29.31833609802718,-6.056495790376033L-29.961770412271377,-4.626804773270313z" style="fill:rgb(240,125,187)"/><path d="M-25.437515641491917,8.34024718025549L-31.25247647025823,-0.3503815181014009L-25.74916310799664,9.75665689191984z" style="fill:rgb(245,143,172)"/><path d="M23.44421767212212,-14.933695832848978L17.115878644587898,-25.891606785933075L22.14683702549503,-15.54327549186274z" style="fill:rgb(42,41,169)"/><path d="M-26.396283439733637,13.998330853695776L-161.04611893451118,47.30009772371435L-161.0838645563124,48.424409591762426z" style="fill:rgb(83,212,212)"/><path d="M19.338490344775696,-16.513442966430986L14.29193789665907,-26.84691106224578L12.783067458604537,-27.196489447790178z" style="fill:rgb(60,35,184)"/><path d="M-31.416696489024684,5.118454343456006L-31.545484847371302,3.7924944139537606L-160.2129322784078,37.0490780119713z" style="fill:rgb(83,212,212)"/><path d="M-24.490146442548898,5.4862891796463815L-29.961770412271377,-4.626804773270313L-30.50014834742861,-3.195593125709084z" style="fill:rgb(242,131,182)"/><path d="M-25.74916310799664,9.75665689191984L-31.462770871715033,1.0526857233544367L-25.95052826325156,11.158744326060944z" style="fill:rgb(246,149,166)"/><path d="M-25.300693175022737,14.822796994406154L-161.0838645563124,48.424409591762426L-161.11998973619166,49.500837789417965z" style="fill:rgb(83,212,212)"/><path d="M24.663307853415503,-14.243733441563444L18.4197181571417,-25.288923935635022L23.44421767212212,-14.933695832848978z" style="fill:rgb(37,44,163)"/><path d="M20.776438693513402,-16.070428538351447L15.738118701540095,-26.411496168263096L14.29193789665907,-26.84691106224578z" style="fill:rgb(54,37,179)"/><path d="M161.62615427476524,-69.78253083487074L131.86951712043395,-103.70517229471564L125.32335116450544,-107.68950489457687z" style="fill:rgb(83,212,212)"/><path d="M-25.01718646064959,6.9149698922718175L-30.50014834742861,-3.195593125709084L-30.931056055217024,-1.768294901073578z" style="fill:rgb(244,137,177)"/><path d="M-31.17438408383703,6.408037572385433L-31.416696489024684,5.118454343456006L-160.36323614194094,38.40352261445738z" style="fill:rgb(83,212,212)"/><path d="M-25.95052826325156,11.158744326060944L-31.5607145292732,2.435450225768271L-26.040427772598782,12.541056718393346z" style="fill:rgb(247,155,161)"/><path d="M-24.11199959872414,15.570296290364395L-161.11998973619166,49.500837789417965L-161.1543562856112,50.524806955873586z" style="fill:rgb(83,212,212)"/><path d="M22.14683702549503,-15.54327549186274L17.115878644587898,-25.891606785933075L15.738118701540095,-26.411496168263096z" style="fill:rgb(48,39,174)"/><path d="M25.799120547988053,-13.475737535987054L19.644334851201684,-24.605459878902707L24.663307853415503,-14.243733441563444z" style="fill:rgb(32,47,158)"/><path d="M-25.437515641491917,8.34024718025549L-30.931056055217024,-1.768294901073578L-31.25247647025823,-0.3503815181014009z" style="fill:rgb(245,143,172)"/><path d="M-30.819032964844414,7.656061455763214L-31.17438408383703,6.408037572385433L-160.5127403488723,39.75069016157773zM-22.834649784062556,16.237500928758678L-161.1543562856112,50.524806955873586L-161.16929963669165,50.969872183362284zM-22.834649784062556,16.237500928758678L-161.16929963669165,50.969872183362284L-161.1450363156535,51.48130734783687z" style="fill:rgb(83,212,212)"/><path d="M-26.040427772598782,12.541056718393346L-31.545484847371302,3.7924944139537606L-26.01808647038806,13.898181519800591z" style="fill:rgb(247,161,155)"/><path d="M23.44421767212212,-14.933695832848978L18.4197181571417,-25.288923935635022L17.115878644587898,-25.891606785933075z" style="fill:rgb(42,41,169)"/><path d="M26.846937150802482,-12.632378259339161L20.784716558210228,-23.84353082141953L25.799120547988053,-13.475737535987054z" style="fill:rgb(28,51,152)"/><path d="M-25.74916310799664,9.75665689191984L-31.25247647025823,-0.3503815181014009L-31.462770871715033,1.0526857233544367z" style="fill:rgb(246,149,166)"/><path d="M-30.351558913070136,8.857439854283287L-30.819032964844414,7.656061455763214L-160.66083548246687,41.085184083533235zM-21.47352751870603,16.821380650214813L-161.1450363156535,51.48130734783687L-161.102925697794,52.36900852428462z" style="fill:rgb(83,212,212)"/><path d="M24.663307853415503,-14.243733441563444L19.644334851201684,-24.605459878902707L18.4197181571417,-25.288923935635022z" style="fill:rgb(37,44,163)"/><path d="M-26.01808647038806,13.898181519800591L-31.416696489024684,5.118454343456006L-25.883145922901353,15.224755783300312z" style="fill:rgb(246,166,149)"/><path d="M-25.95052826325156,11.158744326060944L-31.462770871715033,1.0526857233544367L-31.5607145292732,2.435450225768271z" style="fill:rgb(247,155,161)"/><path d="M27.802332621492344,-11.716632360705038L21.83611790737973,-23.00577812090949L26.846937150802482,-12.632378259339161z" style="fill:rgb(24,55,146)"/><path d="M-20.033869424097063,17.319247582816796L-161.102925697794,52.36900852428462L-161.06383649768904,53.19316117888688zM-29.773345653668063,10.007249480072371L-30.351558913070136,8.857439854283287L-160.80692379450994,42.401596292870444z" style="fill:rgb(83,212,212)"/><path d="M25.799120547988053,-13.475737535987054L20.784716558210228,-23.84353082141953L19.644334851201684,-24.605459878902707z" style="fill:rgb(32,47,158)"/><path d="M161.62615427476524,-69.78253083487074L137.99393902464203,-99.28008786276999L131.86951712043395,-103.70517229471564z" style="fill:rgb(83,212,212)"/><path d="M-25.883145922901353,15.224755783300312L-31.17438408383703,6.408037572385433L-25.63567318828322,16.515487904308348z" style="fill:rgb(245,172,143)"/><path d="M-18.521303072479117,17.728757866384317L-161.06383649768904,53.19316117888688L-161.02792390266706,53.950187200309266z" style="fill:rgb(83,212,212)"/><path d="M-26.040427772598782,12.541056718393346L-31.5607145292732,2.435450225768271L-31.545484847371302,3.7924944139537606z" style="fill:rgb(247,161,155)"/><path d="M28.661197913753064,-10.731773198324058L22.794091712838792,-22.095155809645785L27.802332621492344,-11.716632360705038z" style="fill:rgb(20,59,140)"/><path d="M-29.08621005498661,11.100722031742007L-29.773345653668063,10.007249480072371L-160.924890722828,43.688017416469464zM-16.941808623776073,18.04792268168043L-161.02792390266706,53.950187200309266L-160.99535167221592,54.636778249079406z" style="fill:rgb(83,212,212)"/><path d="M26.846937150802482,-12.632378259339161L21.83611790737973,-23.00577812090949L20.784716558210228,-23.84353082141953z" style="fill:rgb(28,51,152)"/><path d="M-25.63567318828322,16.515487904308348L-30.819032964844414,7.656061455763214L-25.276188232424154,17.765193172966246z" style="fill:rgb(244,177,137)"/><path d="M-26.01808647038806,13.898181519800591L-31.545484847371302,3.7924944139537606L-31.416696489024684,5.118454343456006z" style="fill:rgb(246,166,149)"/><path d="M29.419783912229477,-9.681383892431112L23.654517244974162,-21.114907578062432L28.661197913753064,-10.731773198324058z" style="fill:rgb(17,63,135)"/><path d="M-15.301676320821347,18.275128459134137L-160.99535167221592,54.636778249079406L-160.9662705266558,55.249920236108466zM-28.29243560184631,12.133275263550438L-29.08621005498661,11.100722031742007L-160.9664649457513,44.92694377173757zM-13.607517489117058,18.40916522463533L-160.9662705266558,55.249920236108466L-160.94078822538256,55.78691868403776z" style="fill:rgb(83,212,212)"/><path d="M27.802332621492344,-11.716632360705038L22.794091712838792,-22.095155809645785L21.83611790737973,-23.00577812090949z" style="fill:rgb(24,55,146)"/><path d="M-25.276188232424154,17.765193172966246L-30.351558913070136,8.857439854283287L-24.805632095957023,18.968782155217802z" style="fill:rgb(242,182,131)"/><path d="M-25.883145922901353,15.224755783300312L-31.416696489024684,5.118454343456006L-31.17438408383703,6.408037572385433z" style="fill:rgb(245,172,143)"/><path d="M161.6426518969343,-69.74394585763793L-2.5965508829211257,-26.41321447194177L-0.8051592142545765,-26.845015110110342z" style="fill:rgb(83,212,212)"/><path d="M30.07468322886765,-8.569324668585118L24.413630043934436,-20.06859404099612L29.419783912229477,-9.681383892431112z" style="fill:rgb(14,67,129)"/><path d="M-11.86620907766029,18.449198913823327L-160.94078822538256,55.78691868403776L-160.919045922124,56.24539719837111zM161.69207729092014,-69.62832090798118L-0.8051592142545765,-26.845015110110342L0.980967702787394,-27.192926948298613zM-27.39473443315216,13.100524884927419L-28.29243560184631,12.133275263550438L-161.006932661503,46.132643468647714zM-10.08486948721247,18.394821750658714L-160.919045922124,56.24539719837111L-160.90110873162038,56.62333399880674zM161.774275632536,-69.43604610525185L0.980967702787394,-27.192926948298613L2.7551812656550716,-27.455512831118995z" style="fill:rgb(83,212,212)"/><path d="M28.661197913753064,-10.731773198324058L23.654517244974162,-21.114907578062432L22.794091712838792,-22.095155809645785z" style="fill:rgb(20,59,140)"/><path d="M-8.270819792112114,18.24601544083571L-160.90110873162038,56.62333399880674L-160.88708969482644,56.91903637179535z" style="fill:rgb(83,212,212)"/><path d="M-24.805632095957023,18.968782155217802L-29.773345653668063,10.007249480072371L-24.225402211151426,20.121328344788004z" style="fill:rgb(240,187,125)"/><path d="M-25.63567318828322,16.515487904308348L-31.17438408383703,6.408037572385433L-30.819032964844414,7.656061455763214z" style="fill:rgb(244,177,137)"/><path d="M161.88896622627124,-69.16779012330986L2.7551812656550716,-27.455512831118995L4.510865574647429,-27.63163539943814zM-6.431586456979849,18.003204583510534L-160.88708969482644,56.91903637179535L-160.8770285049613,57.13120485094358zM-26.396283439733637,13.998330853695776L-27.39473443315216,13.100524884927419L-161.04611893451118,47.30009772371435zM-4.574810328801773,17.667209312668497L-160.8770285049613,57.13120485094358L-160.8709671796702,57.258882218145146zM161.62615427476524,-69.78253083487074L143.66439946461136,-94.42057277892776L137.99393902464203,-99.28008786276999zM162.0357473146915,-68.82445623780167L4.510865574647429,-27.63163539943814L6.241416004972059,-27.72044489676794zM-2.708254371152477,17.239278308456118L-160.8709671796702,57.258882218145146L-160.8689437495658,57.30150408355238z" style="fill:rgb(83,212,212)"/><path d="M29.419783912229477,-9.681383892431112L24.413630043934436,-20.06859404099612L23.654517244974162,-21.114907578062432z" style="fill:rgb(17,63,135)"/><path d="M-25.276188232424154,17.765193172966246L-30.819032964844414,7.656061455763214L-30.351558913070136,8.857439854283287z" style="fill:rgb(242,182,131)"/><path d="M162.2141255394442,-68.40723678079529L6.241416004972059,-27.72044489676794L7.940310404717771,-27.721410814240148zM-25.300693175022737,14.822796994406154L-26.396283439733637,13.998330853695776L-161.0838645563124,48.424409591762426zM162.4234728421653,-67.91755889152496L7.940310404717771,-27.721410814240148L9.601098269700039,-27.634297109661045z" style="fill:rgb(83,212,212)"/><path d="M30.07468322886765,-8.569324668585118L25.068010770659768,-18.96005579397457L24.413630043934436,-20.06859404099612z" style="fill:rgb(14,67,129)"/><path d="M-24.805632095957023,18.968782155217802L-30.351558913070136,8.857439854283287L-29.773345653668063,10.007249480072371z" style="fill:rgb(240,187,125)"/><path d="M-24.11199959872414,15.570296290364395L-25.300693175022737,14.822796994406154L-161.11998973619166,49.500837789417965zM162.66307072366948,-67.35711758534657L9.601098269700039,-27.634297109661045L11.217430204306474,-27.45919241799402zM162.9321009966536,-66.72785202632427L11.217430204306474,-27.45919241799402L12.783067458604537,-27.196489447790178zM-22.834649784062556,16.237500928758678L-24.11199959872414,15.570296290364395L-161.1543562856112,50.524806955873586zM163.22961709580972,-66.0319555956936L12.783067458604537,-27.196489447790178L14.29193789665907,-26.84691106224578zM-21.47352751870603,16.821380650214813L-22.834649784062556,16.237500928758678L-161.1450363156535,51.48130734783687zM161.62615427476524,-69.78253083487074L148.84890722844378,-89.1349393366062L143.66439946461136,-94.42057277892776zM163.5545822517925,-65.27186500106215L14.29193789665907,-26.84691106224578L15.738118701540095,-26.411496168263096zM-20.033869424097063,17.319247582816796L-21.47352751870603,16.821380650214813L-161.102925697794,52.36900852428462zM163.9058446835833,-64.45024872477842L15.738118701540095,-26.411496168263096L17.115878644587898,-25.891606785933075zM-18.521303072479117,17.728757866384317L-20.033869424097063,17.319247582816796L-161.06383649768904,53.19316117888688zM164.2415070077292,-63.559341098843646L17.115878644587898,-25.891606785933075L18.4197181571417,-25.288923935635022zM-16.941808623776073,18.04792268168043L-18.521303072479117,17.728757866384317L-161.02792390266706,53.950187200309266zM-15.301676320821347,18.275128459134137L-16.941808623776073,18.04792268168043L-160.99535167221592,54.636778249079406zM164.54774661748888,-62.59904107434312L18.4197181571417,-25.288923935635022L19.644334851201684,-24.605459878902707zM-13.607517489117058,18.40916522463533L-15.301676320821347,18.275128459134137L-160.9662705266558,55.249920236108466zM164.87103504305324,-61.585284966315406L19.644334851201684,-24.605459878902707L20.784716558210228,-23.84353082141953zM161.62615427476524,-69.78253083487074L153.51592315587212,-83.4336556626461L148.84890722844378,-89.1349393366062zM-11.86620907766029,18.449198913823327L-13.607517489117058,18.40916522463533L-160.94078822538256,55.78691868403776zM-10.08486948721247,18.394821750658714L-11.86620907766029,18.449198913823327L-160.919045922124,56.24539719837111zM161.6426518969343,-69.74394585763793L161.62615427476524,-69.78253083487074L-2.5965508829211257,-26.41321447194177zM165.21019905622452,-60.52173931955384L20.784716558210228,-23.84353082141953L21.83611790737973,-23.00577812090949zM161.69207729092014,-69.62832090798118L161.6426518969343,-69.74394585763793L-0.8051592142545765,-26.845015110110342zM161.774275632536,-69.43604610525185L161.69207729092014,-69.62832090798118L0.980967702787394,-27.192926948298613zM-8.270819792112114,18.24601544083571L-10.08486948721247,18.394821750658714L-160.90110873162038,56.62333399880674zM161.88896622627124,-69.16779012330986L161.774275632536,-69.43604610525185L2.7551812656550716,-27.455512831118995zM-6.431586456979849,18.003204583510534L-8.270819792112114,18.24601544083571L-160.88708969482644,56.91903637179535zM162.0357473146915,-68.82445623780167L161.88896622627124,-69.16779012330986L4.510865574647429,-27.63163539943814zM165.56398773587733,-59.412284838875195L21.83611790737973,-23.00577812090949L22.794091712838792,-22.095155809645785zM-4.574810328801773,17.667209312668497L-6.431586456979849,18.003204583510534L-160.8770285049613,57.13120485094358zM162.2141255394442,-68.40723678079529L162.0357473146915,-68.82445623780167L6.241416004972059,-27.72044489676794zM-2.708254371152477,17.239278308456118L-4.574810328801773,17.667209312668497L-160.8709671796702,57.258882218145146zM162.4234728421653,-67.91755889152496L162.2141255394442,-68.40723678079529L7.940310404717771,-27.721410814240148zM165.93114992996422,-58.260976264487745L22.794091712838792,-22.095155809645785L23.654517244974162,-21.114907578062432zM162.66307072366948,-67.35711758534657L162.4234728421653,-67.91755889152496L9.601098269700039,-27.634297109661045zM162.9321009966536,-66.72785202632427L162.66307072366948,-67.35711758534657L11.217430204306474,-27.45919241799402zM166.3102835431436,-57.07207804137246L23.654517244974162,-21.114907578062432L24.413630043934436,-20.06859404099612zM161.62615427476524,-69.78253083487074L157.63461871368153,-77.32946132415893L153.51592315587212,-83.4336556626461zM163.22961709580972,-66.0319555956936L162.9321009966536,-66.72785202632427L12.783067458604537,-27.196489447790178zM166.61244841482912,-55.82722118917157L24.413630043934436,-20.06859404099612L25.068010770659768,-18.96005579397457zM163.5545822517925,-65.27186500106215L163.22961709580972,-66.0319555956936L14.29193789665907,-26.84691106224578zM163.9058446835833,-64.45024872477842L163.5545822517925,-65.27186500106215L15.738118701540095,-26.411496168263096zM166.89143198787906,-54.545449058011L25.068010770659768,-18.96005579397457L25.61463790022906,-17.793410840186112zM164.2415070077292,-63.559341098843646L163.9058446835833,-64.45024872477842L17.115878644587898,-25.891606785933075zM167.17571776954355,-53.23932068750977L25.61463790022906,-17.793410840186112L26.050887956615444,-16.573033650889915zM164.54774661748888,-62.59904107434312L164.2415070077292,-63.559341098843646L18.4197181571417,-25.288923935635022zM161.62615427476524,-69.78253083487074L161.1751117575675,-70.83752128700473L157.63461871368153,-77.32946132415893zM167.46422594678202,-51.913830970849205L26.050887956615444,-16.573033650889915L26.374569818741826,-15.30357473839268zM164.87103504305324,-61.585284966315406L164.54774661748888,-62.59904107434312L19.644334851201684,-24.605459878902707zM167.7558212032647,-50.574087878129866L26.374569818741826,-15.30357473839268L26.583910223146702,-13.989900182832303zM165.21019905622452,-60.52173931955384L164.87103504305324,-61.585284966315406L20.784716558210228,-23.84353082141953zM168.04939523381947,-49.22529574853141L26.583910223146702,-13.989900182832303L26.677604803166016,-12.637107869229157zM165.56398773587733,-59.412284838875195L165.21019905622452,-60.52173931955384L21.83611790737973,-23.00577812090949zM168.21878560003233,-47.84043631930836L26.677604803166016,-12.637107869229157L26.654811005779262,-11.25049528557512zM165.93114992996422,-58.260976264487745L165.56398773587733,-59.412284838875195L22.794091712838792,-22.095155809645785zM168.38797769894822,-46.45727523883534L26.654811005779262,-11.25049528557512L26.515157905718137,-9.83553845813954zM166.3102835431436,-57.07207804137246L165.93114992996422,-58.260976264487745L23.654517244974162,-21.114907578062432zM168.55627169552855,-45.08132974043001L26.515157905718137,-9.83553845813954L26.258756071166058,-8.397881993402436zM166.61244841482912,-55.82722118917157L166.3102835431436,-57.07207804137246L24.413630043934436,-20.06859404099612zM168.72301698532377,-43.718116117034505L26.258756071166058,-8.397881993402436L25.886225312077983,-6.943297548545736zM166.89143198787906,-54.545449058011L166.61244841482912,-55.82722118917157L25.068010770659768,-18.96005579397457z" style="fill:rgb(83,212,212)"/><path d="M167.84568099901378,-52.868702511438705L166.40860814626302,-56.7637517340975L170.15144410647252,-45.64302259766479z" style="fill:rgb(246,166,149)"/><path d="M168.8875288594867,-42.37316752654402L25.886225312077983,-6.943297548545736L25.398660845934977,-5.477686813880034z" style="fill:rgb(83,212,212)"/><path d="M167.84568099901378,-52.868702511438705L164.10879928407667,-63.97550793443238L166.40860814626302,-56.7637517340975z" style="fill:rgb(246,166,149)"/><path d="M167.17571776954355,-53.23932068750977L166.89143198787906,-54.545449058011L25.61463790022906,-17.793410840186112z" style="fill:rgb(83,212,212)"/><path d="M-133.5424617712944,114.9672251775215L-145.28393547604233,99.56142216465916L-138.41121421433687,109.06314164467521z" style="fill:rgb(28,51,152)"/><path d="M164.2415070077292,-63.559341098843646L164.10879928407667,-63.97550793443238L163.9058446835833,-64.45024872477842zM169.01909687495527,-41.04424662996649L25.398660845934977,-5.477686813880034L24.79766797808863,-4.007024993357805zM167.46422594678202,-51.913830970849205L167.17571776954355,-53.23932068750977L26.050887956615444,-16.573033650889915zM169.0609318581065,-39.72241928902233L24.79766797808863,-4.007024993357805L24.085343056236688,-2.5373524138126458zM167.7558212032647,-50.574087878129866L167.46422594678202,-51.913830970849205L26.374569818741826,-15.30357473839268zM169.10163087942928,-38.43598476918395L24.085343056236688,-2.5373524138126458L23.26428895483839,-1.0747473248115755zM169.14106706521196,-37.190314405836574L23.26428895483839,-1.0747473248115755L22.33757498229346,0.3747021533579197zM168.04939523381947,-49.22529574853141L167.7558212032647,-50.574087878129866L26.583910223146702,-13.989900182832303zM169.17903156522067,-35.99062595816741L22.33757498229346,0.3747021533579197L21.30876094844074,1.8049448403403754zM168.21878560003233,-47.84043631930836L168.04939523381947,-49.22529574853141L26.677604803166016,-12.637107869229157zM169.21537817309385,-34.841991897160284L21.30876094844074,1.8049448403403754L20.18187497115417,3.2099676835095368z" style="fill:rgb(83,212,212)"/><path d="M-133.5424617712944,114.9672251775215L-140.41930089175767,105.45131830766941L-145.28393547604233,99.56142216465916z" style="fill:rgb(28,51,152)"/><path d="M169.24995691000245,-33.74929405511263L20.18187497115417,3.2099676835095368L18.961392597436433,4.583842653522023zM168.38797769894822,-46.45727523883534L168.21878560003233,-47.84043631930836L26.654811005779262,-11.25049528557512z" style="fill:rgb(83,212,212)"/><path d="M170.15144410647252,-45.64302259766479L168.04939523381947,-49.22529574853141L171.80452549615023,-38.09525525640418z" style="fill:rgb(247,161,155)"/><path d="M169.23344267038152,-32.704668078237866L18.961392597436433,4.583842653522023L17.65220972566858,5.9207694414200756z" style="fill:rgb(83,212,212)"/><path d="M170.15144410647252,-45.64302259766479L166.40860814626302,-56.7637517340975L168.04939523381947,-49.22529574853141z" style="fill:rgb(247,161,155)"/><path d="M168.55627169552855,-45.08132974043001L168.38797769894822,-46.45727523883534L26.515157905718137,-9.83553845813954z" style="fill:rgb(83,212,212)"/><path d="M-128.035925712236,120.51011625920937L-140.41930089175767,105.45131830766941L-133.5424617712944,114.9672251775215z" style="fill:rgb(32,47,158)"/><path d="M8.68902058103392,131.2231099147385L-160.8689437495658,57.30150408355238L-160.8135287248442,58.4697731727135zM169.17866320853096,-31.71590913326445L17.65220972566858,5.9207694414200756L16.259667863482434,7.215054619478449zM166.61244841482912,-55.82722118917157L166.40860814626302,-56.7637517340975L166.3102835431436,-57.07207804137246zM169.1278018464877,-30.797970105139612L16.259667863482434,7.215054619478449L14.789459812586221,8.461208206913673zM169.08108891936396,-29.95483301122312L14.789459812586221,8.461208206913673L13.247661522121367,9.653923136286233zM168.72301698532377,-43.718116117034505L168.55627169552855,-45.08132974043001L26.258756071166058,-8.397881993402436zM169.0387229004671,-29.19017309564954L13.247661522121367,9.653923136286233L11.640686098763156,10.788116148709577zM169.00089815979868,-28.50733974635554L11.640686098763156,10.788116148709577L9.975232696608275,11.858961549033625zM168.8743331216442,-26.222725815152423L-0.8397432773843231,16.7210713274243L-2.708254371152477,17.239278308456118zM168.96776996505216,-27.909321996406977L9.975232696608275,11.858961549033625L8.258295079413166,12.861910796982666zM168.8769641685776,-26.270186046782953L1.0228676358910251,16.114653998086578L-0.8397432773843231,16.7210713274243zM168.93947822600632,-27.398757785447184L8.258295079413166,12.861910796982666L6.497091774295753,13.792709574454971zM168.8875288594867,-42.37316752654402L168.72301698532377,-43.718116117034505L25.886225312077983,-6.943297548545736zM168.8848331911626,-26.41235834506649L2.8717257991202674,15.422489945574796L1.0228676358910251,16.114653998086578zM168.91616489087835,-26.977897697470137L6.497091774295753,13.792709574454971L4.699043184766273,14.647433635705644zM168.8979182397389,-26.648614865510762L4.699043184766273,14.647433635705644L2.8717257991202674,15.422489945574796zM8.68902058103392,131.2231099147385L-160.8135287248442,58.4697731727135L-159.8341322727559,65.83702191288604zM169.01909687495527,-41.04424662996649L168.8875288594867,-42.37316752654402L25.398660845934977,-5.477686813880034zM169.0609318581065,-39.72241928902233L169.01909687495527,-41.04424662996649L24.79766797808863,-4.007024993357805z" style="fill:rgb(83,212,212)"/><path d="M-128.035925712236,120.51011625920937L-134.90928704977063,110.97750843776207L-140.41930089175767,105.45131830766941z" style="fill:rgb(32,47,158)"/><path d="M169.10163087942928,-38.43598476918395L169.0609318581065,-39.72241928902233L24.085343056236688,-2.5373524138126458z" style="fill:rgb(83,212,212)"/><path d="M171.80452549615023,-38.09525525640418L169.0082827232584,-41.385957528399096L172.7822591320014,-30.251398286376013zM171.80452549615023,-38.09525525640418L168.04939523381947,-49.22529574853141L169.0082827232584,-41.385957528399096z" style="fill:rgb(247,155,161)"/><path d="M169.14106706521196,-37.190314405836574L169.10163087942928,-38.43598476918395L23.26428895483839,-1.0747473248115755z" style="fill:rgb(83,212,212)"/><path d="M-121.90149468711755,125.65850648980067L-134.90928704977063,110.97750843776207L-128.035925712236,120.51011625920937z" style="fill:rgb(37,44,163)"/><path d="M8.68902058103392,131.2231099147385L-159.8341322727559,65.83702191288604L-158.22027053010706,73.04030993721847zM169.17903156522067,-35.99062595816741L169.14106706521196,-37.190314405836574L22.33757498229346,0.3747021533579197zM169.21537817309385,-34.841991897160284L169.17903156522067,-35.99062595816741L21.30876094844074,1.8049448403403754zM169.24995691000245,-33.74929405511263L169.21537817309385,-34.841991897160284L20.18187497115417,3.2099676835095368zM169.23344267038152,-32.704668078237866L169.24995691000245,-33.74929405511263L18.961392597436433,4.583842653522023zM169.17866320853096,-31.71590913326445L169.23344267038152,-32.704668078237866L17.65220972566858,5.9207694414200756zM8.68902058103392,131.2231099147385L-158.22027053010706,73.04030993721847L-155.96326062483897,80.0474827207441zM169.1278018464877,-30.797970105139612L169.17866320853096,-31.71590913326445L16.259667863482434,7.215054619478449zM169.08108891936396,-29.95483301122312L169.1278018464877,-30.797970105139612L14.789459812586221,8.461208206913673z" style="fill:rgb(83,212,212)"/><path d="M-121.90149468711755,125.65850648980067L-128.76352193622606,116.10658165649373L-134.90928704977063,110.97750843776207z" style="fill:rgb(37,44,163)"/><path d="M172.7822591320014,-30.251398286376013L169.26499385335484,-33.27435040075778L173.06465582498518,-22.14022989632961z" style="fill:rgb(246,149,166)"/><path d="M169.0387229004671,-29.19017309564954L169.08108891936396,-29.95483301122312L13.247661522121367,9.653923136286233zM169.00089815979868,-28.50733974635554L169.0387229004671,-29.19017309564954L11.640686098763156,10.788116148709577z" style="fill:rgb(83,212,212)"/><path d="M172.7822591320014,-30.251398286376013L169.0082827232584,-41.385957528399096L169.26499385335484,-33.27435040075778z" style="fill:rgb(246,149,166)"/><path d="M168.96776996505216,-27.909321996406977L169.00089815979868,-28.50733974635554L9.975232696608275,11.858961549033625z" style="fill:rgb(83,212,212)"/><path d="M-115.15294540069405,130.37975677461873L-128.76352193622606,116.10658165649373L-121.90149468711755,125.65850648980067z" style="fill:rgb(42,41,169)"/><path d="M168.93947822600632,-27.398757785447184L168.96776996505216,-27.909321996406977L8.258295079413166,12.861910796982666zM169.01909687495527,-41.04424662996649L169.0082827232584,-41.385957528399096L168.8875288594867,-42.37316752654402zM168.91616489087835,-26.977897697470137L168.93947822600632,-27.398757785447184L6.497091774295753,13.792709574454971zM168.8979182397389,-26.648614865510762L168.91616489087835,-26.977897697470137L4.699043184766273,14.647433635705644zM168.8743331216442,-26.222725815152423L168.8769641685776,-26.270186046782953L-0.8397432773843231,16.7210713274243zM168.8848331911626,-26.41235834506649L168.8979182397389,-26.648614865510762L2.8717257991202674,15.422489945574796zM168.8769641685776,-26.270186046782953L168.8848331911626,-26.41235834506649L1.0228676358910251,16.114653998086578zM8.68902058103392,131.2231099147385L-155.96326062483897,80.0474827207441L-153.05679958194446,86.82570518011282z" style="fill:rgb(83,212,212)"/><path d="M-115.15294540069405,130.37975677461873L-121.99554297537462,120.80579777173907L-128.76352193622606,116.10658165649373z" style="fill:rgb(42,41,169)"/><path d="M173.06465582498518,-22.14022989632961L168.80225628142205,-24.921874439850686L172.63461095790387,-13.793263625192791zM173.06465582498518,-22.14022989632961L169.26499385335484,-33.27435040075778L168.80225628142205,-24.921874439850686z" style="fill:rgb(245,143,172)"/><path d="M-107.80813274542537,134.64220077841037L-121.99554297537462,120.80579777173907L-115.15294540069405,130.37975677461873z" style="fill:rgb(48,39,174)"/><path d="M8.68902058103392,131.2231099147385L-153.05679958194446,86.82570518011282L-149.49725969988324,93.34159363731074zM169.23344267038152,-32.704668078237866L169.26499385335484,-33.27435040075778L169.24995691000245,-33.74929405511263zM8.68902058103392,131.2231099147385L168.8743331216442,-26.222725815152423L-160.8689437495658,57.30150408355238zM8.68902058103392,131.2231099147385L-149.49725969988324,93.34159363731074L-145.28393547604233,99.56142216465916z" style="fill:rgb(83,212,212)"/><path d="M-107.80813274542537,134.64220077841037L-114.6229940515544,125.04339344258223L-121.99554297537462,120.80579777173907z" style="fill:rgb(48,39,174)"/><path d="M172.63461095790387,-13.793263625192791L167.60619071313283,-16.36268952832482L171.47842340523442,-5.244733422705148zM172.63461095790387,-13.793263625192791L168.80225628142205,-24.921874439850686L167.60619071313283,-16.36268952832482z" style="fill:rgb(244,137,177)"/><path d="M-99.88906968012932,138.41547998649696L-114.6229940515544,125.04339344258223L-107.80813274542537,134.64220077841037z" style="fill:rgb(54,37,179)"/><path d="M8.68902058103392,131.2231099147385L-145.28393547604233,99.56142216465916L-140.41930089175767,105.45131830766941z" style="fill:rgb(83,212,212)"/><path d="M171.47842340523442,-5.244733422705148L165.66662076973785,-7.633589959303702L169.5860369169929,3.4685400177556174z" style="fill:rgb(242,131,182)"/><path d="M-99.88906968012932,138.41547998649696L-106.66776991079011,128.7889230727973L-114.6229940515544,125.04339344258223z" style="fill:rgb(54,37,179)"/><path d="M-91.42212570378453,141.67093993322746L-106.66776991079011,128.7889230727973L-99.88906968012932,138.41547998649696z" style="fill:rgb(60,35,184)"/><path d="M171.47842340523442,-5.244733422705148L167.60619071313283,-16.36268952832482L165.66662076973785,-7.633589959303702z" style="fill:rgb(242,131,182)"/><path d="M8.68902058103392,131.2231099147385L-140.41930089175767,105.45131830766941L-134.90928704977063,110.97750843776207z" style="fill:rgb(83,212,212)"/><path d="M169.5860369169929,3.4685400177556174L162.9774781075446,1.2260986339967437L166.95144963100213,12.307253020070034z" style="fill:rgb(240,125,187)"/><path d="M-91.42212570378453,141.67093993322746L-98.15619666096165,132.01365761223695L-106.66776991079011,128.7889230727973z" style="fill:rgb(60,35,184)"/><path d="M8.68902058103392,131.2231099147385L-134.90928704977063,110.97750843776207L-128.76352193622606,116.10658165649373z" style="fill:rgb(83,212,212)"/><path d="M-82.43803121166003,144.38190915616002L-98.15619666096165,132.01365761223695L-91.42212570378453,141.67093993322746z" style="fill:rgb(66,34,189)"/><path d="M169.5860369169929,3.4685400177556174L165.66662076973785,-7.633589959303702L162.9774781075446,1.2260986339967437z" style="fill:rgb(240,125,187)"/><path d="M8.68902058103392,131.2231099147385L-128.76352193622606,116.10658165649373L-121.99554297537462,120.80579777173907z" style="fill:rgb(83,212,212)"/><path d="M166.95144963100213,12.307253020070034L159.53709526291757,10.174717848109704L163.57300055442386,21.229820443813175z" style="fill:rgb(237,120,191)"/><path d="M-82.43803121166003,144.38190915616002L-89.1190162477794,134.69086747480281L-98.15619666096165,132.01365761223695z" style="fill:rgb(66,34,189)"/><path d="M-72.97190195105688,146.52417854646268L-89.1190162477794,134.69086747480281L-82.43803121166003,144.38190915616002z" style="fill:rgb(73,33,193)"/><path d="M166.95144963100213,12.307253020070034L162.9774781075446,1.2260986339967437L159.53709526291757,10.174717848109704z" style="fill:rgb(237,120,191)"/><path d="M8.68902058103392,131.2231099147385L168.80225628142205,-24.921874439850686L168.8743331216442,-26.222725815152423zM8.68902058103392,131.2231099147385L-121.99554297537462,120.80579777173907L-114.6229940515544,125.04339344258223z" style="fill:rgb(83,212,212)"/><path d="M163.57300055442386,21.229820443813175L155.34852899153103,19.1685071008058L159.45368612866523,30.192608363247206z" style="fill:rgb(234,114,195)"/><path d="M8.68902058103392,131.2231099147385L167.60619071313283,-16.36268952832482L168.80225628142205,-24.921874439850686z" style="fill:rgb(83,212,212)"/><path d="M-72.97190195105688,146.52417854646268L-79.59144854900586,136.79630702974035L-89.1190162477794,134.69086747480281z" style="fill:rgb(73,33,193)"/><path d="M-63.06319346377269,148.07628284687587L-79.59144854900586,136.79630702974035L-72.97190195105688,146.52417854646268z" style="fill:rgb(79,32,198)"/><path d="M163.57300055442386,21.229820443813175L159.53709526291757,10.174717848109704L155.34852899153103,19.1685071008058z" style="fill:rgb(234,114,195)"/><path d="M8.68902058103392,131.2231099147385L-114.6229940515544,125.04339344258223L-106.66776991079011,128.7889230727973zM8.68902058103392,131.2231099147385L165.66662076973785,-7.633589959303702L167.60619071313283,-16.36268952832482z" style="fill:rgb(83,212,212)"/><path d="M159.45368612866523,30.192608363247206L150.41979485089303,28.16187731566303L154.6013894624691,39.15020786358143z" style="fill:rgb(230,108,199)"/><path d="M-63.06319346377269,148.07628284687587L-69.61311742722384,138.308500151234L-79.59144854900586,136.79630702974035z" style="fill:rgb(79,32,198)"/><path d="M-52.75556819307267,149.01987088118725L-69.61311742722384,138.308500151234L-63.06319346377269,148.07628284687587z" style="fill:rgb(86,32,201)"/><path d="M8.68902058103392,131.2231099147385L-106.66776991079011,128.7889230727973L-98.15619666096165,132.01365761223695z" style="fill:rgb(83,212,212)"/><path d="M159.45368612866523,30.192608363247206L155.34852899153103,19.1685071008058L150.41979485089303,28.16187731566303z" style="fill:rgb(230,108,199)"/><path d="M8.68902058103392,131.2231099147385L162.9774781075446,1.2260986339967437L165.66662076973785,-7.633589959303702z" style="fill:rgb(83,212,212)"/><path d="M154.6013894624691,39.15020786358143L144.76405214486425,37.10776382231206L149.02906072606544,48.05578664334055z" style="fill:rgb(226,102,203)"/><path d="M8.68902058103392,131.2231099147385L-98.15619666096165,132.01365761223695L-89.1190162477794,134.69086747480281z" style="fill:rgb(83,212,212)"/><path d="M-42.09669145841781,149.34010915960803L-59.22795643606681,139.2091144355998L-52.75556819307267,149.01987088118725z" style="fill:rgb(94,32,205)"/><path d="M-52.75556819307267,149.01987088118725L-59.22795643606681,139.2091144355998L-69.61311742722384,138.308500151234z" style="fill:rgb(86,32,201)"/><path d="M154.6013894624691,39.15020786358143L150.41979485089303,28.16187731566303L144.76405214486425,37.10776382231206z" style="fill:rgb(226,102,203)"/><path d="M8.68902058103392,131.2231099147385L159.53709526291757,10.174717848109704L162.9774781075446,1.2260986339967437zM8.68902058103392,131.2231099147385L-89.1190162477794,134.69086747480281L-79.59144854900586,136.79630702974035z" style="fill:rgb(83,212,212)"/><path d="M149.02906072606544,48.05578664334055L138.39978145461674,45.957988675471455L142.7548777866159,56.86144648357248z" style="fill:rgb(222,96,207)"/><path d="M-31.1379921043814,149.0259323577744L-48.483989720885894,139.48336977464265L-42.09669145841781,149.34010915960803z" style="fill:rgb(101,32,208)"/><path d="M-42.09669145841781,149.34010915960803L-48.483989720885894,139.48336977464265L-59.22795643606681,139.2091144355998z" style="fill:rgb(94,32,205)"/><path d="M8.68902058103392,131.2231099147385L155.34852899153103,19.1685071008058L159.53709526291757,10.174717848109704z" style="fill:rgb(83,212,212)"/><path d="M149.02906072606544,48.05578664334055L144.76405214486425,37.10776382231206L138.39978145461674,45.957988675471455z" style="fill:rgb(222,96,207)"/><path d="M8.68902058103392,131.2231099147385L-79.59144854900586,136.79630702974035L-69.61311742722384,138.308500151234z" style="fill:rgb(83,212,212)"/><path d="M142.7548777866159,56.86144648357248L131.3507960682608,54.663673355528466L135.8023086299301,65.51864596847345z" style="fill:rgb(217,91,210)"/><path d="M-19.934301358026133,148.0703076856482L-37.433095952019805,139.12029150330795L-31.1379921043814,149.0259323577744z" style="fill:rgb(108,33,211)"/><path d="M8.68902058103392,131.2231099147385L150.41979485089303,28.16187731566303L155.34852899153103,19.1685071008058z" style="fill:rgb(83,212,212)"/><path d="M-31.1379921043814,149.0259323577744L-37.433095952019805,139.12029150330795L-48.483989720885894,139.48336977464265z" style="fill:rgb(101,32,208)"/><path d="M142.7548777866159,56.86144648357248L138.39978145461674,45.957988675471455L131.3507960682608,54.663673355528466z" style="fill:rgb(217,91,210)"/><path d="M8.68902058103392,131.2231099147385L-69.61311742722384,138.308500151234L-59.22795643606681,139.2091144355998z" style="fill:rgb(83,212,212)"/><path d="M135.8023086299301,65.51864596847345L123.64629545266118,63.17569735487129L128.2000987543388,73.97863867352241z" style="fill:rgb(212,85,213)"/><path d="M-8.543481912124271,146.47055025567346L-26.130622718170148,138.11297805205854L-19.934301358026133,148.0703076856482z" style="fill:rgb(116,34,214)"/><path d="M8.68902058103392,131.2231099147385L144.76405214486425,37.10776382231206L150.41979485089303,28.16187731566303z" style="fill:rgb(83,212,212)"/><path d="M-19.934301358026133,148.0703076856482L-26.130622718170148,138.11297805205854L-37.433095952019805,139.12029150330795z" style="fill:rgb(108,33,211)"/><path d="M135.8023086299301,65.51864596847345L131.3507960682608,54.663673355528466L123.64629545266118,63.17569735487129z" style="fill:rgb(212,85,213)"/><path d="M8.68902058103392,131.2231099147385L-59.22795643606681,139.2091144355998L-48.483989720885894,139.48336977464265z" style="fill:rgb(83,212,212)"/><path d="M128.2000987543388,73.97863867352241L115.32077762687726,71.4452038289205L119.9821844154939,82.19297296220365z" style="fill:rgb(206,80,215)"/><path d="M2.9740750230488353,144.2284051036572L-14.635048210545252,136.458919462154L-8.543481912124271,146.47055025567346z" style="fill:rgb(123,36,216)"/><path d="M8.68902058103392,131.2231099147385L138.39978145461674,45.957988675471455L144.76405214486425,37.10776382231206z" style="fill:rgb(83,212,212)"/><path d="M-8.543481912124271,146.47055025567346L-14.635048210545252,136.458919462154L-26.130622718170148,138.11297805205854z" style="fill:rgb(116,34,214)"/><path d="M8.68902058103392,131.2231099147385L-48.483989720885894,139.48336977464265L-37.433095952019805,139.12029150330795z" style="fill:rgb(83,212,212)"/><path d="M128.2000987543388,73.97863867352241L123.64629545266118,63.17569735487129L115.32077762687726,71.4452038289205z" style="fill:rgb(206,80,215)"/><path d="M119.9821844154939,82.19297296220365L106.4137989176029,79.42405283204496L111.18751597442997,90.11395607676975z" style="fill:rgb(200,75,217)"/><path d="M14.555955231677965,141.35026127091405L-3.0074460202310744,134.16007915497087L2.9740750230488353,144.2284051036572z" style="fill:rgb(131,38,218)"/><path d="M8.68902058103392,131.2231099147385L131.3507960682608,54.663673355528466L138.39978145461674,45.957988675471455zM8.68902058103392,131.2231099147385L-37.433095952019805,139.12029150330795L-26.130622718170148,138.11297805205854z" style="fill:rgb(83,212,212)"/><path d="M2.9740750230488353,144.2284051036572L-3.0074460202310744,134.16007915497087L-14.635048210545252,136.458919462154z" style="fill:rgb(123,36,216)"/><path d="M111.18751597442997,90.11395607676975L96.96981441155128,87.06538556105494L101.8598766918703,97.69519798956979z" style="fill:rgb(194,70,219)"/><path d="M119.9821844154939,82.19297296220365L115.32077762687726,71.4452038289205L106.4137989176029,79.42405283204496z" style="fill:rgb(200,75,217)"/><path d="M26.13831161995453,137.8471478171912L8.68902058103392,131.2231099147385L14.555955231677965,141.35026127091405z" style="fill:rgb(138,40,220)"/><path d="M8.68902058103392,131.2231099147385L123.64629545266118,63.17569735487129L131.3507960682608,54.663673355528466z" style="fill:rgb(83,212,212)"/><path d="M101.8598766918703,97.69519798956979L87.03777678846083,94.32409298221299L92.04746242882388,104.89207524957767z" style="fill:rgb(188,65,220)"/><path d="M8.68902058103392,131.2231099147385L-26.130622718170148,138.11297805205854L-14.635048210545252,136.458919462154z" style="fill:rgb(83,212,212)"/><path d="M37.656495013825904,133.73473098997883L20.389695985727666,127.65934836439425L26.13831161995453,137.8471478171912z" style="fill:rgb(146,43,221)"/><path d="M14.555955231677965,141.35026127091405L8.68902058103392,131.2231099147385L-3.0074460202310744,134.16007915497087z" style="fill:rgb(131,38,218)"/><path d="M111.18751597442997,90.11395607676975L106.4137989176029,79.42405283204496L96.96981441155128,87.06538556105494z" style="fill:rgb(194,70,219)"/><path d="M8.68902058103392,131.2231099147385L115.32077762687726,71.4452038289205L123.64629545266118,63.17569735487129z" style="fill:rgb(83,212,212)"/><path d="M92.04746242882388,104.89207524957767L76.67074972088622,101.15737105903978L81.80253740776367,111.66227864748939z" style="fill:rgb(181,61,221)"/><path d="M49.04566819137064,129.03328124487268L32.02907645047783,123.48480955318745L37.656495013825904,133.73473098997883z" style="fill:rgb(153,46,222)"/><path d="M81.80253740776367,111.66227864748939L65.92543015836712,107.52512909189248L71.1809332336845,117.96621326657674z" style="fill:rgb(175,57,222)"/><path d="M8.68902058103392,131.2231099147385L-14.635048210545252,136.458919462154L-3.0074460202310744,134.16007915497087z" style="fill:rgb(83,212,212)"/><path d="M60.241534722557084,123.76748544377523L43.54144467403503,118.72015226441732L49.04566819137064,129.03328124487268z" style="fill:rgb(160,49,222)"/><path d="M71.1809332336845,117.96621326657674L54.86158539110094,113.39048530811509L60.241534722557084,123.76748544377523z" style="fill:rgb(168,53,222)"/><path d="M26.13831161995453,137.8471478171912L20.389695985727666,127.65934836439425L8.68902058103392,131.2231099147385z" style="fill:rgb(138,40,220)"/><path d="M101.8598766918703,97.69519798956979L96.96981441155128,87.06538556105494L87.03777678846083,94.32409298221299z" style="fill:rgb(188,65,220)"/><path d="M8.68902058103392,131.2231099147385L106.4137989176029,79.42405283204496L115.32077762687726,71.4452038289205z" style="fill:rgb(83,212,212)"/><path d="M37.656495013825904,133.73473098997883L32.02907645047783,123.48480955318745L20.389695985727666,127.65934836439425z" style="fill:rgb(146,43,221)"/><path d="M92.04746242882388,104.89207524957767L87.03777678846083,94.32409298221299L76.67074972088622,101.15737105903978z" style="fill:rgb(181,61,221)"/><path d="M8.68902058103392,131.2231099147385L96.96981441155128,87.06538556105494L106.4137989176029,79.42405283204496z" style="fill:rgb(83,212,212)"/><path d="M49.04566819137064,129.03328124487268L43.54144467403503,118.72015226441732L32.02907645047783,123.48480955318745z" style="fill:rgb(153,46,222)"/><path d="M81.80253740776367,111.66227864748939L76.67074972088622,101.15737105903978L65.92543015836712,107.52512909189248z" style="fill:rgb(175,57,222)"/><path d="M60.241534722557084,123.76748544377523L54.86158539110094,113.39048530811509L43.54144467403503,118.72015226441732z" style="fill:rgb(160,49,222)"/><path d="M71.1809332336845,117.96621326657674L65.92543015836712,107.52512909189248L54.86158539110094,113.39048530811509z" style="fill:rgb(168,53,222)"/><path d="M8.68902058103392,131.2231099147385L87.03777678846083,94.32409298221299L96.96981441155128,87.06538556105494zM8.68902058103392,131.2231099147385L20.389695985727666,127.65934836439425L32.02907645047783,123.48480955318745zM8.68902058103392,131.2231099147385L76.67074972088622,101.15737105903978L87.03777678846083,94.32409298221299zM8.68902058103392,131.2231099147385L32.02907645047783,123.48480955318745L43.54144467403503,118.72015226441732zM8.68902058103392,131.2231099147385L65.92543015836712,107.52512909189248L76.67074972088622,101.15737105903978zM8.68902058103392,131.2231099147385L43.54144467403503,118.72015226441732L54.86158539110094,113.39048530811509zM8.68902058103392,131.2231099147385L54.86158539110094,113.39048530811509L65.92543015836712,107.52512909189248z" style="fill:rgb(83,212,212)"/></svg>
