<?xml version="1.0" encoding="UTF-8"?>
<!-- Generated by jsxcad -->
<!DOCTYPE svg PUBLIC "-//W3C//DTD SVG 1.1 Tiny//EN" "http://www.w3.org/Graphics/SVG/1.1/DTD/svg11-tiny.dtd">
<svg viewBox="-250 -250 500 500" width="500" height="500" xmlns="http://www.w3.org/2000/svg"><path d="M162.56743952168796,-66.98877710186206L-46.08900173385917,-94.63636042740019L-54.685998645322194,-90.10811683467166zM162.56743952168796,-66.98877710186206L-37.3330479119377,-98.84207891737944L-46.08900173385917,-94.63636042740019zM162.56743952168796,-66.98877710186206L-54.685998645322194,-90.10811683467166L-63.10134816425066,-85.26917233419759zM162.56743952168796,-66.98877710186206L-28.441076752705506,-102.71387858602326L-37.3330479119377,-98.84207891737944zM162.56743952168796,-66.98877710186206L-63.10134816425066,-85.26917233419759L-71.31252953451869,-80.13178822855016zM162.56743952168796,-66.98877710186206L-19.43627736961624,-106.24075714618235L-28.441076752705506,-102.71387858602326zM162.56743952168796,-66.98877710186206L-71.31252953451869,-80.13178822855016L-79.29717587504526,-74.70869922455276zM162.56743952168796,-66.98877710186206L-10.342168315027006,-109.41209258439325L-19.43627736961624,-106.24075714618235zM162.56743952168796,-66.98877710186206L-79.29717587504526,-74.70869922455276L-87.03305430225585,-69.01312923920212zM162.56743952168796,-66.98877710186206L-1.1826131758543974,-112.21768044732093L-10.342168315027006,-109.41209258439325zM162.56743952168796,-66.98877710186206L-87.03305430225585,-69.01312923920212L-94.49802259699952,-63.05884605754817zM162.56743952168796,-66.98877710186206L8.018114189249912,-114.64769045452447L-1.1826131758543974,-112.21768044732093zM162.56743952168796,-66.98877710186206L-94.49802259699952,-63.05884605754817L-101.67003375693474,-56.86019661197313zM162.56743952168796,-66.98877710186206L17.235293824070936,-116.69272316719045L8.018114189249912,-114.64769045452447zM162.56743952168796,-66.98877710186206L-101.67003375693474,-56.86019661197313L-108.52708102908129,-50.4321486229571zM162.56743952168796,-66.98877710186206L26.44372427834684,-118.34377934088252L17.235293824070936,-116.69272316719045zM162.56743952168796,-66.98877710186206L-108.52708102908129,-50.4321486229571L-115.04725441314994,-43.79034473595501zM162.56743952168796,-66.98877710186206L35.617663139772716,-119.5923574358876L26.44372427834684,-118.34377934088252zM162.56743952168796,-66.98877710186206L-115.04725441314994,-43.79034473595501L-121.20870486902146,-36.95115485936143zM162.56743952168796,-66.98877710186206L44.73083281110096,-120.4304322741848L35.617663139772716,-119.5923574358876zM162.56743952168796,-66.98877710186206L-121.20870486902146,-36.95115485936143L-126.98967096050245,-29.93172423987294zM162.56743952168796,-66.98877710186206L53.756338624085956,-120.85053264951915L44.73083281110096,-120.4304322741848zM162.56743952168796,-66.98877710186206L-126.98967096050245,-29.93172423987294L-132.36851615249088,-22.75002025839181zM162.56743952168796,-66.98877710186206L62.66668429277937,-120.84581296893802L53.756338624085956,-120.85053264951915zM162.56743952168796,-66.98877710186206L-132.36851615249088,-22.75002025839181L-137.3237734777053,-15.424888090897388zM162.56743952168796,-66.98877710186206L71.43373668930346,-120.41007936286861L62.66668429277937,-120.84581296893802zM162.56743952168796,-66.98877710186206L-137.3237734777053,-15.424888090897388L-141.83416917097148,-7.976112964432422zM-4.859493434902931,-22.729422177679602L-152.89138209660547,16.131976249408407L-152.93396863241102,16.262267786487953zM-6.622987894179522,-22.059607106942018L-152.93396863241102,16.262267786487953L-153.00479867570365,16.478917260531784zM-3.0813544561859385,-23.321308437576633L-152.87716677257413,16.088495793612047L-152.89138209660547,16.131976249408407zM-8.365347108844594,-21.314392130530962L-153.00479867570365,16.478917260531784L-153.10359343735922,16.7811567056646zM-10.080135519644534,-20.496558315099957L-153.10359343735922,16.7811567056646L-153.23003913906783,17.167934341813602zM-11.761040974980995,-19.609142306655077L-153.23003913906783,17.167934341813602L-153.38365757536835,17.637879273152496zM-13.401857340740714,-18.65540923699805L-153.38365757536835,17.637879273152496L-153.56393787281402,18.18933867614424zM-14.99651928240948,-17.63886353048494L-153.56393787281402,18.18933867614424L-153.7702127930767,18.820353234696256zM162.56743952168796,-66.98877710186206L80.02874176833274,-119.53790518735063L71.43373668930346,-120.41007936286861zM-16.539097984903748,-16.563220021430958L-153.7702127930767,18.820353234696256L-154.00177203312842,19.52869508435988zM-18.023858522843387,-15.432401652063541L-154.00177203312842,19.52869508435988L-154.2577707030801,20.311835141711622zM-19.445240612942406,-14.250541494172328L-154.2577707030801,20.311835141711622L-154.53732017485697,21.166970420529918zM162.56743952168796,-66.98877710186206L-141.83416917097148,-7.976112964432422L-145.87875190404796,-0.42444925558580865zM-20.797889129388587,-13.021950274939764L-154.53732017485697,21.166970420529918L-154.83939618451072,22.091029599821567zM-22.076688225479163,-11.751104227458915L-154.83939618451072,22.091029599821567L-155.01388554735115,22.624824824912153zM-22.076688225479163,-11.751104227458915L-155.01388554735115,22.624824824912153L-155.1282930535632,23.07162431179286zM-23.276728163857157,-10.442671408714977L-155.1282930535632,23.07162431179286L-155.39222363551684,24.102402950455513zM162.56743952168796,-66.98877710186206L88.42231739907604,-118.22471901647175L80.02874176833274,-119.53790518735063zM-24.39339254467427,-9.101438780164667L-155.39222363551684,24.102402950455513L-155.67075500538837,25.190238559754928zM-25.422316939996957,-7.732344314727364L-155.67075500538837,25.190238559754928L-155.96288525651366,26.331148065271567zM162.56743952168796,-66.98877710186206L-145.87875190404796,-0.42444925558580865L-149.43688024962393,7.20832904008617zM-26.359428774400573,-6.340452941759221L-155.96288525651366,26.331148065271567L-156.26752390088222,27.52092447703444zM-27.20096220413422,-4.9309215955152945L-156.26752390088222,27.52092447703444L-156.58354936555293,28.75516660495362zM162.56743952168796,-66.98877710186206L96.58448150372466,-116.46685795257166L88.42231739907604,-118.22471901647175zM-27.94348216316405,-3.509014582393635L-156.58354936555293,28.75516660495362L-156.90977642734586,30.029259866838505zM-28.58387300306736,-2.0800671377263513L-156.90977642734586,30.029259866838505L-156.99436126541116,30.35960769687038zM-28.58387300306736,-2.0800671377263513L-156.99436126541116,30.35960769687038L-157.17058703978378,31.319094611897086zM162.56743952168796,-66.98877710186206L-149.43688024962393,7.20832904008617L-152.48845206497592,14.899389787031613zM-29.11938520214566,-0.6494719842971777L-157.17058703978378,31.319094611897086L-157.41172172812412,32.631984018912085zM-8.365347108844594,-21.314392130530962L-6.622987894179522,-22.059607106942018L-153.00479867570365,16.478917260531784zM-10.080135519644534,-20.496558315099957L-8.365347108844594,-21.314392130530962L-153.10359343735922,16.7811567056646zM-6.622987894179522,-22.059607106942018L-4.859493434902931,-22.729422177679602L-152.93396863241102,16.262267786487953zM-11.761040974980995,-19.609142306655077L-10.080135519644534,-20.496558315099957L-153.23003913906783,17.167934341813602zM-4.859493434902931,-22.729422177679602L-3.0813544561859385,-23.321308437576633L-152.89138209660547,16.131976249408407zM-13.401857340740714,-18.65540923699805L-11.761040974980995,-19.609142306655077L-153.38365757536835,17.637879273152496zM-3.0813544561859385,-23.321308437576633L-1.2951387444829827,-23.83300362267867L-152.87716677257413,16.088495793612047zM-14.99651928240948,-17.63886353048494L-13.401857340740714,-18.65540923699805L-153.56393787281402,18.18933867614424zM-16.539097984903748,-16.563220021430958L-14.99651928240948,-17.63886353048494L-153.7702127930767,18.820353234696256zM162.56743952168796,-66.98877710186206L104.48468046686914,-114.26174044032875L96.58448150372466,-116.46685795257166zM-29.547617128653403,0.7773391855958879L-157.41172172812412,32.631984018912085L-157.65738502740618,33.96946993571193zM-18.023858522843387,-15.432401652063541L-16.539097984903748,-16.563220021430958L-154.00177203312842,19.52869508435988zM162.56743952168796,-66.98877710186206L-152.48845206497592,14.899389787031613L-152.87716677257413,16.088495793612047zM-19.445240612942406,-14.250541494172328L-18.023858522843387,-15.432401652063541L-154.2577707030801,20.311835141711622zM-20.797889129388587,-13.021950274939764L-19.445240612942406,-14.250541494172328L-154.53732017485697,21.166970420529918zM-29.866563383413872,2.1948964775710436L-157.65738502740618,33.96946993571193L-157.90660737218832,35.326409258664zM-22.076688225479163,-11.751104227458915L-20.797889129388587,-13.021950274939764L-154.83939618451072,22.091029599821567zM-30.074599325944202,3.597740223563963L-157.90660737218832,35.326409258664L-158.1584492456739,36.69756823661572zM-23.276728163857157,-10.442671408714977L-22.076688225479163,-11.751104227458915L-155.1282930535632,23.07162431179286zM-24.39339254467427,-9.101438780164667L-23.276728163857157,-10.442671408714977L-155.39222363551684,24.102402950455513zM-30.17050186909185,4.980414838480859L-158.1584492456739,36.69756823661572L-158.41191950939483,38.077605493939444zM162.56743952168796,-66.98877710186206L112.09183338048784,-111.60794454875061L104.48468046686914,-114.26174044032875zM-25.422316939996957,-7.732344314727364L-24.39339254467427,-9.101438780164667L-155.67075500538837,25.190238559754928zM-30.153469958746072,6.33750370221291L-158.41191950939483,38.077605493939444L-158.55995922925928,39.43376848739367zM-26.359428774400573,-6.340452941759221L-25.422316939996957,-7.732344314727364L-155.96288525651366,26.331148065271567zM-27.20096220413422,-4.9309215955152945L-26.359428774400573,-6.340452941759221L-156.26752390088222,27.52092447703444zM-30.02311555875129,7.6636441747716715L-158.55995922925928,39.43376848739367L-158.70779075941158,40.788044775163364zM-27.94348216316405,-3.509014582393635L-27.20096220413422,-4.9309215955152945L-156.58354936555293,28.75516660495362zM-29.779490327986924,8.953541780884029L-158.70779075941158,40.788044775163364L-158.85483500493322,42.13503673006026z" style="fill:rgb(83,212,212)"/><path d="M-7.456887157067438,-15.395329295306203L-11.761040974980995,-19.609142306655077L-9.129660557403332,-14.512064468564676z" style="fill:rgb(168,53,222)"/><path d="M-5.750169461907815,-16.208910957687987L-10.080135519644534,-20.496558315099957L-7.456887157067438,-15.395329295306203z" style="fill:rgb(160,49,222)"/><path d="M-9.129660557403332,-14.512064468564676L-13.401857340740714,-18.65540923699805L-10.762314311796926,-13.562367333155217z" style="fill:rgb(175,57,222)"/><path d="M-4.0157923081849205,-16.949787441485817L-8.365347108844594,-21.314392130530962L-5.750169461907815,-16.208910957687987z" style="fill:rgb(153,46,222)"/><path d="M-10.762314311796926,-13.562367333155217L-14.99651928240948,-17.63886353048494L-12.348806292998374,-12.549728725808265z" style="fill:rgb(181,61,221)"/><path d="M-2.2601648077185237,-17.615193050927356L-6.622987894179522,-22.059607106942018L-4.0157923081849205,-16.949787441485817z" style="fill:rgb(146,43,221)"/><path d="M-28.58387300306736,-2.0800671377263513L-27.94348216316405,-3.509014582393635L-156.90977642734586,30.029259866838505z" style="fill:rgb(83,212,212)"/><path d="M-12.348806292998374,-12.549728725808265L-16.539097984903748,-16.563220021430958L-13.883240346733924,-11.477849569769713z" style="fill:rgb(188,65,220)"/><path d="M-0.48975011711957506,-18.20261446681484L-4.859493434902931,-22.729422177679602L-2.2601648077185237,-17.615193050927356z" style="fill:rgb(138,40,220)"/><path d="M162.56743952168796,-66.98877710186206L119.3744396521882,-108.50531118373905L112.09183338048784,-111.60794454875061z" style="fill:rgb(83,212,212)"/><path d="M-13.883240346733924,-11.477849569769713L-18.023858522843387,-15.432401652063541L-15.359910014440857,-10.35064322844326z" style="fill:rgb(194,70,219)"/><path d="M1.2889106023466466,-18.70980554975864L-3.0813544561859385,-23.321308437576633L-0.48975011711957506,-18.20261446681484z" style="fill:rgb(131,38,218)"/><path d="M-15.359910014440857,-10.35064322844326L-19.445240612942406,-14.250541494172328L-16.773280745031464,-9.172226546291203z" style="fill:rgb(200,75,217)"/><path d="M-29.423083981874235,10.202014913652324L-158.85483500493322,42.13503673006026L-159.00048104971842,43.46934866652803z" style="fill:rgb(83,212,212)"/><path d="M3.0692399929291336,-19.1347919744292L-1.2951387444829827,-23.83300362267867L1.2889106023466466,-18.70980554975864z" style="fill:rgb(123,36,216)"/><path d="M-29.11938520214566,-0.6494719842971777L-28.58387300306736,-2.0800671377263513L-157.17058703978378,31.319094611897086z" style="fill:rgb(83,212,212)"/><path d="M-7.456887157067438,-15.395329295306203L-10.080135519644534,-20.496558315099957L-11.761040974980995,-19.609142306655077z" style="fill:rgb(168,53,222)"/><path d="M-5.750169461907815,-16.208910957687987L-8.365347108844594,-21.314392130530962L-10.080135519644534,-20.496558315099957z" style="fill:rgb(160,49,222)"/><path d="M-9.129660557403332,-14.512064468564676L-11.761040974980995,-19.609142306655077L-13.401857340740714,-18.65540923699805z" style="fill:rgb(175,57,222)"/><path d="M-16.773280745031464,-9.172226546291203L-20.797889129388587,-13.021950274939764L-18.11802735465677,-7.946901787401204z" style="fill:rgb(206,80,215)"/><path d="M-4.0157923081849205,-16.949787441485817L-6.622987894179522,-22.059607106942018L-8.365347108844594,-21.314392130530962z" style="fill:rgb(153,46,222)"/><path d="M-10.762314311796926,-13.562367333155217L-13.401857340740714,-18.65540923699805L-14.99651928240948,-17.63886353048494z" style="fill:rgb(181,61,221)"/><path d="M4.844637536730906,-19.47587779570721L0.49255066143909004,-24.26251540615156L3.0692399929291336,-19.1347919744292z" style="fill:rgb(116,34,214)"/><path d="M-2.2601648077185237,-17.615193050927356L-4.859493434902931,-22.729422177679602L-6.622987894179522,-22.059607106942018z" style="fill:rgb(146,43,221)"/><path d="M-12.348806292998374,-12.549728725808265L-14.99651928240948,-17.63886353048494L-16.539097984903748,-16.563220021430958z" style="fill:rgb(188,65,220)"/><path d="M-0.48975011711957506,-18.20261446681484L-3.0813544561859385,-23.321308437576633L-4.859493434902931,-22.729422177679602z" style="fill:rgb(138,40,220)"/><path d="M-18.11802735465677,-7.946901787401204L-22.076688225479163,-11.751104227458915L-19.38906108210446,-6.679133879437076z" style="fill:rgb(212,85,213)"/><path d="M-13.883240346733924,-11.477849569769713L-16.539097984903748,-16.563220021430958L-18.023858522843387,-15.432401652063541z" style="fill:rgb(194,70,219)"/><path d="M6.608491725883169,-19.73165166028272L2.2750873610843168,-24.60813391370708L4.844637536730906,-19.47587779570721z" style="fill:rgb(108,33,211)"/><path d="M-28.954818715354318,11.403976232431354L-159.00048104971842,43.46934866652803L-159.1441638333599,44.785573508938z" style="fill:rgb(83,212,212)"/><path d="M1.2889106023466466,-18.70980554975864L-1.2951387444829827,-23.83300362267867L-3.0813544561859385,-23.321308437576633z" style="fill:rgb(131,38,218)"/><path d="M-15.359910014440857,-10.35064322844326L-18.023858522843387,-15.432401652063541L-19.445240612942406,-14.250541494172328z" style="fill:rgb(200,75,217)"/><path d="M-29.547617128653403,0.7773391855958879L-29.11938520214566,-0.6494719842971777L-157.41172172812412,32.631984018912085z" style="fill:rgb(83,212,212)"/><path d="M-19.38906108210446,-6.679133879437076L-23.276728163857157,-10.442671408714977L-20.581504894456213,-5.373580761441332z" style="fill:rgb(217,91,210)"/><path d="M8.354222785999626,-19.90100665934117L4.045834950374629,-24.86843065473132L6.608491725883169,-19.73165166028272z" style="fill:rgb(101,32,208)"/><path d="M3.0692399929291336,-19.1347919744292L0.49255066143909004,-24.26251540615156L-1.2951387444829827,-23.83300362267867z" style="fill:rgb(123,36,216)"/><path d="M-16.773280745031464,-9.172226546291203L-19.445240612942406,-14.250541494172328L-20.797889129388587,-13.021950274939764z" style="fill:rgb(206,80,215)"/><path d="M4.844637536730906,-19.47587779570721L2.2750873610843168,-24.60813391370708L0.49255066143909004,-24.26251540615156z" style="fill:rgb(116,34,214)"/><path d="M-20.581504894456213,-5.373580761441332L-24.39339254467427,-9.101438780164667L-21.690764782615222,-4.03502008046911z" style="fill:rgb(222,96,207)"/><path d="M-18.11802735465677,-7.946901787401204L-20.797889129388587,-13.021950274939764L-22.076688225479163,-11.751104227458915z" style="fill:rgb(212,85,213)"/><path d="M-28.376083611267656,12.55450190935907L-159.1441638333599,44.785573508938L-159.2496145805803,45.7515649103614z" style="fill:rgb(83,212,212)"/><path d="M10.075262218387874,-19.983113720648173L5.798190004958601,-25.04227704772356L8.354222785999626,-19.90100665934117z" style="fill:rgb(94,32,205)"/><path d="M-29.866563383413872,2.1948964775710436L-29.547617128653403,0.7773391855958879L-157.65738502740618,33.96946993571193zM-28.376083611267656,12.55450190935907L-159.2496145805803,45.7515649103614L-159.25981728617526,46.071834299829106z" style="fill:rgb(83,212,212)"/><path d="M6.608491725883169,-19.73165166028272L4.045834950374629,-24.86843065473132L2.2750873610843168,-24.60813391370708z" style="fill:rgb(108,33,211)"/><path d="M-19.38906108210446,-6.679133879437076L-22.076688225479163,-11.751104227458915L-23.276728163857157,-10.442671408714977z" style="fill:rgb(217,91,210)"/><path d="M-21.690764782615222,-4.03502008046911L-25.422316939996957,-7.732344314727364L-22.712508544082763,-2.6683814405037367z" style="fill:rgb(226,102,203)"/><path d="M11.765123325486366,-19.977473230959205L7.525559379473197,-25.128832223285126L10.075262218387874,-19.983113720648173z" style="fill:rgb(86,32,201)"/><path d="M8.354222785999626,-19.90100665934117L5.798190004958601,-25.04227704772356L4.045834950374629,-24.86843065473132z" style="fill:rgb(101,32,208)"/><path d="M-20.581504894456213,-5.373580761441332L-23.276728163857157,-10.442671408714977L-24.39339254467427,-9.101438780164667z" style="fill:rgb(222,96,207)"/><path d="M-27.688699878911848,13.648819724048352L-159.25981728617526,46.071834299829106L-159.29928509016153,47.31068700417452zM-30.074599325944202,3.597740223563963L-29.866563383413872,2.1948964775710436L-157.90660737218832,35.326409258664z" style="fill:rgb(83,212,212)"/><path d="M-22.712508544082763,-2.6683814405037367L-26.359428774400573,-6.340452941759221L-23.64268957147139,-1.2787207614698817z" style="fill:rgb(230,108,199)"/><path d="M162.56743952168796,-66.98877710186206L126.30061838643414,-104.95512937803635L119.3744396521882,-108.50531118373905z" style="fill:rgb(83,212,212)"/><path d="M13.417386365335396,-19.883872949851952L9.221433140317604,-25.127574605674624L11.765123325486366,-19.977473230959205z" style="fill:rgb(79,32,198)"/><path d="M10.075262218387874,-19.983113720648173L7.525559379473197,-25.128832223285126L5.798190004958601,-25.04227704772356z" style="fill:rgb(94,32,205)"/><path d="M-21.690764782615222,-4.03502008046911L-24.39339254467427,-9.101438780164667L-25.422316939996957,-7.732344314727364z" style="fill:rgb(226,102,203)"/><path d="M-23.64268957147139,-1.2787207614698817L-27.20096220413422,-4.9309215955152945L-24.477570569567376,0.12881156262762533z" style="fill:rgb(234,114,195)"/><path d="M-26.894954220883232,14.682347498234872L-159.29928509016153,47.31068700417452L-159.33769151120825,48.51630813004834z" style="fill:rgb(83,212,212)"/><path d="M15.025736772878048,-19.702432410438522L10.879372281585649,-25.0382771406882L13.417386365335396,-19.883872949851952z" style="fill:rgb(73,33,193)"/><path d="M-30.17050186909185,4.980414838480859L-30.074599325944202,3.597740223563963L-158.1584492456739,36.69756823661572z" style="fill:rgb(83,212,212)"/><path d="M11.765123325486366,-19.977473230959205L9.221433140317604,-25.127574605674624L7.525559379473197,-25.128832223285126z" style="fill:rgb(86,32,201)"/><path d="M-22.712508544082763,-2.6683814405037367L-25.422316939996957,-7.732344314727364L-26.359428774400573,-6.340452941759221z" style="fill:rgb(230,108,199)"/><path d="M-24.477570569567376,0.12881156262762533L-27.94348216316405,-3.509014582393635L-25.213739983737558,1.5489586263818793z" style="fill:rgb(237,120,191)"/><path d="M13.417386365335396,-19.883872949851952L10.879372281585649,-25.0382771406882L9.221433140317604,-25.127574605674624z" style="fill:rgb(79,32,198)"/><path d="M16.583964350288518,-19.433566512384733L12.493035895178709,-24.86103736208019L15.025736772878048,-19.702432410438522z" style="fill:rgb(66,34,189)"/><path d="M-23.64268957147139,-1.2787207614698817L-26.359428774400573,-6.340452941759221L-27.20096220413422,-4.9309215955152945z" style="fill:rgb(234,114,195)"/><path d="M-25.99756379750819,15.650697587709393L-159.33769151120825,48.51630813004834L-159.37488167356221,49.683679799946454zM-30.153469958746072,6.33750370221291L-30.17050186909185,4.980414838480859L-158.41191950939483,38.077605493939444z" style="fill:rgb(83,212,212)"/><path d="M-25.213739983737558,1.5489586263818793L-28.58387300306736,-2.0800671377263513L-25.848109437529253,2.9763903773877356z" style="fill:rgb(240,125,187)"/><path d="M15.025736772878048,-19.702432410438522L12.493035895178709,-24.86103736208019L10.879372281585649,-25.0382771406882z" style="fill:rgb(73,33,193)"/><path d="M18.086025337801818,-19.07802429462075L14.056197693944492,-24.59625694945748L16.583964350288518,-19.433566512384733z" style="fill:rgb(60,35,184)"/><path d="M-24.477570569567376,0.12881156262762533L-27.20096220413422,-4.9309215955152945L-27.94348216316405,-3.509014582393635z" style="fill:rgb(237,120,191)"/><path d="M-24.999700394801145,16.549726886404496L-159.37488167356221,49.683679799946454L-159.4106932516998,50.80790897928757zM-30.02311555875129,7.6636441747716715L-30.153469958746072,6.33750370221291L-158.55995922925928,39.43376848739367z" style="fill:rgb(83,212,212)"/><path d="M16.583964350288518,-19.433566512384733L14.056197693944492,-24.59625694945748L12.493035895178709,-24.86103736208019z" style="fill:rgb(66,34,189)"/><path d="M-25.848109437529253,2.9763903773877356L-29.11938520214566,-0.6494719842971777L-26.377954324602154,4.405720110638796z" style="fill:rgb(242,131,182)"/><path d="M-25.213739983737558,1.5489586263818793L-27.94348216316405,-3.509014582393635L-28.58387300306736,-2.0800671377263513z" style="fill:rgb(240,125,187)"/><path d="M19.526027330684506,-18.6368747418823L15.562794521685133,-24.24466609450645L18.086025337801818,-19.07802429462075z" style="fill:rgb(54,37,179)"/><path d="M-23.904974172943945,17.375535666713077L-159.4106932516998,50.80790897928757L-159.44498886353543,51.88424964139579zM162.56743952168796,-66.98877710186206L132.83827836951173,-100.96024579538273L126.30061838643414,-104.95512937803635zM-29.779490327986924,8.953541780884029L-30.02311555875129,7.6636441747716715L-158.70779075941158,40.788044775163364z" style="fill:rgb(83,212,212)"/><path d="M18.086025337801818,-19.07802429462075L15.562794521685133,-24.24466609450645L14.056197693944492,-24.59625694945748z" style="fill:rgb(60,35,184)"/><path d="M-26.377954324602154,4.405720110638796L-29.547617128653403,0.7773391855958879L-26.800897197519962,5.831520528508991z" style="fill:rgb(244,137,177)"/><path d="M-25.848109437529253,2.9763903773877356L-28.58387300306736,-2.0800671377263513L-29.11938520214566,-0.6494719842971777z" style="fill:rgb(242,131,182)"/><path d="M20.898265042096025,-18.111502291266067L17.00691277904089,-23.80731531045785L19.526027330684506,-18.6368747418823z" style="fill:rgb(48,39,174)"/><path d="M-22.717426798954314,18.124492856289663L-159.44498886353543,51.88424964139579L-159.4776043532995,52.908130636524405z" style="fill:rgb(83,212,212)"/><path d="M19.526027330684506,-18.6368747418823L17.00691277904089,-23.80731531045785L15.562794521685133,-24.24466609450645z" style="fill:rgb(54,37,179)"/><path d="M-29.423083981874235,10.202014913652324L-29.779490327986924,8.953541780884029L-158.85483500493322,42.13503673006026z" style="fill:rgb(83,212,212)"/><path d="M-26.800897197519962,5.831520528508991L-29.866563383413872,2.1948964775710436L-27.114955751324764,7.248325463039217z" style="fill:rgb(245,143,172)"/><path d="M-26.377954324602154,4.405720110638796L-29.11938520214566,-0.6494719842971777L-29.547617128653403,0.7773391855958879z" style="fill:rgb(244,137,177)"/><path d="M22.19725993994333,-17.5036109666404L18.382831348456413,-23.28557660177611L20.898265042096025,-18.111502291266067z" style="fill:rgb(42,41,169)"/><path d="M-21.441496487355355,18.793266184628038L-159.4776043532995,52.908130636524405L-159.491775169079,53.35315029101387zM-21.441496487355355,18.793266184628038L-159.491775169079,53.35315029101387L-159.46671271151322,53.86458860644439z" style="fill:rgb(83,212,212)"/><path d="M20.898265042096025,-18.111502291266067L18.382831348456413,-23.28557660177611L17.00691277904089,-23.80731531045785z" style="fill:rgb(48,39,174)"/><path d="M-26.800897197519962,5.831520528508991L-29.547617128653403,0.7773391855958879L-29.866563383413872,2.1948964775710436z" style="fill:rgb(245,143,172)"/><path d="M-27.114955751324764,7.248325463039217L-30.074599325944202,3.597740223563963L-27.318524327999736,8.650679267957463z" style="fill:rgb(246,149,166)"/><path d="M-28.954818715354318,11.403976232431354L-29.423083981874235,10.202014913652324L-159.00048104971842,43.46934866652803zM-20.082062684219245,19.378820361252544L-159.46671271151322,53.86458860644439L-159.42319557696925,54.75229234458354z" style="fill:rgb(83,212,212)"/><path d="M23.41773184500446,-16.815236886929426L19.68505426894157,-22.681131926762355L22.19725993994333,-17.5036109666404z" style="fill:rgb(37,44,163)"/><path d="M22.19725993994333,-17.5036109666404L19.68505426894157,-22.681131926762355L18.382831348456413,-23.28557660177611z" style="fill:rgb(42,41,169)"/><path d="M-18.644359405711853,19.878462048074038L-159.42319557696925,54.75229234458354L-159.38278916246415,55.576449706746246z" style="fill:rgb(83,212,212)"/><path d="M-27.114955751324764,7.248325463039217L-29.866563383413872,2.1948964775710436L-30.074599325944202,3.597740223563963z" style="fill:rgb(246,149,166)"/><path d="M-27.318524327999736,8.650679267957463L-30.17050186909185,4.980414838480859L-27.41040938275719,10.033127508868455z" style="fill:rgb(247,155,161)"/><path d="M-28.376083611267656,12.55450190935907L-28.954818715354318,11.403976232431354L-159.1441638333599,44.785573508938z" style="fill:rgb(83,212,212)"/><path d="M24.55469295666979,-16.0487219164832L20.908290959239594,-21.996007454508106L23.41773184500446,-16.815236886929426z" style="fill:rgb(32,47,158)"/><path d="M162.56743952168796,-66.98877710186206L138.95520661533138,-96.5252018460025L132.83827836951173,-100.96024579538273zM-17.13400728640987,20.289841415748892L-159.38278916246415,55.576449706746246L-159.3456889292378,56.33347183446559z" style="fill:rgb(83,212,212)"/><path d="M23.41773184500446,-16.815236886929426L20.908290959239594,-21.996007454508106L19.68505426894157,-22.681131926762355z" style="fill:rgb(37,44,163)"/><path d="M-27.318524327999736,8.650679267957463L-30.074599325944202,3.597740223563963L-30.17050186909185,4.980414838480859z" style="fill:rgb(247,155,161)"/><path d="M-27.41040938275719,10.033127508868455L-30.153469958746072,6.33750370221291L-27.389817468426557,11.390256712552928z" style="fill:rgb(247,161,155)"/><path d="M-27.688699878911848,13.648819724048352L-28.376083611267656,12.55450190935907L-159.25981728617526,46.071834299829106z" style="fill:rgb(83,212,212)"/><path d="M25.603411397579872,-15.206729131373967L22.047534460511784,-21.232525606264126L24.55469295666979,-16.0487219164832z" style="fill:rgb(28,51,152)"/><path d="M-15.556975253652665,20.6109631901237L-159.3456889292378,56.33347183446559L-159.31202922167577,57.02005692961521z" style="fill:rgb(83,212,212)"/><path d="M24.55469295666979,-16.0487219164832L22.047534460511784,-21.232525606264126L20.908290959239594,-21.996007454508106z" style="fill:rgb(32,47,158)"/><path d="M-13.91954404320762,20.84020690840866L-159.31202922167577,57.02005692961521L-159.2819770183677,57.633191645727855z" style="fill:rgb(83,212,212)"/><path d="M-27.41040938275719,10.033127508868455L-30.17050186909185,4.980414838480859L-30.153469958746072,6.33750370221291z" style="fill:rgb(247,161,155)"/><path d="M-27.389817468426557,11.390256712552928L-30.02311555875129,7.6636441747716715L-27.256390100628256,12.716703369925227z" style="fill:rgb(246,166,149)"/><path d="M-26.894954220883232,14.682347498234872L-27.688699878911848,13.648819724048352L-159.29928509016153,47.31068700417452z" style="fill:rgb(83,212,212)"/><path d="M26.559456954423872,-14.292228648090564L23.0980453572151,-20.393335076556504L25.603411397579872,-15.206729131373967z" style="fill:rgb(24,55,146)"/><path d="M-12.228318672928179,20.976355205256713L-159.2819770183677,57.633191645727855L-159.25564434941472,58.17018222569735z" style="fill:rgb(83,212,212)"/><path d="M25.603411397579872,-15.206729131373967L23.0980453572151,-20.393335076556504L22.047534460511784,-21.232525606264126z" style="fill:rgb(28,51,152)"/><path d="M162.58393758263878,-66.95016472592945L-1.2951387444829827,-23.83300362267867L0.49255066143909004,-24.26251540615156zM-10.490158862291045,21.01856621645237L-159.25564434941472,58.17018222569735L-159.2331760387284,58.62865290980468z" style="fill:rgb(83,212,212)"/><path d="M-27.389817468426557,11.390256712552928L-30.153469958746072,6.33750370221291L-30.02311555875129,7.6636441747716715z" style="fill:rgb(246,166,149)"/><path d="M-27.256390100628256,12.716703369925227L-29.779490327986924,8.953541780884029L-27.01018633910612,14.007175709048955z" style="fill:rgb(245,172,143)"/><path d="M162.63336429986776,-66.83445170956975L0.49255066143909004,-24.26251540615156L2.2750873610843168,-24.60813391370708zM-25.99756379750819,15.650697587709393L-26.894954220883232,14.682347498234872L-159.33769151120825,48.51630813004834z" style="fill:rgb(83,212,212)"/><path d="M27.418722036690607,-13.308487666744876L24.055381639121393,-19.481396820964758L26.559456954423872,-14.292228648090564z" style="fill:rgb(20,59,140)"/><path d="M-8.712172861417983,20.96642392307396L-159.2331760387284,58.62865290980468L-159.21464045678096,59.00657669025607zM162.71556474691332,-66.64204664739789L2.2750873610843168,-24.60813391370708L4.045834950374629,-24.86843065473132zM-6.90166753670763,20.81990142353818L-159.21464045678096,59.00657669025607L-159.2001532143074,59.3022787102621z" style="fill:rgb(83,212,212)"/><path d="M26.559456954423872,-14.292228648090564L24.055381639121393,-19.481396820964758L23.0980453572151,-20.393335076556504z" style="fill:rgb(24,55,146)"/><path d="M162.83025810370623,-66.37359487314521L4.045834950374629,-24.86843065473132L5.798190004958601,-25.04227704772356zM-5.066152543455706,20.57941432478992L-159.2001532143074,59.3022787102621L-159.18974452682016,59.51443672460157z" style="fill:rgb(83,212,212)"/><path d="M-27.256390100628256,12.716703369925227L-30.02311555875129,7.6636441747716715L-29.779490327986924,8.953541780884029z" style="fill:rgb(245,172,143)"/><path d="M-27.01018633910612,14.007175709048955L-29.423083981874235,10.202014913652324L-26.65171324944176,15.256489266337883z" style="fill:rgb(244,177,137)"/><path d="M-24.999700394801145,16.549726886404496L-25.99756379750819,15.650697587709393L-159.37488167356221,49.683679799946454zM-3.213252893752963,20.245773377371286L-159.18974452682016,59.51443672460157L-159.18349265568762,59.64211696402913z" style="fill:rgb(83,212,212)"/><path d="M28.177451096552264,-12.259084365909432L24.915428415912444,-18.499961003191324L27.418722036690607,-13.308487666744876z" style="fill:rgb(17,63,135)"/><path d="M162.56743952168796,-66.98877710186206L144.61923273847984,-91.65640766020718L138.95520661533138,-96.5252018460025zM162.97704248495964,-66.030024736041L5.798190004958601,-25.04227704772356L7.525559379473197,-25.128832223285126zM-1.3507151570115663,19.82021771603209L-159.18349265568762,59.64211696402913L-159.18140175215837,59.68473783731036z" style="fill:rgb(83,212,212)"/><path d="M27.418722036690607,-13.308487666744876L24.915428415912444,-18.499961003191324L24.055381639121393,-19.481396820964758z" style="fill:rgb(20,59,140)"/><path d="M163.15542429561384,-65.61251178787536L7.525559379473197,-25.128832223285126L9.221433140317604,-25.127574605674624z" style="fill:rgb(83,212,212)"/><path d="M-27.01018633910612,14.007175709048955L-29.779490327986924,8.953541780884029L-29.423083981874235,10.202014913652324z" style="fill:rgb(244,177,137)"/><path d="M-23.904974172943945,17.375535666713077L-24.999700394801145,16.549726886404496L-159.4106932516998,50.80790897928757z" style="fill:rgb(83,212,212)"/><path d="M-26.65171324944176,15.256489266337883L-28.954818715354318,11.403976232431354L-26.18190565230252,16.459555238372438z" style="fill:rgb(242,182,131)"/><path d="M28.83223412860309,-11.147871653266108L25.67442026820395,-17.452595665885596L28.177451096552264,-12.259084365909432z" style="fill:rgb(14,67,129)"/><path d="M163.36477551329466,-65.12249083138015L9.221433140317604,-25.127574605674624L10.879372281585649,-25.0382771406882z" style="fill:rgb(83,212,212)"/><path d="M28.177451096552264,-12.259084365909432L25.67442026820395,-17.452595665885596L24.915428415912444,-18.499961003191324z" style="fill:rgb(17,63,135)"/><path d="M-22.717426798954314,18.124492856289663L-23.904974172943945,17.375535666713077L-159.44498886353543,51.88424964139579z" style="fill:rgb(83,212,212)"/><path d="M-26.65171324944176,15.256489266337883L-29.423083981874235,10.202014913652324L-28.954818715354318,11.403976232431354z" style="fill:rgb(242,182,131)"/><path d="M163.60437664114866,-64.56165839604735L10.879372281585649,-25.0382771406882L12.493035895178709,-24.86103736208019z" style="fill:rgb(83,212,212)"/><path d="M-26.18190565230252,16.459555238372438L-28.376083611267656,12.55450190935907L-25.602163127206016,17.61144964651234z" style="fill:rgb(240,187,125)"/><path d="M163.8734098736298,-63.93195595327662L12.493035895178709,-24.86103736208019L14.056197693944492,-24.59625694945748zM-21.441496487355355,18.793266184628038L-22.717426798954314,18.124492856289663L-159.4776043532995,52.908130636524405z" style="fill:rgb(83,212,212)"/><path d="M28.83223412860309,-11.147871653266108L26.32894339809771,-16.343142406229624L25.67442026820395,-17.452595665885596z" style="fill:rgb(14,67,129)"/><path d="M-26.18190565230252,16.459555238372438L-28.954818715354318,11.403976232431354L-28.376083611267656,12.55450190935907z" style="fill:rgb(240,187,125)"/><path d="M164.1709281019559,-63.23557906058817L14.056197693944492,-24.59625694945748L15.562794521685133,-24.24466609450645zM-20.082062684219245,19.378820361252544L-21.441496487355355,18.793266184628038L-159.46671271151322,53.86458860644439zM162.56743952168796,-66.98877710186206L149.7984379618428,-86.36224719806226L144.61923273847984,-91.65640766020718zM164.495894197675,-62.47496085825319L15.562794521685133,-24.24466609450645L17.00691277904089,-23.80731531045785zM-18.644359405711853,19.878462048074038L-20.082062684219245,19.378820361252544L-159.42319557696925,54.75229234458354zM164.84715604158282,-61.65278459268042L17.00691277904089,-23.80731531045785L18.382831348456413,-23.28557660177611zM-17.13400728640987,20.289841415748892L-18.644359405711853,19.878462048074038L-159.38278916246415,55.576449706746246zM165.1829097651166,-60.761341388919796L18.382831348456413,-23.28557660177611L19.68505426894157,-22.681131926762355zM-15.556975253652665,20.6109631901237L-17.13400728640987,20.289841415748892L-159.3456889292378,56.33347183446559zM-13.91954404320762,20.84020690840866L-15.556975253652665,20.6109631901237L-159.31202922167577,57.02005692961521zM165.48936156254535,-59.800537708348884L19.68505426894157,-22.681131926762355L20.908290959239594,-21.996007454508106zM-12.228318672928179,20.976355205256713L-13.91954404320762,20.84020690840866L-159.2819770183677,57.633191645727855zM165.8128722074688,-58.786255474445724L20.908290959239594,-21.996007454508106L22.047534460511784,-21.232525606264126zM162.56743952168796,-66.98877710186206L154.46138118478888,-80.65327086407343L149.7984379618428,-86.36224719806226zM-10.490158862291045,21.01856621645237L-12.228318672928179,20.976355205256713L-159.25564434941472,58.17018222569735zM-8.712172861417983,20.96642392307396L-10.490158862291045,21.01856621645237L-159.2331760387284,58.62865290980468zM162.58393758263878,-66.95016472592945L162.56743952168796,-66.98877710186206L-1.2951387444829827,-23.83300362267867zM166.1522674030675,-57.72216399737827L22.047534460511784,-21.232525606264126L23.0980453572151,-20.393335076556504zM162.63336429986776,-66.83445170956975L162.58393758263878,-66.95016472592945L0.49255066143909004,-24.26251540615156zM162.71556474691332,-66.64204664739789L162.63336429986776,-66.83445170956975L2.2750873610843168,-24.60813391370708zM-6.90166753670763,20.81990142353818L-8.712172861417983,20.96642392307396L-159.21464045678096,59.00657669025607zM162.83025810370623,-66.37359487314521L162.71556474691332,-66.64204664739789L4.045834950374629,-24.86843065473132zM-5.066152543455706,20.57941432478992L-6.90166753670763,20.81990142353818L-159.2001532143074,59.3022787102621zM162.97704248495964,-66.030024736041L162.83025810370623,-66.37359487314521L5.798190004958601,-25.04227704772356zM166.50630731840215,-56.612140724702165L23.0980453572151,-20.393335076556504L24.055381639121393,-19.481396820964758zM-3.213252893752963,20.245773377371286L-5.066152543455706,20.57941432478992L-159.18974452682016,59.51443672460157zM163.15542429561384,-65.61251178787536L162.97704248495964,-66.030024736041L7.525559379473197,-25.128832223285126zM-1.3507151570115663,19.82021771603209L-3.213252893752963,20.245773377371286L-159.18349265568762,59.64211696402913zM163.36477551329466,-65.12249083138015L163.15542429561384,-65.61251178787536L9.221433140317604,-25.127574605674624zM166.87370306087433,-55.46025543844351L24.055381639121393,-19.481396820964758L24.915428415912444,-18.499961003191324zM163.60437664114866,-64.56165839604735L163.36477551329466,-65.12249083138015L10.879372281585649,-25.0382771406882zM163.8734098736298,-63.93195595327662L163.60437664114866,-64.56165839604735L12.493035895178709,-24.86103736208019zM167.2530879857533,-54.270775502434496L24.915428415912444,-18.499961003191324L25.67442026820395,-17.452595665885596zM162.56743952168796,-66.98877710186206L158.57729826537786,-74.54228100658736L154.46138118478888,-80.65327086407343zM164.1709281019559,-63.23557906058817L163.8734098736298,-63.93195595327662L14.056197693944492,-24.59625694945748zM167.55571253937705,-53.0254389152031L25.67442026820395,-17.452595665885596L26.32894339809771,-16.343142406229624zM164.495894197675,-62.47496085825319L164.1709281019559,-63.23557906058817L15.562794521685133,-24.24466609450645zM164.84715604158282,-61.65278459268042L164.495894197675,-62.47496085825319L17.00691277904089,-23.80731531045785zM167.8352349662651,-51.74321851709278L26.32894339809771,-16.343142406229624L26.875982341698492,-15.175728474918968zM165.1829097651166,-60.761341388919796L164.84715604158282,-61.65278459268042L18.382831348456413,-23.28557660177611zM168.1200678890269,-50.43664853371034L26.875982341698492,-15.175728474918968L27.312906872702484,-13.954731069495642zM165.48936156254535,-59.800537708348884L165.1829097651166,-60.761341388919796L19.68505426894157,-22.681131926762355zM162.56743952168796,-66.98877710186206L162.11639548879455,-68.04451405564213L158.57729826537786,-74.54228100658736zM168.4091292745901,-49.1107229895544L27.312906872702484,-13.954731069495642L27.6375254302378,-12.684804229582404zM165.8128722074688,-58.786255474445724L165.48936156254535,-59.800537708348884L20.908290959239594,-21.996007454508106zM168.70129394547516,-47.77054574707791L27.6375254302378,-12.684804229582404L27.848069270254484,-11.37081688743812zM166.1522674030675,-57.72216399737827L165.8128722074688,-58.786255474445724L22.047534460511784,-21.232525606264126zM168.99541497059698,-46.4213293755479L27.848069270254484,-11.37081688743812L27.94323145761911,-10.017869040299729zM166.50630731840215,-56.612140724702165L166.1522674030675,-57.72216399737827L23.0980453572151,-20.393335076556504zM169.16566915091178,-45.03621388215626L27.94323145761911,-10.017869040299729L27.922156852827584,-8.631259531327816zM166.87370306087433,-55.46025543844351L166.50630731840215,-56.612140724702165L24.055381639121393,-19.481396820964758zM169.33569867167694,-43.6528099746045L27.922156852827584,-8.631259531327816L27.78447863695566,-7.216464992241957zM167.2530879857533,-54.270775502434496L166.87370306087433,-55.46025543844351L24.915428415912444,-18.499961003191324zM169.50483632799285,-42.27663240157223L27.78447863695566,-7.216464992241957L27.5303014335662,-5.779130213261825zM167.55571253937705,-53.0254389152031L167.2530879857533,-54.270775502434496L25.67442026820395,-17.452595665885596zM169.6724167770827,-40.91319845822173L27.5303014335662,-5.779130213261825L27.160231942972736,-4.325025125264532zM167.8352349662651,-51.74321851709278L167.55571253937705,-53.0254389152031L26.32894339809771,-16.343142406229624zM169.83775249808724,-39.568041953150924L27.160231942972736,-4.325025125264532L26.675357085032328,-2.8600496583385326zM168.1200678890269,-50.43664853371034L167.8352349662651,-51.74321851709278L26.875982341698492,-15.175728474918968zM165.1829097651166,-60.761341388919796L165.05010956391752,-61.1777220160936L164.84715604158282,-61.65278459268042zM169.97019881079964,-38.238965435803784L26.675357085032328,-2.8600496583385326L26.077280231045602,-1.3901771939170835zM168.4091292745901,-49.1107229895544L168.1200678890269,-50.43664853371034L27.312906872702484,-13.954731069495642z" style="fill:rgb(83,212,212)"/><path d="M166.91850845332712,-55.62442540672785L165.05010956391752,-61.1777220160936L167.35147735334826,-53.96229803450821z" style="fill:rgb(246,166,149)"/><path d="M170.0130965335503,-36.917109655458724L26.077280231045602,-1.3901771939170835L25.368082556192313,0.0785555832521735z" style="fill:rgb(83,212,212)"/><path d="M166.91850845332712,-55.62442540672785L167.35147735334826,-53.96229803450821L169.22285899136887,-48.402038396105745z" style="fill:rgb(246,166,149)"/><path d="M168.70129394547516,-47.77054574707791L168.4091292745901,-49.1107229895544L27.6375254302378,-12.684804229582404zM170.05484302356066,-35.63065581329697L25.368082556192313,0.0785555832521735L24.55035231808109,1.5400746500529063z" style="fill:rgb(83,212,212)"/><path d="M-135.24852740849212,112.60643565301784L-143.5526605798794,101.95495680213328L-140.1163601127765,106.7057310456414z" style="fill:rgb(28,51,152)"/><path d="M170.09526972702855,-34.384974592974444L24.55035231808109,1.5400746500529063L23.627150510078412,2.9882966939322624zM168.99541497059698,-46.4213293755479L168.70129394547516,-47.77054574707791L27.848069270254484,-11.37081688743812zM170.13419898465727,-33.185282580309085L23.627150510078412,2.9882966939322624L22.602021625881875,4.417176176403033zM169.16566915091178,-45.03621388215626L168.99541497059698,-46.4213293755479L27.94323145761911,-10.017869040299729zM170.171469087009,-32.036651641742566L22.602021625881875,4.417176176403033L21.47897895114562,5.8207061035584235zM170.2069261448843,-30.943962712083156L21.47897895114562,5.8207061035584235L20.26248228404486,7.192965426533644zM169.33569867167694,-43.6528099746045L169.16566915091178,-45.03621388215626L27.922156852827584,-8.631259531327816zM170.1913575897772,-29.899415653591753L20.26248228404486,7.192965426533644L18.957412493951217,8.528160943520398z" style="fill:rgb(83,212,212)"/><path d="M-135.24852740849212,112.60643565301784L-138.68688577041698,107.84856924619767L-143.5526605798794,101.95495680213328z" style="fill:rgb(28,51,152)"/><path d="M169.50483632799285,-42.27663240157223L169.33569867167694,-43.6528099746045L27.78447863695566,-7.216464992241957zM10.168095534266158,133.77619535141523L-159.18140175215837,59.68473783731036L-159.12413732274845,60.85297048894737zM170.1375590280188,-28.91078772863703L18.957412493951217,8.528160943520398L17.569089020167315,9.820608372986873zM167.55571253937705,-53.0254389152031L167.35147735334826,-53.96229803450821L167.2530879857533,-54.270775502434496zM170.08760956105868,-27.992974571177268L17.569089020167315,9.820608372986873L16.103191287369352,11.064825178703494z" style="fill:rgb(83,212,212)"/><path d="M169.22285899136887,-48.402038396105745L167.35147735334826,-53.96229803450821L168.99541497059698,-46.4213293755479z" style="fill:rgb(247,161,155)"/><path d="M170.04173345932432,-27.14995636708883L16.103191287369352,11.064825178703494L14.565775024381834,12.255513646466985zM169.6724167770827,-40.91319845822173L169.50483632799285,-42.27663240157223L27.5303014335662,-5.779130213261825zM170.0001265342762,-26.38540712024748L14.565775024381834,12.255513646466985L12.96323411014609,13.387599859510814zM169.96297976292374,-25.7026764467618L12.96323411014609,13.387599859510814L11.30224894194038,14.456267057450578z" style="fill:rgb(83,212,212)"/><path d="M169.22285899136887,-48.402038396105745L168.99541497059698,-46.4213293755479L170.8729489531349,-40.856417277155415z" style="fill:rgb(247,161,155)"/><path d="M169.83868394443397,-23.418414947430644L0.5136538952941846,19.30439719663153L-1.3507151570115663,19.82021771603209zM169.9304454259843,-25.104747456324525L11.30224894194038,14.456267057450578L9.589791165185375,15.456978924995944zM169.84126783255144,-23.46586758008874L2.3720178025630596,18.70036737900091L0.5136538952941846,19.30439719663153zM169.9026607903142,-24.594261678981383L9.589791165185375,15.456978924995944L7.833061565355374,16.385489026839338zM169.83775249808724,-39.568041953150924L169.6724167770827,-40.91319845822173L27.160231942972736,-4.325025125264532zM169.84899459832678,-23.60801703280428L4.216542652566415,18.01058165396837L2.3720178025630596,18.70036737900091zM169.87976447046773,-24.173466997645704L7.833061565355374,16.385489026839338L6.039460135373743,17.237884163185644zM169.86184596409177,-23.84423617996513L6.039460135373743,17.237884163185644L4.216542652566415,18.01058165396837zM10.168095534266158,133.77619535141523L-159.12413732274845,60.85297048894737L-158.13407603237272,68.22063063532175z" style="fill:rgb(83,212,212)"/><path d="M-129.74103024753205,118.14532421376961L-138.68688577041698,107.84856924619767L-135.24852740849212,112.60643565301784z" style="fill:rgb(32,47,158)"/><path d="M169.97019881079964,-38.238965435803784L169.83775249808724,-39.568041953150924L26.675357085032328,-2.8600496583385326zM170.0130965335503,-36.917109655458724L169.97019881079964,-38.238965435803784L26.077280231045602,-1.3901771939170835zM170.05484302356066,-35.63065581329697L170.0130965335503,-36.917109655458724L25.368082556192313,0.0785555832521735zM170.09526972702855,-34.384974592974444L170.05484302356066,-35.63065581329697L24.55035231808109,1.5400746500529063z" style="fill:rgb(83,212,212)"/><path d="M-129.74103024753205,118.14532421376961L-133.17764279751407,113.3791090626054L-138.68688577041698,107.84856924619767z" style="fill:rgb(32,47,158)"/><path d="M10.168095534266158,133.77619535141523L-158.13407603237272,68.22063063532175L-156.51090332802136,75.4248258019338zM170.13419898465727,-33.185282580309085L170.09526972702855,-34.384974592974444L23.627150510078412,2.9882966939322624z" style="fill:rgb(83,212,212)"/><path d="M170.8729489531349,-40.856417277155415L168.99541497059698,-46.4213293755479L169.95910961829978,-38.58068500375718z" style="fill:rgb(247,155,161)"/><path d="M170.171469087009,-32.036651641742566L170.13419898465727,-33.185282580309085L22.602021625881875,4.417176176403033z" style="fill:rgb(83,212,212)"/><path d="M170.8729489531349,-40.856417277155415L169.95910961829978,-38.58068500375718L171.8460595247151,-33.01351676849966z" style="fill:rgb(247,155,161)"/><path d="M170.2069261448843,-30.943962712083156L170.171469087009,-32.036651641742566L21.47897895114562,5.8207061035584235z" style="fill:rgb(83,212,212)"/><path d="M-123.60368710011639,123.28906220502837L-133.17764279751407,113.3791090626054L-129.74103024753205,118.14532421376961z" style="fill:rgb(37,44,163)"/><path d="M170.1913575897772,-29.899415653591753L170.2069261448843,-30.943962712083156L20.26248228404486,7.192965426533644zM170.1375590280188,-28.91078772863703L170.1913575897772,-29.899415653591753L18.957412493951217,8.528160943520398zM10.168095534266158,133.77619535141523L-156.51090332802136,75.4248258019338L-154.2459948363434,82.43341887605271zM170.08760956105868,-27.992974571177268L170.1375590280188,-28.91078772863703L17.569089020167315,9.820608372986873zM170.04173345932432,-27.14995636708883L170.08760956105868,-27.992974571177268L16.103191287369352,11.064825178703494zM170.0001265342762,-26.38540712024748L170.04173345932432,-27.14995636708883L14.565775024381834,12.255513646466985zM169.96297976292374,-25.7026764467618L170.0001265342762,-26.38540712024748L12.96323411014609,13.387599859510814zM169.9304454259843,-25.104747456324525L169.96297976292374,-25.7026764467618L11.30224894194038,14.456267057450578z" style="fill:rgb(83,212,212)"/><path d="M-123.60368710011639,123.28906220502837L-127.03463166753554,118.5131901543018L-133.17764279751407,113.3791090626054z" style="fill:rgb(37,44,163)"/><path d="M169.9026607903142,-24.594261678981383L169.9304454259843,-25.104747456324525L9.589791165185375,15.456978924995944zM169.97019881079964,-38.238965435803784L169.95910961829978,-38.58068500375718L169.83775249808724,-39.568041953150924zM169.87976447046773,-24.173466997645704L169.9026607903142,-24.594261678981383L7.833061565355374,16.385489026839338zM169.86184596409177,-23.84423617996513L169.87976447046773,-24.173466997645704L6.039460135373743,17.237884163185644zM169.83868394443397,-23.418414947430644L169.84126783255144,-23.46586758008874L0.5136538952941846,19.30439719663153zM169.84899459832678,-23.60801703280428L169.86184596409177,-23.84423617996513L4.216542652566415,18.01058165396837zM169.84126783255144,-23.46586758008874L169.84899459832678,-23.60801703280428L2.3720178025630596,18.70036737900091z" style="fill:rgb(83,212,212)"/><path d="M171.8460595247151,-33.01351676849966L169.95910961829978,-38.58068500375718L170.22234376011554,-30.46902453617656zM171.8460595247151,-33.01351676849966L170.22234376011554,-30.46902453617656L172.1221299234117,-24.902075934211076z" style="fill:rgb(246,149,166)"/><path d="M10.168095534266158,133.77619535141523L-154.2459948363434,82.43341887605271L-151.33319886833488,89.21360621946256z" style="fill:rgb(83,212,212)"/><path d="M-116.85022889602786,128.0049727953076L-127.03463166753554,118.5131901543018L-123.60368710011639,123.28906220502837z" style="fill:rgb(42,41,169)"/><path d="M10.168095534266158,133.77619535141523L-151.33319886833488,89.21360621946256L-147.768953116283,95.732019791373z" style="fill:rgb(83,212,212)"/><path d="M-116.85022889602786,128.0049727953076L-120.27145139067454,123.21809756349683L-127.03463166753554,118.5131901543018z" style="fill:rgb(42,41,169)"/><path d="M170.1913575897772,-29.899415653591753L170.22234376011554,-30.46902453617656L170.2069261448843,-30.943962712083156z" style="fill:rgb(83,212,212)"/><path d="M172.1221299234117,-24.902075934211076L170.22234376011554,-30.46902453617656L169.7679113616887,-22.117775793195314zM172.1221299234117,-24.902075934211076L169.7679113616887,-22.117775793195314L171.68404285727337,-16.55358520659742z" style="fill:rgb(245,143,172)"/><path d="M-109.49842664089287,132.26138847543731L-120.27145139067454,123.21809756349683L-116.85022889602786,128.0049727953076z" style="fill:rgb(48,39,174)"/><path d="M10.168095534266158,133.77619535141523L169.83868394443397,-23.418414947430644L-159.18140175215837,59.68473783731036zM10.168095534266158,133.77619535141523L-147.768953116283,95.732019791373L-143.5526605798794,101.95495680213328z" style="fill:rgb(83,212,212)"/><path d="M-109.49842664089287,132.26138847543731L-112.90578013140285,127.4620908360798L-120.27145139067454,123.21809756349683z" style="fill:rgb(48,39,174)"/><path d="M171.68404285727337,-16.55358520659742L169.7679113616887,-22.117775793195314L168.58193720843147,-13.561118110146865zM171.68404285727337,-16.55358520659742L168.58193720843147,-13.561118110146865L170.5180067536636,-8.002256186763507z" style="fill:rgb(244,137,177)"/><path d="M10.168095534266158,133.77619535141523L-143.5526605798794,101.95495680213328L-138.68688577041698,107.84856924619767z" style="fill:rgb(83,212,212)"/><path d="M-101.57030232577029,136.0279306408388L-112.90578013140285,127.4620908360798L-109.49842664089287,132.26138847543731zM-101.57030232577029,136.0279306408388L-104.9595841561366,131.21474731401457L-112.90578013140285,127.4620908360798z" style="fill:rgb(54,37,179)"/><path d="M10.168095534266158,133.77619535141523L-138.68688577041698,107.84856924619767L-133.17764279751407,113.3791090626054z" style="fill:rgb(83,212,212)"/><path d="M170.5180067536636,-8.002256186763507L168.58193720843147,-13.561118110146865L166.65431084376428,-4.835853451186521zM170.5180067536636,-8.002256186763507L166.65431084376428,-4.835853451186521L168.61398369702053,0.715093812377341z" style="fill:rgb(242,131,182)"/><path d="M-93.09219918594194,139.27588700101794L-104.9595841561366,131.21474731401457L-101.57030232577029,136.0279306408388z" style="fill:rgb(60,35,184)"/><path d="M10.168095534266158,133.77619535141523L-133.17764279751407,113.3791090626054L-127.03463166753554,118.5131901543018z" style="fill:rgb(83,212,212)"/><path d="M-93.09219918594194,139.27588700101794L-96.45916590535403,134.44735536789383L-104.9595841561366,131.21474731401457z" style="fill:rgb(60,35,184)"/><path d="M168.61398369702053,0.715093812377341L166.65431084376428,-4.835853451186521L163.97896806366398,4.018696814032519zM168.61398369702053,0.715093812377341L163.97896806366398,4.018696814032519L165.9659047283324,9.559154903986713z" style="fill:rgb(240,125,187)"/><path d="M-84.09485335412677,141.9786226569699L-96.45916590535403,134.44735536789383L-93.09219918594194,139.27588700101794z" style="fill:rgb(66,34,189)"/><path d="M10.168095534266158,133.77619535141523L-127.03463166753554,118.5131901543018L-120.27145139067454,123.21809756349683z" style="fill:rgb(83,212,212)"/><path d="M-84.09485335412677,141.9786226569699L-87.43527679458391,137.133213137897L-96.45916590535403,134.44735536789383z" style="fill:rgb(66,34,189)"/><path d="M165.9659047283324,9.559154903986713L163.97896806366398,4.018696814032519L160.55425790797145,12.960892149907938zM165.9659047283324,9.559154903986713L160.55425790797145,12.960892149907938L162.57216012918136,18.488323062888004z" style="fill:rgb(237,120,191)"/><path d="M10.168095534266158,133.77619535141523L169.7679113616887,-22.117775793195314L169.83868394443397,-23.418414947430644zM10.168095534266158,133.77619535141523L-120.27145139067454,123.21809756349683L-112.90578013140285,127.4620908360798z" style="fill:rgb(83,212,212)"/><path d="M-74.61341088716128,144.1118788665075L-87.43527679458391,137.133213137897L-84.09485335412677,141.9786226569699z" style="fill:rgb(73,33,193)"/><path d="M10.168095534266158,133.77619535141523L168.58193720843147,-13.561118110146865L169.7679113616887,-22.117775793195314z" style="fill:rgb(83,212,212)"/><path d="M-74.61341088716128,144.1118788665075L-77.92310521134463,139.2480561713055L-87.43527679458391,137.133213137897z" style="fill:rgb(73,33,193)"/><path d="M10.168095534266158,133.77619535141523L-112.90578013140285,127.4620908360798L-104.9595841561366,131.21474731401457z" style="fill:rgb(83,212,212)"/><path d="M162.57216012918136,18.488323062888004L160.55425790797145,12.960892149907938L156.38319502137512,21.94700261942727zM162.57216012918136,18.488323062888004L156.38319502137512,21.94700261942727L158.4357218341009,27.458931758607616z" style="fill:rgb(234,114,195)"/><path d="M-64.68736027886482,145.65418671723242L-77.92310521134463,139.2480561713055L-74.61341088716128,144.1118788665075z" style="fill:rgb(79,32,198)"/><path d="M10.168095534266158,133.77619535141523L166.65431084376428,-4.835853451186521L168.58193720843147,-13.561118110146865zM10.168095534266158,133.77619535141523L-104.9595841561366,131.21474731401457L-96.45916590535403,134.44735536789383z" style="fill:rgb(83,212,212)"/><path d="M-64.68736027886482,145.65418671723242L-67.96224357647307,140.77041099151853L-77.92310521134463,139.2480561713055z" style="fill:rgb(79,32,198)"/><path d="M158.4357218341009,27.458931758607616L156.38319502137512,21.94700261942727L151.47376212826367,30.931483888816466zM158.4357218341009,27.458931758607616L151.47376212826367,30.931483888816466L153.5645184000942,36.425526503886076z" style="fill:rgb(230,108,199)"/><path d="M10.168095534266158,133.77619535141523L163.97896806366398,4.018696814032519L166.65431084376428,-4.835853451186521z" style="fill:rgb(83,212,212)"/><path d="M-54.360435044846604,146.58723971526007L-67.96224357647307,140.77041099151853L-64.68736027886482,145.65418671723242z" style="fill:rgb(86,32,201)"/><path d="M10.168095534266158,133.77619535141523L-96.45916590535403,134.44735536789383L-87.43527679458391,137.133213137897zM10.168095534266158,133.77619535141523L160.55425790797145,12.960892149907938L163.97896806366398,4.018696814032519z" style="fill:rgb(83,212,212)"/><path d="M-54.360435044846604,146.58723971526007L-57.59655864144284,141.68197889236595L-67.96224357647307,140.77041099151853z" style="fill:rgb(86,32,201)"/><path d="M153.5645184000942,36.425526503886076L145.83908974811936,39.86732865198707L147.971551640854,45.341216515049446zM153.5645184000942,36.425526503886076L151.47376212826367,30.931483888816466L145.83908974811936,39.86732865198707z" style="fill:rgb(226,102,203)"/><path d="M-43.68039252115707,146.89617898634552L-57.59655864144284,141.68197889236595L-54.360435044846604,146.58723971526007z" style="fill:rgb(94,32,205)"/><path d="M10.168095534266158,133.77619535141523L-87.43527679458391,137.133213137897L-77.92310521134463,139.2480561713055zM10.168095534266158,133.77619535141523L156.38319502137512,21.94700261942727L160.55425790797145,12.960892149907938z" style="fill:rgb(83,212,212)"/><path d="M-43.68039252115707,146.89617898634552L-46.87397238669842,141.96791333876175L-57.59655864144284,141.68197889236595z" style="fill:rgb(94,32,205)"/><path d="M147.971551640854,45.341216515049446L139.4975731721002,48.70642962935656L141.6750709358851,54.15803588381806z" style="fill:rgb(222,96,207)"/><path d="M10.168095534266158,133.77619535141523L-77.92310521134463,139.2480561713055L-67.96224357647307,140.77041099151853z" style="fill:rgb(83,212,212)"/><path d="M147.971551640854,45.341216515049446L145.83908974811936,39.86732865198707L139.4975731721002,48.70642962935656z" style="fill:rgb(222,96,207)"/><path d="M-32.69877681973145,146.56995527670153L-46.87397238669842,141.96791333876175L-43.68039252115707,146.89617898634552z" style="fill:rgb(101,32,208)"/><path d="M10.168095534266158,133.77619535141523L151.47376212826367,30.931483888816466L156.38319502137512,21.94700261942727zM10.168095534266158,133.77619535141523L-67.96224357647307,140.77041099151853L-57.59655864144284,141.68197889236595z" style="fill:rgb(83,212,212)"/><path d="M-32.69877681973145,146.56995527670153L-35.84625541374147,141.61725545848108L-46.87397238669842,141.96791333876175z" style="fill:rgb(101,32,208)"/><path d="M141.6750709358851,54.15803588381806L132.47293174385058,57.399990906262L134.69863612466008,62.82735398655831zM141.6750709358851,54.15803588381806L139.4975731721002,48.70642962935656L132.47293174385058,57.399990906262z" style="fill:rgb(217,91,210)"/><path d="M-21.470542231055656,145.60161269567809L-35.84625541374147,141.61725545848108L-32.69877681973145,146.56995527670153z" style="fill:rgb(108,33,211)"/><path d="M10.168095534266158,133.77619535141523L145.83908974811936,39.86732865198707L151.47376212826367,30.931483888816466zM10.168095534266158,133.77619535141523L-57.59655864144284,141.68197889236595L-46.87397238669842,141.96791333876175z" style="fill:rgb(83,212,212)"/><path d="M-21.470542231055656,145.60161269567809L-24.568630880557105,140.62307011510194L-35.84625541374147,141.61725545848108z" style="fill:rgb(108,33,211)"/><path d="M134.69863612466008,62.82735398655831L124.79426180479263,65.89898811993045L127.07110494142401,71.30033430805614z" style="fill:rgb(212,85,213)"/><path d="M10.168095534266158,133.77619535141523L139.4975731721002,48.70642962935656L145.83908974811936,39.86732865198707z" style="fill:rgb(83,212,212)"/><path d="M134.69863612466008,62.82735398655831L132.47293174385058,57.399990906262L124.79426180479263,65.89898811993045z" style="fill:rgb(212,85,213)"/><path d="M-10.053704543404665,143.98845448243915L-24.568630880557105,140.62307011510194L-21.470542231055656,145.60161269567809z" style="fill:rgb(116,34,214)"/><path d="M10.168095534266158,133.77619535141523L-46.87397238669842,141.96791333876175L-35.84625541374147,141.61725545848108zM10.168095534266158,133.77619535141523L132.47293174385058,57.399990906262L139.4975731721002,48.70642962935656z" style="fill:rgb(83,212,212)"/><path d="M127.07110494142401,71.30033430805614L116.49588934633587,74.1546559519999L118.82653261719939,79.5284159323619z" style="fill:rgb(206,80,215)"/><path d="M-10.053704543404665,143.98845448243915L-13.099417110763081,138.98276273041637L-24.568630880557105,140.62307011510194z" style="fill:rgb(116,34,214)"/><path d="M1.4911740893243464,141.7323339586941L-13.099417110763081,138.98276273041637L-10.053704543404665,143.98845448243915z" style="fill:rgb(123,36,216)"/><path d="M127.07110494142401,71.30033430805614L124.79426180479263,65.89898811993045L116.49588934633587,74.1546559519999z" style="fill:rgb(206,80,215)"/><path d="M10.168095534266158,133.77619535141523L-35.84625541374147,141.61725545848108L-24.568630880557105,140.62307011510194zM10.168095534266158,133.77619535141523L124.79426180479263,65.89898811993045L132.47293174385058,57.399990906262z" style="fill:rgb(83,212,212)"/><path d="M118.82653261719939,79.5284159323619L107.61725548257292,82.1189829165368L110.00406078432677,87.46380890602293z" style="fill:rgb(200,75,217)"/><path d="M1.4911740893243464,141.7323339586941L-1.4995166343924904,136.69829429320157L-13.099417110763081,138.98276273041637z" style="fill:rgb(123,36,216)"/><path d="M13.101494075773067,138.83965974187248L-1.4995166343924904,136.69829429320157L1.4911740893243464,141.7323339586941z" style="fill:rgb(131,38,218)"/><path d="M118.82653261719939,79.5284159323619L116.49588934633587,74.1546559519999L107.61725548257292,82.1189829165368z" style="fill:rgb(200,75,217)"/><path d="M10.168095534266158,133.77619535141523L-24.568630880557105,140.62307011510194L-13.099417110763081,138.98276273041637zM10.168095534266158,133.77619535141523L116.49588934633587,74.1546559519999L124.79426180479263,65.89898811993045z" style="fill:rgb(83,212,212)"/><path d="M110.00406078432677,87.46380890602293L98.20262463771562,89.74521824952656L100.6476022530023,95.06000005402849z" style="fill:rgb(194,70,219)"/><path d="M24.713207914273088,135.32155702086973L10.168095534266158,133.77619535141523L13.101494075773067,138.83965974187248z" style="fill:rgb(138,40,220)"/><path d="M10.168095534266158,133.77619535141523L-13.099417110763081,138.98276273041637L-1.4995166343924904,136.69829429320157z" style="fill:rgb(83,212,212)"/><path d="M13.101494075773067,138.83965974187248L10.168095534266158,133.77619535141523L-1.4995166343924904,136.69829429320157z" style="fill:rgb(131,38,218)"/><path d="M110.00406078432677,87.46380890602293L107.61725548257292,82.1189829165368L98.20262463771562,89.74521824952656z" style="fill:rgb(194,70,219)"/><path d="M10.168095534266158,133.77619535141523L107.61725548257292,82.1189829165368L116.49588934633587,74.1546559519999z" style="fill:rgb(83,212,212)"/><path d="M100.6476022530023,95.06000005402849L88.30076515459488,96.98838627146743L90.80555279829419,102.2722533430222z" style="fill:rgb(188,65,220)"/><path d="M36.261452940473944,131.19377099979422L21.83896850223752,130.22776974223183L24.713207914273088,135.32155702086973z" style="fill:rgb(146,43,221)"/><path d="M24.713207914273088,135.32155702086973L21.83896850223752,130.22776974223183L10.168095534266158,133.77619535141523z" style="fill:rgb(138,40,220)"/><path d="M100.6476022530023,95.06000005402849L98.20262463771562,89.74521824952656L88.30076515459488,96.98838627146743z" style="fill:rgb(188,65,220)"/><path d="M10.168095534266158,133.77619535141523L98.20262463771562,89.74521824952656L107.61725548257292,82.1189829165368z" style="fill:rgb(83,212,212)"/><path d="M90.80555279829419,102.2722533430222L77.96453989758969,103.80579068424494L80.53036683512725,109.05812089187637z" style="fill:rgb(181,61,221)"/><path d="M47.68117999211471,126.47667317146943L33.4478116345088,126.06892390274874L36.261452940473944,131.19377099979422z" style="fill:rgb(153,46,222)"/><path d="M80.53036683512725,109.05812089187637L67.2504174414995,110.15746549401571L69.87810042049142,115.37789129767101z" style="fill:rgb(175,57,222)"/><path d="M58.90786019876201,121.19505445471785L44.9291303490793,121.32023835698716L47.68117999211471,126.47667317146943z" style="fill:rgb(160,49,222)"/><path d="M69.87810042049142,115.37789129767101L56.217947233259245,116.00666984915472L58.90786019876201,121.19505445471785z" style="fill:rgb(168,53,222)"/><path d="M36.261452940473944,131.19377099979422L33.4478116345088,126.06892390274874L21.83896850223752,130.22776974223183z" style="fill:rgb(146,43,221)"/><path d="M10.168095534266158,133.77619535141523L88.30076515459488,96.98838627146743L98.20262463771562,89.74521824952656z" style="fill:rgb(83,212,212)"/><path d="M90.80555279829419,102.2722533430222L88.30076515459488,96.98838627146743L77.96453989758969,103.80579068424494z" style="fill:rgb(181,61,221)"/><path d="M10.168095534266158,133.77619535141523L21.83896850223752,130.22776974223183L33.4478116345088,126.06892390274874zM10.168095534266158,133.77619535141523L77.96453989758969,103.80579068424494L88.30076515459488,96.98838627146743z" style="fill:rgb(83,212,212)"/><path d="M47.68117999211471,126.47667317146943L44.9291303490793,121.32023835698716L33.4478116345088,126.06892390274874z" style="fill:rgb(153,46,222)"/><path d="M80.53036683512725,109.05812089187637L77.96453989758969,103.80579068424494L67.2504174414995,110.15746549401571z" style="fill:rgb(175,57,222)"/><path d="M10.168095534266158,133.77619535141523L33.4478116345088,126.06892390274874L44.9291303490793,121.32023835698716z" style="fill:rgb(83,212,212)"/><path d="M58.90786019876201,121.19505445471785L56.217947233259245,116.00666984915472L44.9291303490793,121.32023835698716z" style="fill:rgb(160,49,222)"/><path d="M10.168095534266158,133.77619535141523L67.2504174414995,110.15746549401571L77.96453989758969,103.80579068424494z" style="fill:rgb(83,212,212)"/><path d="M69.87810042049142,115.37789129767101L67.2504174414995,110.15746549401571L56.217947233259245,116.00666984915472z" style="fill:rgb(168,53,222)"/><path d="M10.168095534266158,133.77619535141523L44.9291303490793,121.32023835698716L56.217947233259245,116.00666984915472zM10.168095534266158,133.77619535141523L56.217947233259245,116.00666984915472L67.2504174414995,110.15746549401571z" style="fill:rgb(83,212,212)"/></svg>
