<?xml version="1.0" encoding="UTF-8"?>
<!-- Generated by jsxcad -->
<!DOCTYPE svg PUBLIC "-//W3C//DTD SVG 1.1 Tiny//EN" "http://www.w3.org/Graphics/SVG/1.1/DTD/svg11-tiny.dtd">
<svg viewBox="-250 -250 500 500" width="500" height="500" xmlns="http://www.w3.org/2000/svg"><path d="M-16.28185946820026,-110.29820486301556L-12.564864098607568,-8.95345013728232L-11.45372762226804,-100.22974911581073zM-22.3553119983988,-108.10443370212596L-19.243608889389844,-2.8573108097189603L-17.478978650650507,-98.06522043099167zM-23.351353703283323,-107.7139181797934L-20.349201223274413,-1.5200902938900107L-18.466965470801153,-97.6794334894587zM-5.631397768692506,-113.76767030686236L-0.9698456479444587,-15.076466305879388L-0.8861259308204198,-103.64705163318006zM-27.830370153557716,-105.95784894257496L-25.43751560611095,8.340245720569476L-22.90978176086113,-95.94461688827151zM-19.365509953866194,-17.991738683858337L-12.788510373000193,-99.76637920764972L-17.627245021460872,-109.8283204783927zM-20.79093117298854,-16.808152140617402L-14.063103720984666,-99.32390318887063L-18.911959117499674,-109.37962566087921zM-22.14756738712249,-15.577922616198343L-15.272564777226513,-98.90404175856031L-20.13101771016536,-108.95386491679997zM-16.32998281633953,-20.20190197292941L-10.063941577292187,-100.71221005779101L-14.88102695766244,-110.78745068674993zM-23.430275244802633,-14.305543178646834L-16.412674563997868,-98.48159381511677L-21.28030924235988,-108.52591165748463zM-14.731209378123346,-21.220414636465694L-8.62456048419596,-101.21188350708942L-13.430199437984633,-111.29415344830062zM-13.086280358875715,-22.176176918063558L-7.141192693770106,-101.72684006755097L-11.93502918450425,-111.81635667390589zM-11.401278780517753,-23.065683141274086L-5.619919403761447,-102.20628781965934L-10.401895308288653,-112.3033386855708zM4.115382673812744,-116.4866359333567L9.623017435873448,-17.348910263626077L8.786750112176714,-106.31720849146016zM-26.787099052264505,-10.282790815950404L-19.372798096949428,-97.32572970808104L-24.264571884656775,-107.3558797624111zM-9.682422763561089,-23.885658310221835L-4.066313472824977,-102.67914487559783L-8.83625259344763,-112.78392758845814zM-27.727710452427733,-8.889789473700562L-20.192962754000586,-97.0054801739345L-25.0914194730654,-107.0317062915038zM-7.936049819149086,-24.633062418902814L-2.486319815363445,-103.16001838773875L-7.24400881002101,-113.27266717123389z" style="fill:rgb(247,158,158)"/><path d="M-55.984487874200354,-92.59552641811054L-2.596550882921124,-26.413214471941753L-47.36844563468198,-97.13344350990909zM-47.36844563468198,-97.13344350990909L-2.596550882921124,-26.413214471941753L-38.593661765581025,-101.34922318729969z" style="fill:rgb(83,212,212)"/><path d="M-28.572607460100347,-7.479270868778056L-20.924276956252122,-96.71991448997565L-25.828692452519903,-106.74264218173508z" style="fill:rgb(247,158,158)"/><path d="M-64.41906159606263,-87.74731217139806L-2.596550882921124,-26.413214471941753L-55.984487874200354,-92.59552641811054zM-38.593661765581025,-101.34922318729969L-2.596550882921124,-26.413214471941753L-29.683088333965447,-105.23145992848441z" style="fill:rgb(83,212,212)"/><path d="M-29.318336056990606,-6.056496510482144L-21.563909826229214,-96.470155462225L-26.47353733239454,-106.48982372333158zM-4.3865684375636285,-25.899243447579725L0.7279883854998638,-104.13832715028977L-4.004747618641068,-114.26697762693583z" style="fill:rgb(247,158,158)"/><path d="M-72.64961750279434,-82.6010746219413L-2.596550882921124,-26.413214471941753L-64.41906159606263,-87.74731217139806z" style="fill:rgb(83,212,212)"/><path d="M-29.961770412271356,-4.62680477327031L-22.10938523060395,-96.25715782949158L-27.023452765292717,-106.27421630290168zM-2.596550882921124,-26.413214471941753L2.3496752650216024,-104.6318926509452L-2.370455916167808,-114.76863702994005z" style="fill:rgb(247,158,158)"/><path d="M-29.683088333965447,-105.23145992848441L-2.596550882921124,-26.413214471941753L-20.65994553222351,-108.76913433370576z" style="fill:rgb(83,212,212)"/><path d="M-30.50014551164457,-3.1955916742896395L-22.558588902884406,-96.08175597244166L-27.476314950487787,-106.09666740779016zM-0.8051586709835812,-26.84501511011032L3.972835379616204,-105.05686604186981L-0.7350184221232462,-115.20184568135501z" style="fill:rgb(247,158,158)"/><path d="M-80.6537702834487,-77.16954614946583L-2.596550882921124,-26.413214471941753L-72.64961750279434,-82.6010746219413z" style="fill:rgb(83,212,212)"/><path d="M0.9809671592102315,-27.1929269482986L5.591002879330498,-105.48051782759288L0.8954010568052838,-115.6337128996892zM10.215912169481195,-117.96069211279602L16.282916981549157,-17.141797697472438L14.841932878544345,-107.76017871665279zM-31.252476492229995,-0.35038151842094284L-23.161610543822864,-95.84629069176157L-28.08424938223177,-105.85831872983442z" style="fill:rgb(247,158,158)"/><path d="M-20.65994553222351,-108.76913433370576L-2.596550882921124,-26.413214471941753L-11.547771740251582,-111.95160103059997z" style="fill:rgb(83,212,212)"/><path d="M-31.462770860639274,1.0526850816282276L-23.31309897715997,-95.78713586331068L-28.236968529678176,-105.79843952311839zM2.755183078740955,-27.455512831118977L7.197768117493072,-105.90119293036648L2.514344628677361,-116.06254779811199z" style="fill:rgb(247,158,158)"/><path d="M-88.40925247267097,-71.46596373811084L-2.596550882921124,-26.413214471941753L-80.6537702834487,-77.16954614946583z" style="fill:rgb(83,212,212)"/><path d="M11.634768192397704,-118.27674894054022L17.838690170665583,-16.870924711924534L16.2503474561956,-108.06894314869874z" style="fill:rgb(247,158,158)"/><path d="M-11.547771740251582,-111.95160103059997L-2.596550882921124,-26.413214471941753L-2.370455916167808,-114.76863702994005z" style="fill:rgb(83,212,212)"/><path d="M6.241415269938224,-27.720444857952483L10.351623556258087,-106.72691399929387L5.692140056853378,-116.90429483536063z" style="fill:rgb(247,158,158)"/><path d="M-95.89388766229096,-65.50409887525774L-2.596550882921124,-26.413214471941753L-88.40925247267097,-71.46596373811084z" style="fill:rgb(83,212,212)"/><path d="M14.3040610966149,-118.8713619743765L20.776438693516276,-16.070427090997015L18.899967018281924,-108.6498302414665zM7.940311858619866,-27.721410814240134L11.886350011979427,-107.11221204532636L7.238451914769822,-117.29743008264145zM15.54366202747895,-119.14749218871523L22.14684143437584,-15.543272637258193L20.130417857835862,-108.9195833731246z" style="fill:rgb(247,158,158)"/><path d="M-2.370455916167808,-114.76863702994005L-2.596550882921124,-26.413214471941753L6.847706205739355,-117.21039201445002z" style="fill:rgb(83,212,212)"/><path d="M9.601099718239267,-27.634297090278853L13.385309106510551,-107.44083737955988L8.748500554907647,-117.63381135226358z" style="fill:rgb(247,158,158)"/><path d="M-103.08559258710447,-59.298296369415375L-2.596550882921124,-26.413214471941753L-95.89388766229096,-65.50409887525774z" style="fill:rgb(83,212,212)"/><path d="M17.80895028478673,-119.57878652176863L24.66330785341549,-14.243733441563432L22.379320076467963,-109.33906602323223zM14.291937896659059,-26.846911062245763L17.604855517996015,-108.36590174222059L12.999329191136331,-118.58072328563067z" style="fill:rgb(247,158,158)"/><path d="M-109.96232092052935,-52.86353643628369L-2.596550882921124,-26.413214471941753L-103.08559258710447,-59.298296369415375z" style="fill:rgb(83,212,212)"/><path d="M18.419715168656882,-25.288926785412816L21.291807188926867,-109.14729917540332L16.713565228736968,-119.38128425332862zM22.01616664911587,-120.33733905462644L29.419783891565842,-9.68138534805932L26.556225213200218,-110.07557775760974z" style="fill:rgb(247,158,158)"/><path d="M-116.50211963588252,-46.21545733075531L-2.596550882921124,-26.413214471941753L-109.96232092052935,-52.86353643628369z" style="fill:rgb(83,212,212)"/><path d="M22.57928074986725,-120.43886160575867L30.074683228867627,-8.56932466858511L27.11527123819892,-110.17415935136708zM20.78471508932067,-23.843530821419517L23.387988595949555,-109.51692054080343L18.824929616282375,-119.76196175637583zM21.83611493336785,-23.00577955759347L24.313660495707023,-109.6801478696609L19.75731399898832,-119.93007304338127zM23.406119535211026,-120.58794295597582L31.06176210652117,-6.177000282405882L27.936139640058478,-110.31889557396228zM22.794090266174862,-22.09515288943251L25.15250825029643,-109.82805774951746L20.60225193509123,-120.08240956386787z" style="fill:rgb(247,158,158)"/><path d="M-122.6830928286661,-39.37043178602685L-2.596550882921124,-26.413214471941753L-116.50211963588252,-46.21545733075531z" style="fill:rgb(83,212,212)"/><path d="M23.654518707309432,-21.11490756679218L25.901063062324493,-109.96004953312847L21.356243978783553,-120.21835231046835zM25.614637954884262,-17.79340791620135L27.575881702751,-110.25536851911964L23.043242329127164,-120.522513426981z" style="fill:rgb(247,158,158)"/><path d="M-128.48342808954948,-32.34559656608966L-2.596550882921124,-26.413214471941753L-122.6830928286661,-39.37043178602685z" style="fill:rgb(83,212,212)"/><path d="M26.37456684833488,-15.303574738392665L28.19454435192825,-110.36445717746483L23.666405460124118,-120.63486910369957zM26.583910204162937,-13.989900172767648L28.350017609573644,-110.39187841336522L23.82301342240131,-120.6631115172766z" style="fill:rgb(247,158,158)"/><path d="M-133.88143359353708,-25.158926330049102L-2.596550882921124,-26.413214471941753L-128.48342808954948,-32.34559656608966zM6.847706205739355,-117.21039201445002L161.62615404088754,-69.78253073374272L16.081973323241,-119.26740885502551zM-138.85558256024342,-17.82926542153758L-2.596550882921124,-26.413214471941753L-133.88143359353708,-25.158926330049102zM16.081973323241,-119.26740885502551L161.62615404088754,-69.78253073374272L25.307115337424875,-120.93069691733625zM-143.3845475995268,-10.376395001600489L-2.596550882921124,-26.413214471941753L-138.85558256024342,-17.82926542153758zM25.307115337424875,-120.93069691733625L161.62615404088754,-69.78253073374272L34.497374400246954,-122.19167706144785z" style="fill:rgb(83,212,212)"/><path d="M-8.62456048419596,-101.21188350708942L-14.731209378123346,-21.220414636465694L-9.452030813572303,-11.034153711018496zM-7.141192693770106,-101.72684006755097L-13.086280358875715,-22.176176918063558L-7.823429439242826,-11.981843983653327zM-10.063941577292187,-100.71221005779101L-16.32998281633953,-20.20190197292941L-11.034466873340282,-10.023455977262145zM-5.619919403761447,-102.20628781965934L-11.401278780517753,-23.065683141274086L-6.15469012824987,-12.863049171510866zM-4.066313472824977,-102.67914487559783L-9.682422763561089,-23.885658310221835L-4.45197652233632,-13.674518358350072zM-12.788510373000193,-99.76637920764972L-19.365509953866194,-17.991738683858337L-14.037518653733311,-7.828044048619849zM-2.486319815363445,-103.16001838773875L-7.936049819149086,-24.633062418902814L-2.721568286204701,-14.4132453189056zM-14.063103720984666,-99.32390318887063L-20.79093117298854,-16.808152140617402L-15.446915301376801,-6.651345102564328z" style="fill:rgb(247,158,158)"/><path d="M34.497374400246954,-122.19167706144785L161.62615404088754,-69.78253073374272L43.62642357518623,-123.04231255655128z" style="fill:rgb(83,212,212)"/><path d="M-15.272564777226513,-98.90404175856031L-22.14756738712249,-15.577922616198343L-16.78774733605886,-5.42764846875288z" style="fill:rgb(247,158,158)"/><path d="M-147.44727524008022,-2.8210681743127677L-2.596550882921124,-26.413214471941753L-143.3845475995268,-10.376395001600489z" style="fill:rgb(83,212,212)"/><path d="M0.7279883854998638,-104.13832715028977L-4.3865684375636285,-25.899243447579725L0.796730605763499,-15.661677166923244zM-16.412674563997868,-98.48159381511677L-23.430275244802633,-14.305543178646834L-18.05492844830012,-4.1614255396698425zM2.3496752650216024,-104.6318926509452L-2.596550882921124,-26.413214471941753L2.5716378802003574,-16.166639752230463zM3.972835379616204,-105.05686604186981L-0.8051586709835812,-26.84501511011032L4.348309975439351,-16.589386466352746zM5.591002879330498,-105.48051782759288L0.9809671592102315,-27.1929269482986L6.120157364813214,-16.928232594802775zM-19.372798096949428,-97.32572970808104L-26.787099052264505,-10.282790815950404L-21.36738708163932,-0.1546870543922071zM-12.564864098607568,-8.95345013728232L-16.28185946820026,-110.29820486301556L-17.876670406613712,-19.124365916227234zM7.197768117493072,-105.90119293036648L2.755183078740955,-27.455512831118977L7.8805858758981815,-17.181775192358224zM-20.192962754000586,-97.0054801739345L-27.727710452427733,-8.889789473700562L-22.294137961835286,1.2338527408377395z" style="fill:rgb(247,158,158)"/><path d="M43.62642357518623,-123.04231255655128L161.62615404088754,-69.78253073374272L52.667352305257516,-123.47509251648778z" style="fill:rgb(83,212,212)"/><path d="M-0.9698456479444587,-15.076466305879388L-5.631397768692506,-113.76767030686236L-6.168593473132832,-25.305101181336862zM-20.924276956252122,-96.71991448997565L-28.572607460100347,-7.479270868778056L-23.12572678827822,2.6403737810925203zM10.351623556258087,-106.72691399929387L6.241415269938224,-27.720444857952483L11.340911118309483,-17.428828827582674zM-19.243608889389844,-2.8573108097189603L-22.3553119983988,-108.10443370212596L-24.634152644061864,-12.995668967226722zM-21.563909826229214,-96.470155462225L-29.318336056990606,-6.056496510482144L-23.858752432026147,4.059627782520853z" style="fill:rgb(247,158,158)"/><path d="M-151.0230936420075,4.81494045689102L-2.596550882921124,-26.413214471941753L-147.44727524008022,-2.8210681743127677z" style="fill:rgb(83,212,212)"/><path d="M-20.349201223274413,-1.5200902938900107L-23.351353703283323,-107.7139181797934L-25.75455001736737,-11.653105274891889zM11.886350011979427,-107.11221204532636L7.940311858619866,-27.721410814240134L13.0277801487924,-17.421027099424972zM-22.10938523060395,-96.25715782949158L-29.961770412271356,-4.62680477327031L-24.49014644254973,5.486289540877474zM13.385309106510551,-107.44083737955988L9.601099718239267,-27.634297090278853L14.677217938114172,-17.325310162255043zM-22.558588902884406,-96.08175597244166L-30.50014551164457,-3.1955916742896395L-25.01718653015929,6.914972081007138zM9.623017435873448,-17.348910263626077L4.115382673812744,-116.4866359333567L4.510862315042864,-27.631632535090397z" style="fill:rgb(247,158,158)"/><path d="M52.667352305257516,-123.47509251648778L161.62615404088754,-69.78253073374272L61.59262345291623,-123.48309109903157z" style="fill:rgb(83,212,212)"/><path d="M-23.161610543822864,-95.84629069176157L-31.252476492229995,-0.35038151842094284L-25.74916020802544,9.756656891919835zM17.604855517996015,-108.36590174222059L14.291937896659059,-26.846911062245763L19.338490344775686,-16.513442966430972zM-23.31309897715997,-95.78713586331068L-31.462770860639274,1.0526850816282276L-25.950528263249733,11.158743600160134z" style="fill:rgb(247,158,158)"/><path d="M-154.09177831194214,12.508798687284143L-2.596550882921124,-26.413214471941753L-151.0230936420075,4.81494045689102z" style="fill:rgb(83,212,212)"/><path d="M16.282916981549157,-17.141797697472438L10.215912169481195,-117.96069211279602L11.217428027125154,-27.45918952390676zM-25.43751560611095,8.340245720569476L-27.830370153557716,-105.95784894257496L-30.931056011774185,-1.7682963608433513z" style="fill:rgb(247,158,158)"/><path d="M61.59262345291623,-123.48309109903157L161.62615404088754,-69.78253073374272L70.3740837515807,-123.06009388359523z" style="fill:rgb(83,212,212)"/><path d="M17.838690170665583,-16.870924711924534L11.634768192397704,-118.27674894054022L12.783068934722529,-27.19648656960063zM21.291807188926867,-109.14729917540332L18.419715168656882,-25.288926785412816L23.444214705062084,-14.933697241806742z" style="fill:rgb(247,158,158)"/><path d="M-2.596550882921124,-26.413214471941753L-154.09177831194214,12.508798687284143L-154.48302506636148,13.698249274865432zM-6.168593473132832,-25.305101181336862L-154.49733301584607,13.741743931441336L-154.54020743029253,13.872076593086804zM-7.936049819149086,-24.633062418902814L-154.54020743029253,13.872076593086804L-154.61148873799587,14.0887874029173zM-4.3865684375636285,-25.899243447579725L-154.48302506636148,13.698249274865432L-154.49733301584607,13.741743931441336zM-9.682422763561089,-23.885658310221835L-154.61148873799587,14.0887874029173L-154.71093784658467,14.391119202247019zM-11.401278780517753,-23.065683141274086L-154.71093784658467,14.391119202247019L-154.8381975770045,14.778009391503366zM-13.086280358875715,-22.176176918063558L-154.8381975770045,14.778009391503366L-154.99281785692955,15.248095162922528z" style="fill:rgb(83,212,212)"/><path d="M20.776438693516276,-16.070427090997015L14.3040610966149,-118.8713619743765L15.738117240031421,-26.411496168263078z" style="fill:rgb(247,158,158)"/><path d="M-14.731209378123346,-21.220414636465694L-154.99281785692955,15.248095162922528L-155.1742741789098,15.799719553560358zM-16.32998281633953,-20.20190197292941L-155.1742741789098,15.799719553560358L-155.38189524221548,16.430930158854387z" style="fill:rgb(83,212,212)"/><path d="M22.14684143437584,-15.543272637258193L15.54366202747895,-119.14749218871523L17.11588162523259,-25.891606868123493z" style="fill:rgb(247,158,158)"/><path d="M70.3740837515807,-123.06009388359523L161.62615404088754,-69.78253073374272L78.98292544995302,-122.20062154711614zM-17.876670406613712,-19.124365916227234L-155.38189524221548,16.430930158854387L-155.61496621577515,17.139487868560227z" style="fill:rgb(83,212,212)"/><path d="M23.387988595949555,-109.51692054080343L20.78471508932067,-23.843530821419517L25.799120547988032,-13.475737535987042z" style="fill:rgb(247,158,158)"/><path d="M-19.365509953866194,-17.991738683858337L-155.61496621577515,17.139487868560227L-155.87263698420594,17.922867643382798z" style="fill:rgb(83,212,212)"/><path d="M24.313660495707023,-109.6801478696609L21.83611493336785,-23.00577955759347L26.84693711325099,-12.632378241524274z" style="fill:rgb(247,158,158)"/><path d="M-20.79093117298854,-16.808152140617402L-155.87263698420594,17.922867643382798L-156.1540132324269,18.778271894741188zM-22.14756738712249,-15.577922616198343L-156.1540132324269,18.778271894741188L-156.45806431260547,19.702624879388058z" style="fill:rgb(83,212,212)"/><path d="M24.66330785341549,-14.243733441563432L17.80895028478673,-119.57878652176863L19.64433338769878,-24.605459883253882zM25.15250825029643,-109.82805774951746L22.794090266174862,-22.09515288943251L27.802329743450706,-11.716630189522993z" style="fill:rgb(247,158,158)"/><path d="M-156.63370545730456,20.236590448552437L-23.430275244802633,-14.305543178646834L-156.45806431260547,19.702624879388058zM-23.430275244802633,-14.305543178646834L-156.63370545730456,20.236590448552437L-156.7490109532933,20.683489769922215z" style="fill:rgb(83,212,212)"/><path d="M25.901063062324493,-109.96004953312847L23.654518707309432,-21.11490756679218L28.66119791375104,-10.731773928567224z" style="fill:rgb(247,158,158)"/><path d="M-24.634152644061864,-12.995668967226722L-156.7490109532933,20.683489769922215L-157.01503794266532,21.714512713355397zM78.98292544995302,-122.20062154711614L161.62615404088754,-69.78253073374272L87.38972987140728,-120.90001074387467zM-25.75455001736737,-11.653105274891889L-157.01503794266532,21.714512713355397L-157.2957829754267,22.80261083951093zM-26.787099052264505,-10.282790815950404L-157.2957829754267,22.80261083951093L-157.59023584600152,23.943799393048334zM-27.727710452427733,-8.889789473700562L-157.59023584600152,23.943799393048334L-157.89729850767947,25.13387541561037z" style="fill:rgb(83,212,212)"/><path d="M27.575881702751,-110.25536851911964L25.614637954884262,-17.79340791620135L30.622882443407626,-7.399729318288799zM29.419783891565842,-9.68138534805932L22.01616664911587,-120.33733905462644L24.413628532351662,-20.068595489333948z" style="fill:rgb(247,158,158)"/><path d="M-28.572607460100347,-7.479270868778056L-157.89729850767947,25.13387541561037L-158.21584017306319,26.368428820995366zM87.38972987140728,-120.90001074387467L161.62615404088754,-69.78253073374272L95.56446985543239,-119.15458058734592z" style="fill:rgb(83,212,212)"/><path d="M30.074683228867627,-8.56932466858511L22.57928074986725,-120.43886160575867L25.06801077956092,-18.960055800743884zM28.19454435192825,-110.36445717746483L26.37456684833488,-15.303574738392665L31.389121040131357,-4.9057873874660185z" style="fill:rgb(247,158,158)"/><path d="M-29.318336056990606,-6.056496510482144L-158.21584017306319,26.368428820995366L-158.54466595655148,27.642852843497952z" style="fill:rgb(83,212,212)"/><path d="M-35.689849820288316,138.96493093344898L-23.363658741941553,-95.76739628902988L-28.28794254021057,-105.77845820731645z" style="fill:rgb(247,158,158)"/><path d="M6.847706205739355,-117.21039201445002L-2.596550882921124,-26.413214471941753L161.62615404088754,-69.78253073374272zM-158.62993670456777,27.973290447688083L-29.961770412271356,-4.62680477327031L-158.54466595655148,27.642852843497952z" style="fill:rgb(83,212,212)"/><path d="M28.350017609573644,-110.39187841336522L26.583910204162937,-13.989900172767648L31.603189119628844,-3.5909766938700773z" style="fill:rgb(247,158,158)"/><path d="M-29.961770412271356,-4.62680477327031L-158.62993670456777,27.973290447688083L-158.80801645716232,28.932943213624814z" style="fill:rgb(83,212,212)"/><path d="M31.06176210652117,-6.177000282405882L23.406119535211026,-120.58794295597582L26.05088791950763,-16.573035110285833z" style="fill:rgb(247,158,158)"/><path d="M-30.50014551164457,-3.1955916742896395L-158.80801645716232,28.932943213624814L-159.0516896204781,30.246072760985143zM-154.61148873799587,14.0887874029173L-9.682422763561089,-23.885658310221835L-7.936049819149086,-24.633062418902814zM-154.71093784658467,14.391119202247019L-11.401278780517753,-23.065683141274086L-9.682422763561089,-23.885658310221835zM-154.54020743029253,13.872076593086804L-7.936049819149086,-24.633062418902814L-6.168593473132832,-25.305101181336862zM-154.8381975770045,14.778009391503366L-13.086280358875715,-22.176176918063558L-11.401278780517753,-23.065683141274086zM-154.49733301584607,13.741743931441336L-6.168593473132832,-25.305101181336862L-4.3865684375636285,-25.899243447579725zM-154.99281785692955,15.248095162922528L-14.731209378123346,-21.220414636465694L-13.086280358875715,-22.176176918063558zM-154.48302506636148,13.698249274865432L-4.3865684375636285,-25.899243447579725L-2.596550882921124,-26.413214471941753zM-155.1742741789098,15.799719553560358L-16.32998281633953,-20.20190197292941L-14.731209378123346,-21.220414636465694zM-155.38189524221548,16.430930158854387L-17.876670406613712,-19.124365916227234L-16.32998281633953,-20.20190197292941zM95.56446985543239,-119.15458058734592L161.62615404088754,-69.78253073374272L103.47653246256598,-116.96165178092043zM-30.931056011774185,-1.7682963608433513L-159.0516896204781,30.246072760985143L-159.29992776484158,31.58380500839905zM-155.61496621577515,17.139487868560227L-19.365509953866194,-17.991738683858337L-17.876670406613712,-19.124365916227234zM-155.87263698420594,17.922867643382798L-20.79093117298854,-16.808152140617402L-19.365509953866194,-17.991738683858337zM-156.1540132324269,18.778271894741188L-22.14756738712249,-15.577922616198343L-20.79093117298854,-16.808152140617402zM-31.252476492229995,-0.35038151842094284L-159.29992776484158,31.58380500839905L-159.55177662157462,32.941005258166236zM-156.45806431260547,19.702624879388058L-23.430275244802633,-14.305543178646834L-22.14756738712249,-15.577922616198343zM-31.462770860639274,1.0526850816282276L-159.55177662157462,32.941005258166236L-159.80627360876366,34.31243588178005zM-156.7490109532933,20.683489769922215L-24.634152644061864,-12.995668967226722L-23.430275244802633,-14.305543178646834zM-157.01503794266532,21.714512713355397L-25.75455001736737,-11.653105274891889L-24.634152644061864,-12.995668967226722zM-31.560714529273177,2.43545022576827L-159.80627360876366,34.31243588178005L-160.0624176905215,35.69275473811026zM103.47653246256598,-116.96165178092043L161.62615404088754,-69.78253073374272L111.0948167777103,-114.31973253280741zM-157.2957829754267,22.80261083951093L-26.787099052264505,-10.282790815950404L-25.75455001736737,-11.653105274891889z" style="fill:rgb(83,212,212)"/><path d="M-11.401278780517753,-23.065683141274086L-7.823429439242826,-11.981843983653327L-6.15469012824987,-12.863049171510866z" style="fill:rgb(168,53,222)"/><path d="M-9.682422763561089,-23.885658310221835L-6.15469012824987,-12.863049171510866L-4.45197652233632,-13.674518358350072z" style="fill:rgb(160,49,222)"/><path d="M-13.086280358875715,-22.176176918063558L-9.452030813572303,-11.034153711018496L-7.823429439242826,-11.981843983653327z" style="fill:rgb(175,57,222)"/><path d="M-160.2129322784077,37.049078011971275L-31.560714529273177,2.43545022576827L-160.0624176905215,35.69275473811026z" style="fill:rgb(83,212,212)"/><path d="M-7.936049819149086,-24.633062418902814L-4.45197652233632,-13.674518358350072L-2.721568286204701,-14.4132453189056z" style="fill:rgb(153,46,222)"/><path d="M-14.731209378123346,-21.220414636465694L-11.034466873340282,-10.023455977262145L-9.452030813572303,-11.034153711018496z" style="fill:rgb(181,61,221)"/><path d="M-6.168593473132832,-25.305101181336862L-2.721568286204701,-14.4132453189056L-0.9698456479444587,-15.076466305879388z" style="fill:rgb(146,43,221)"/><path d="M-16.32998281633953,-20.20190197292941L-12.564864098607568,-8.95345013728232L-11.034466873340282,-10.023455977262145z" style="fill:rgb(188,65,220)"/><path d="M-157.59023584600152,23.943799393048334L-27.727710452427733,-8.889789473700562L-26.787099052264505,-10.282790815950404z" style="fill:rgb(83,212,212)"/><path d="M-4.3865684375636285,-25.899243447579725L-0.9698456479444587,-15.076466305879388L0.796730605763499,-15.661677166923244z" style="fill:rgb(138,40,220)"/><path d="M-12.564864098607568,-8.95345013728232L-19.365509953866194,-17.991738683858337L-14.037518653733311,-7.828044048619849z" style="fill:rgb(194,70,219)"/><path d="M-2.596550882921124,-26.413214471941753L0.796730605763499,-15.661677166923244L2.5716378802003574,-16.166639752230463z" style="fill:rgb(131,38,218)"/><path d="M-14.037518653733311,-7.828044048619849L-20.79093117298854,-16.808152140617402L-15.446915301376801,-6.651345102564328z" style="fill:rgb(200,75,217)"/><path d="M-160.36323614194086,38.403522614457366L-31.54548486685356,3.7924947837050818L-160.2129322784077,37.049078011971275z" style="fill:rgb(83,212,212)"/><path d="M-0.8051586709835812,-26.84501511011032L2.5716378802003574,-16.166639752230463L4.348309975439351,-16.589386466352746z" style="fill:rgb(123,36,216)"/><path d="M-157.89729850767947,25.13387541561037L-28.572607460100347,-7.479270868778056L-27.727710452427733,-8.889789473700562z" style="fill:rgb(83,212,212)"/><path d="M-15.446915301376801,-6.651345102564328L-22.14756738712249,-15.577922616198343L-16.78774733605886,-5.42764846875288z" style="fill:rgb(206,80,215)"/><path d="M0.9809671592102315,-27.1929269482986L4.348309975439351,-16.589386466352746L6.120157364813214,-16.928232594802775z" style="fill:rgb(116,34,214)"/><path d="M-16.78774733605886,-5.42764846875288L-23.430275244802633,-14.305543178646834L-18.05492844830012,-4.1614255396698425z" style="fill:rgb(212,85,213)"/><path d="M-158.21584017306319,26.368428820995366L-29.318336056990606,-6.056496510482144L-28.572607460100347,-7.479270868778056z" style="fill:rgb(83,212,212)"/><path d="M2.755183078740955,-27.455512831118977L6.120157364813214,-16.928232594802775L7.8805858758981815,-17.181775192358224z" style="fill:rgb(108,33,211)"/><path d="M-160.51274034891614,39.75069301444404L-31.416696489022442,5.11845360751411L-160.36323614194086,38.403522614457366z" style="fill:rgb(83,212,212)"/><path d="M-18.05492844830012,-4.1614255396698425L-24.634152644061864,-12.995668967226722L-19.243608889389844,-2.8573108097189603z" style="fill:rgb(217,91,210)"/><path d="M-7.823429439242826,-11.981843983653327L-11.401278780517753,-23.065683141274086L-13.086280358875715,-22.176176918063558z" style="fill:rgb(168,53,222)"/><path d="M-6.15469012824987,-12.863049171510866L-9.682422763561089,-23.885658310221835L-11.401278780517753,-23.065683141274086z" style="fill:rgb(160,49,222)"/><path d="M-9.452030813572303,-11.034153711018496L-13.086280358875715,-22.176176918063558L-14.731209378123346,-21.220414636465694z" style="fill:rgb(175,57,222)"/><path d="M4.510862315042864,-27.631632535090397L7.8805858758981815,-17.181775192358224L9.623017435873448,-17.348910263626077z" style="fill:rgb(101,32,208)"/><path d="M-4.45197652233632,-13.674518358350072L-7.936049819149086,-24.633062418902814L-9.682422763561089,-23.885658310221835z" style="fill:rgb(153,46,222)"/><path d="M-11.034466873340282,-10.023455977262145L-14.731209378123346,-21.220414636465694L-16.32998281633953,-20.20190197292941z" style="fill:rgb(181,61,221)"/><path d="M-2.721568286204701,-14.4132453189056L-6.168593473132832,-25.305101181336862L-7.936049819149086,-24.633062418902814z" style="fill:rgb(146,43,221)"/><path d="M-158.54466595655148,27.642852843497952L-29.961770412271356,-4.62680477327031L-29.318336056990606,-6.056496510482144z" style="fill:rgb(83,212,212)"/><path d="M-19.243608889389844,-2.8573108097189603L-25.75455001736737,-11.653105274891889L-20.349201223274413,-1.5200902938900107z" style="fill:rgb(222,96,207)"/><path d="M-12.564864098607568,-8.95345013728232L-16.32998281633953,-20.20190197292941L-17.876670406613712,-19.124365916227234z" style="fill:rgb(188,65,220)"/><path d="M-0.9698456479444587,-15.076466305879388L-4.3865684375636285,-25.899243447579725L-6.168593473132832,-25.305101181336862z" style="fill:rgb(138,40,220)"/><path d="M-19.365509953866194,-17.991738683858337L-12.564864098607568,-8.95345013728232L-17.876670406613712,-19.124365916227234z" style="fill:rgb(194,70,219)"/><path d="M-160.66083504171507,41.0851811146557L-31.174384127966025,6.408039055212944L-160.51274034891614,39.75069301444404zM111.0948167777103,-114.31973253280741L161.62615404088754,-69.78253073374272L118.38773270318367,-111.22861526802167z" style="fill:rgb(83,212,212)"/><path d="M6.241415269938224,-27.720444857952483L9.623017435873448,-17.348910263626077L11.340911118309483,-17.428828827582674z" style="fill:rgb(94,32,205)"/><path d="M0.796730605763499,-15.661677166923244L-2.596550882921124,-26.413214471941753L-4.3865684375636285,-25.899243447579725z" style="fill:rgb(131,38,218)"/><path d="M-20.79093117298854,-16.808152140617402L-14.037518653733311,-7.828044048619849L-19.365509953866194,-17.991738683858337z" style="fill:rgb(200,75,217)"/><path d="M-20.349201223274413,-1.5200902938900107L-26.787099052264505,-10.282790815950404L-21.36738708163932,-0.1546870543922071z" style="fill:rgb(226,102,203)"/><path d="M2.5716378802003574,-16.166639752230463L-0.8051586709835812,-26.84501511011032L-2.596550882921124,-26.413214471941753z" style="fill:rgb(123,36,216)"/><path d="M-158.80801645716232,28.932943213624814L-30.50014551164457,-3.1955916742896395L-29.961770412271356,-4.62680477327031z" style="fill:rgb(83,212,212)"/><path d="M-22.14756738712249,-15.577922616198343L-15.446915301376801,-6.651345102564328L-20.79093117298854,-16.808152140617402z" style="fill:rgb(206,80,215)"/><path d="M7.940311858619866,-27.721410814240134L11.340911118309483,-17.428828827582674L13.0277801487924,-17.421027099424972z" style="fill:rgb(86,32,201)"/><path d="M4.348309975439351,-16.589386466352746L0.9809671592102315,-27.1929269482986L-0.8051586709835812,-26.84501511011032z" style="fill:rgb(116,34,214)"/><path d="M-160.80692379450983,42.401596292870416L-30.81902996925621,7.656058493159827L-160.66083504171507,41.0851811146557z" style="fill:rgb(83,212,212)"/><path d="M-23.430275244802633,-14.305543178646834L-16.78774733605886,-5.42764846875288L-22.14756738712249,-15.577922616198343z" style="fill:rgb(212,85,213)"/><path d="M-21.36738708163932,-0.1546870543922071L-27.727710452427733,-8.889789473700562L-22.294137961835286,1.2338527408377395z" style="fill:rgb(230,108,199)"/><path d="M6.120157364813214,-16.928232594802775L2.755183078740955,-27.455512831118977L0.9809671592102315,-27.1929269482986z" style="fill:rgb(108,33,211)"/><path d="M9.601099718239267,-27.634297090278853L13.0277801487924,-17.421027099424972L14.677217938114172,-17.325310162255043z" style="fill:rgb(79,32,198)"/><path d="M-159.0516896204781,30.246072760985143L-30.931056011774185,-1.7682963608433513L-30.50014551164457,-3.1955916742896395z" style="fill:rgb(83,212,212)"/><path d="M-24.634152644061864,-12.995668967226722L-18.05492844830012,-4.1614255396698425L-23.430275244802633,-14.305543178646834z" style="fill:rgb(217,91,210)"/><path d="M-22.294137961835286,1.2338527408377395L-28.572607460100347,-7.479270868778056L-23.12572678827822,2.6403737810925203z" style="fill:rgb(234,114,195)"/><path d="M7.8805858758981815,-17.181775192358224L4.510862315042864,-27.631632535090397L2.755183078740955,-27.455512831118977z" style="fill:rgb(101,32,208)"/><path d="M-160.91414009593672,43.36773003986763L-30.351558913070118,8.857439854283282L-160.80692379450983,42.401596292870416z" style="fill:rgb(83,212,212)"/><path d="M-25.75455001736737,-11.653105274891889L-19.243608889389844,-2.8573108097189603L-24.634152644061864,-12.995668967226722z" style="fill:rgb(222,96,207)"/><path d="M11.217428027125154,-27.45918952390676L14.677217938114172,-17.325310162255043L16.282916981549157,-17.141797697472438z" style="fill:rgb(73,33,193)"/><path d="M-30.351558913070118,8.857439854283282L-160.91414009593672,43.36773003986763L-160.92487926886605,43.68802027998295z" style="fill:rgb(83,212,212)"/><path d="M30.225236005344485,124.13177797881701L28.401916024721583,-110.40103231464785L23.87528711371567,-120.67253949556026z" style="fill:rgb(247,158,158)"/><path d="M9.623017435873448,-17.348910263626077L6.241415269938224,-27.720444857952483L4.510862315042864,-27.631632535090397z" style="fill:rgb(94,32,205)"/><path d="M-159.29992776484158,31.58380500839905L-31.252476492229995,-0.35038151842094284L-30.931056011774185,-1.7682963608433513z" style="fill:rgb(83,212,212)"/><path d="M-23.12572678827822,2.6403737810925203L-29.318336056990606,-6.056496510482144L-23.858752432026147,4.059627782520853z" style="fill:rgb(237,120,191)"/><path d="M-26.787099052264505,-10.282790815950404L-20.349201223274413,-1.5200902938900107L-25.75455001736737,-11.653105274891889z" style="fill:rgb(226,102,203)"/><path d="M12.783068934722529,-27.19648656960063L16.282916981549157,-17.141797697472438L17.838690170665583,-16.870924711924534z" style="fill:rgb(66,34,189)"/><path d="M11.340911118309483,-17.428828827582674L7.940311858619866,-27.721410814240134L6.241415269938224,-27.720444857952483z" style="fill:rgb(86,32,201)"/><path d="M-160.96646494575117,44.926943771737534L-29.773345674831308,10.00725096718899L-160.92487926886605,43.68802027998295z" style="fill:rgb(83,212,212)"/><path d="M-27.727710452427733,-8.889789473700562L-21.36738708163932,-0.1546870543922071L-26.787099052264505,-10.282790815950404z" style="fill:rgb(230,108,199)"/><path d="M-23.858752432026147,4.059627782520853L-29.961770412271356,-4.62680477327031L-24.49014644254973,5.486289540877474z" style="fill:rgb(240,125,187)"/><path d="M-159.55177662157462,32.941005258166236L-31.462770860639274,1.0526850816282276L-31.252476492229995,-0.35038151842094284z" style="fill:rgb(83,212,212)"/><path d="M19.338490344775686,-16.513442966430972L12.783068934722529,-27.19648656960063L17.838690170665583,-16.870924711924534z" style="fill:rgb(60,35,184)"/><path d="M118.38773270318367,-111.22861526802167L161.62615404088754,-69.78253073374272L125.32335116450535,-107.68950489457681z" style="fill:rgb(83,212,212)"/><path d="M13.0277801487924,-17.421027099424972L9.601099718239267,-27.634297090278853L7.940311858619866,-27.721410814240134z" style="fill:rgb(79,32,198)"/><path d="M-161.00693221769424,46.13264334177208L-29.08621005498865,11.100722772815377L-160.96646494575117,44.926943771737534z" style="fill:rgb(83,212,212)"/><path d="M-28.572607460100347,-7.479270868778056L-22.294137961835286,1.2338527408377395L-27.727710452427733,-8.889789473700562z" style="fill:rgb(234,114,195)"/><path d="M-24.49014644254973,5.486289540877474L-30.50014551164457,-3.1955916742896395L-25.01718653015929,6.914972081007138z" style="fill:rgb(242,131,182)"/><path d="M20.776438693516276,-16.070427090997015L14.291937896659059,-26.846911062245763L19.338490344775686,-16.513442966430972z" style="fill:rgb(54,37,179)"/><path d="M14.677217938114172,-17.325310162255043L11.217428027125154,-27.45918952390676L9.601099718239267,-27.634297090278853z" style="fill:rgb(73,33,193)"/><path d="M-159.80627360876366,34.31243588178005L-31.560714529273177,2.43545022576827L-31.462770860639274,1.0526850816282276z" style="fill:rgb(83,212,212)"/><path d="M-29.318336056990606,-6.056496510482144L-23.12572678827822,2.6403737810925203L-28.572607460100347,-7.479270868778056z" style="fill:rgb(237,120,191)"/><path d="M-161.0461189345111,47.30009772371432L-28.29243259310613,12.133273020096073L-161.00693221769424,46.13264334177208z" style="fill:rgb(83,212,212)"/><path d="M-25.01718653015929,6.914972081007138L-30.931056011774185,-1.7682963608433513L-25.43751560611095,8.340245720569476z" style="fill:rgb(244,137,177)"/><path d="M16.282916981549157,-17.141797697472438L12.783068934722529,-27.19648656960063L11.217428027125154,-27.45918952390676z" style="fill:rgb(66,34,189)"/><path d="M22.14684143437584,-15.543272637258193L15.738117240031421,-26.411496168263078L20.776438693516276,-16.070427090997015z" style="fill:rgb(48,39,174)"/><path d="M-29.961770412271356,-4.62680477327031L-23.858752432026147,4.059627782520853L-29.318336056990606,-6.056496510482144z" style="fill:rgb(240,125,187)"/><path d="M-31.560714529273177,2.43545022576827L-160.2129322784077,37.049078011971275L-31.54548486685356,3.7924947837050818zM-161.08385304909805,48.424409591762384L-27.394734472251688,13.100524903476709L-161.0461189345111,47.30009772371432z" style="fill:rgb(83,212,212)"/><path d="M-25.43751560611095,8.340245720569476L-31.252476492229995,-0.35038151842094284L-25.74916020802544,9.756656891919835z" style="fill:rgb(245,143,172)"/><path d="M23.444214705062084,-14.933697241806742L17.11588162523259,-25.891606868123493L22.14684143437584,-15.543272637258193z" style="fill:rgb(42,41,169)"/><path d="M12.783068934722529,-27.19648656960063L19.338490344775686,-16.513442966430972L14.291937896659059,-26.846911062245763z" style="fill:rgb(60,35,184)"/><path d="M-30.50014551164457,-3.1955916742896395L-24.49014644254973,5.486289540877474L-29.961770412271356,-4.62680477327031z" style="fill:rgb(242,131,182)"/><path d="M-31.54548486685356,3.7924947837050818L-160.36323614194086,38.403522614457366L-31.416696489022442,5.11845360751411zM-161.11998973619154,49.50083778941794L-26.396283439733622,13.998330853695771L-161.08385304909805,48.424409591762384z" style="fill:rgb(83,212,212)"/><path d="M-25.74916020802544,9.756656891919835L-31.462770860639274,1.0526850816282276L-25.950528263249733,11.158743600160134z" style="fill:rgb(246,149,166)"/><path d="M24.66330785341549,-14.243733441563432L18.419715168656882,-25.288926785412816L23.444214705062084,-14.933697241806742z" style="fill:rgb(37,44,163)"/><path d="M14.291937896659059,-26.846911062245763L20.776438693516276,-16.070427090997015L15.738117240031421,-26.411496168263078z" style="fill:rgb(54,37,179)"/><path d="M125.32335116450535,-107.68950489457681L161.62615404088754,-69.78253073374272L131.86951748425216,-103.7051725811178z" style="fill:rgb(83,212,212)"/><path d="M-30.931056011774185,-1.7682963608433513L-25.01718653015929,6.914972081007138L-30.50014551164457,-3.1955916742896395z" style="fill:rgb(244,137,177)"/><path d="M-161.1543567317351,50.524807095453234L-25.30069317502272,14.822796994406147L-161.11998973619154,49.50083778941794zM-31.416696489022442,5.11845360751411L-160.51274034891614,39.75069301444404L-31.174384127966025,6.408039055212944z" style="fill:rgb(83,212,212)"/><path d="M-25.950528263249733,11.158743600160134L-31.560714529273177,2.43545022576827L-26.040427772598765,12.541056718393339z" style="fill:rgb(247,155,161)"/><path d="M15.738117240031421,-26.411496168263078L22.14684143437584,-15.543272637258193L17.11588162523259,-25.891606868123493z" style="fill:rgb(48,39,174)"/><path d="M25.799120547988032,-13.475737535987042L19.64433338769878,-24.605459883253882L24.66330785341549,-14.243733441563432z" style="fill:rgb(32,47,158)"/><path d="M-31.252476492229995,-0.35038151842094284L-25.43751560611095,8.340245720569476L-30.931056011774185,-1.7682963608433513z" style="fill:rgb(245,143,172)"/><path d="M-161.16929963669153,50.96987218336224L-24.111996683451075,15.570297826881875L-161.1543567317351,50.524807095453234zM-24.111996683451075,15.570297826881875L-161.16929963669153,50.96987218336224L-161.1450360923024,51.48130150572739z" style="fill:rgb(83,212,212)"/><path d="M-31.560714529273177,2.43545022576827L-26.018086488572283,13.898181529441349L-26.040427772598765,12.541056718393339z" style="fill:rgb(247,161,155)"/><path d="M-31.174384127966025,6.408039055212944L-160.66083504171507,41.0851811146557L-30.81902996925621,7.656058493159827z" style="fill:rgb(83,212,212)"/><path d="M17.11588162523259,-25.891606868123493L23.444214705062084,-14.933697241806742L18.419715168656882,-25.288926785412816z" style="fill:rgb(42,41,169)"/><path d="M26.84693711325099,-12.632378241524274L20.78471508932067,-23.843530821419517L25.799120547988032,-13.475737535987042z" style="fill:rgb(28,51,152)"/><path d="M-31.462770860639274,1.0526850816282276L-25.74916020802544,9.756656891919835L-31.252476492229995,-0.35038151842094284z" style="fill:rgb(246,149,166)"/><path d="M-161.1029256977045,52.369002748158486L-22.83465420077874,16.23749789429229L-161.1450360923024,51.48130150572739z" style="fill:rgb(83,212,212)"/><path d="M-31.54548486685356,3.7924947837050818L-25.883143007840484,15.224755783300303L-26.018086488572283,13.898181529441349z" style="fill:rgb(246,166,149)"/><path d="M-30.81902996925621,7.656058493159827L-160.80692379450983,42.401596292870416L-30.351558913070118,8.857439854283282z" style="fill:rgb(83,212,212)"/><path d="M18.419715168656882,-25.288926785412816L24.66330785341549,-14.243733441563432L19.64433338769878,-24.605459883253882z" style="fill:rgb(37,44,163)"/><path d="M-161.0638251593803,53.193161252567876L-21.47352751870293,16.821379154294178L-161.1029256977045,52.369002748158486z" style="fill:rgb(83,212,212)"/><path d="M-31.560714529273177,2.43545022576827L-25.950528263249733,11.158743600160134L-31.462770860639274,1.0526850816282276z" style="fill:rgb(247,155,161)"/><path d="M27.802329743450706,-11.716630189522993L21.83611493336785,-23.00577955759347L26.84693711325099,-12.632378241524274z" style="fill:rgb(24,55,146)"/><path d="M-31.416696489022442,5.11845360751411L-25.635673224217534,16.515489386824765L-25.883143007840484,15.224755783300303z" style="fill:rgb(245,172,143)"/><path d="M-161.02792367900864,53.95018712552024L-20.03386942409705,17.319247582816786L-161.0638251593803,53.193161252567876zM-30.351558913070118,8.857439854283282L-160.92487926886605,43.68802027998295L-29.773345674831308,10.00725096718899z" style="fill:rgb(83,212,212)"/><path d="M19.64433338769878,-24.605459883253882L25.799120547988032,-13.475737535987042L20.78471508932067,-23.843530821419517z" style="fill:rgb(32,47,158)"/><path d="M131.86951748425216,-103.7051725811178L161.62615404088754,-69.78253073374272L137.99395098660025,-99.28008813903038z" style="fill:rgb(83,212,212)"/><path d="M28.66119791375104,-10.731773928567224L22.794090266174862,-22.09515288943251L27.802329743450706,-11.716630189522993z" style="fill:rgb(20,59,140)"/><path d="M-160.99535122467898,54.636778097488865L-18.521304518525383,17.72875631624101L-161.02792367900864,53.95018712552024z" style="fill:rgb(83,212,212)"/><path d="M-26.018086488572283,13.898181529441349L-31.560714529273177,2.43545022576827L-31.54548486685356,3.7924947837050818z" style="fill:rgb(247,161,155)"/><path d="M-31.174384127966025,6.408039055212944L-25.27618817920371,17.765190212745882L-25.635673224217534,16.515489386824765z" style="fill:rgb(244,177,137)"/><path d="M-29.773345674831308,10.00725096718899L-160.96646494575117,44.926943771737534L-29.08621005498865,11.100722772815377z" style="fill:rgb(83,212,212)"/><path d="M20.78471508932067,-23.843530821419517L26.84693711325099,-12.632378241524274L21.83611493336785,-23.00577955759347z" style="fill:rgb(28,51,152)"/><path d="M-160.96627075052243,55.24992031280343L-16.941805597343357,18.047919653803113L-160.99535122467898,54.636778097488865z" style="fill:rgb(83,212,212)"/><path d="M29.419783891565842,-9.68138534805932L23.654518707309432,-21.11490756679218L28.66119791375104,-10.731773928567224z" style="fill:rgb(17,63,135)"/><path d="M-25.883143007840484,15.224755783300303L-31.54548486685356,3.7924947837050818L-31.416696489022442,5.11845360751411z" style="fill:rgb(246,166,149)"/><path d="M-160.94078822538248,55.786918684037715L-15.301676342902434,18.275129987890335L-160.96627075052243,55.24992031280343z" style="fill:rgb(83,212,212)"/><path d="M-30.81902996925621,7.656058493159827L-24.805632087241197,18.968782148589433L-25.27618817920371,17.765190212745882z" style="fill:rgb(242,182,131)"/><path d="M-29.08621005498865,11.100722772815377L-161.00693221769424,46.13264334177208L-28.29243259310613,12.133273020096073z" style="fill:rgb(83,212,212)"/><path d="M21.83611493336785,-23.00577955759347L27.802329743450706,-11.716630189522993L22.794090266174862,-22.09515288943251z" style="fill:rgb(24,55,146)"/><path d="M-160.9190459221239,56.245397198371066L-13.607518993089043,18.40916522463532L-160.94078822538248,55.786918684037715zM-0.8051586709835812,-26.84501511011032L161.62615404088754,-69.78253073374272L-2.596550882921124,-26.413214471941753z" style="fill:rgb(83,212,212)"/><path d="M30.074683228867627,-8.56932466858511L24.413628532351662,-20.068595489333948L29.419783891565842,-9.68138534805932z" style="fill:rgb(14,67,129)"/><path d="M0.9809671592102315,-27.1929269482986L161.64265189693418,-69.74394585763787L-0.8051586709835812,-26.84501511011032zM-160.9011198854611,56.62333384137828L-11.866209077661997,18.449200419135803L-160.9190459221239,56.245397198371066z" style="fill:rgb(83,212,212)"/><path d="M-25.635673224217534,16.515489386824765L-31.416696489022442,5.11845360751411L-31.174384127966025,6.408039055212944z" style="fill:rgb(245,172,143)"/><path d="M2.755183078740955,-27.455512831118977L161.69207775894947,-69.62832110982679L0.9809671592102315,-27.1929269482986z" style="fill:rgb(83,212,212)"/><path d="M-30.351558913070118,8.857439854283282L-24.22540077968451,20.121329838528357L-24.805632087241197,18.968782148589433z" style="fill:rgb(240,187,125)"/><path d="M-28.29243259310613,12.133273020096073L-161.0461189345111,47.30009772371432L-27.394734472251688,13.100524903476709zM-160.88708969482636,56.919036371795315L-10.084865706263745,18.394818711106875L-160.9011198854611,56.62333384137828z" style="fill:rgb(83,212,212)"/><path d="M22.794090266174862,-22.09515288943251L28.66119791375104,-10.731773928567224L23.654518707309432,-21.11490756679218z" style="fill:rgb(20,59,140)"/><path d="M-160.87702805662505,57.131204692019075L-8.270822053607622,18.2460154408357L-160.88708969482636,56.919036371795315zM4.510862315042864,-27.631632535090397L161.77427563253585,-69.43604610525179L2.755183078740955,-27.455512831118977zM-160.8709671796701,57.25888221814512L-6.431586456978913,18.003203074838567L-160.87702805662505,57.131204692019075z" style="fill:rgb(83,212,212)"/><path d="M-25.27618817920371,17.765190212745882L-31.174384127966025,6.408039055212944L-30.81902996925621,7.656058493159827z" style="fill:rgb(244,177,137)"/><path d="M-160.868943973761,57.30150416326556L-4.574811083578501,17.667207803111143L-160.8709671796701,57.25888221814512zM6.241415269938224,-27.720444857952483L161.88896669512013,-69.16779032392922L4.510862315042864,-27.631632535090397zM137.99395098660025,-99.28008813903038L161.62615404088754,-69.78253073374272L143.66439936400786,-94.42057271273518zM-27.394734472251688,13.100524903476709L-161.08385304909805,48.424409591762384L-26.396283439733622,13.998330853695771z" style="fill:rgb(83,212,212)"/><path d="M23.654518707309432,-21.11490756679218L29.419783891565842,-9.68138534805932L24.413628532351662,-20.068595489333948z" style="fill:rgb(17,63,135)"/><path d="M7.940311858619866,-27.721410814240134L162.03574731469138,-68.82445623780163L6.241415269938224,-27.720444857952483z" style="fill:rgb(83,212,212)"/><path d="M-24.805632087241197,18.968782148589433L-30.81902996925621,7.656058493159827L-30.351558913070118,8.857439854283282z" style="fill:rgb(242,182,131)"/><path d="M9.601099718239267,-27.634297090278853L162.2141255394441,-68.40723678079523L7.940311858619866,-27.721410814240134zM-26.396283439733622,13.998330853695771L-161.11998973619154,49.50083778941794L-25.30069317502272,14.822796994406147z" style="fill:rgb(83,212,212)"/><path d="M24.413628532351662,-20.068595489333948L30.074683228867627,-8.56932466858511L25.06801077956092,-18.960055800743884z" style="fill:rgb(14,67,129)"/><path d="M11.217428027125154,-27.45918952390676L162.42347284216518,-67.91755889152492L9.601099718239267,-27.634297090278853z" style="fill:rgb(83,212,212)"/><path d="M-24.22540077968451,20.121329838528357L-30.351558913070118,8.857439854283282L-29.773345674831308,10.00725096718899z" style="fill:rgb(240,187,125)"/><path d="M-25.30069317502272,14.822796994406147L-161.1543567317351,50.524807095453234L-24.111996683451075,15.570297826881875zM12.783068934722529,-27.19648656960063L162.6630711957464,-67.35711778113102L11.217428027125154,-27.45918952390676zM-24.111996683451075,15.570297826881875L-161.1450360923024,51.48130150572739L-22.83465420077874,16.23749789429229zM14.291937896659059,-26.846911062245763L162.93210099665347,-66.72785202632423L12.783068934722529,-27.19648656960063zM-22.83465420077874,16.23749789429229L-161.1029256977045,52.369002748158486L-21.47352751870293,16.821379154294178zM15.738117240031421,-26.411496168263078L163.2296170958096,-66.03195559569356L14.291937896659059,-26.846911062245763zM143.66439936400786,-94.42057271273518L161.62615404088754,-69.78253073374272L148.84890687391248,-89.13493912405481zM-21.47352751870293,16.821379154294178L-161.0638251593803,53.193161252567876L-20.03386942409705,17.319247582816786zM17.11588162523259,-25.891606868123493L163.55457013436728,-65.27185894233997L15.738117240031421,-26.411496168263078zM-20.03386942409705,17.319247582816786L-161.02792367900864,53.95018712552024L-18.521304518525383,17.72875631624101zM18.419715168656882,-25.288926785412816L163.9058330319786,-64.45024284830293L17.11588162523259,-25.891606868123493zM-18.521304518525383,17.72875631624101L-160.99535122467898,54.636778097488865L-16.941805597343357,18.047919653803113zM19.64433338769878,-24.605459883253882L164.2415070077291,-63.55934109884359L18.419715168656882,-25.288926785412816zM-16.941805597343357,18.047919653803113L-160.96627075052243,55.24992031280343L-15.301676342902434,18.275129987890335zM20.78471508932067,-23.843530821419517L164.54774661748877,-62.599041074343084L19.64433338769878,-24.605459883253882zM-15.301676342902434,18.275129987890335L-160.94078822538248,55.786918684037715L-13.607518993089043,18.40916522463532zM148.84890687391248,-89.13493912405481L161.62615404088754,-69.78253073374272L153.51592271909837,-83.4336554249697zM-13.607518993089043,18.40916522463532L-160.9190459221239,56.245397198371066L-11.866209077661997,18.449200419135803zM21.83611493336785,-23.00577955759347L164.8710350430531,-61.58528496631536L20.78471508932067,-23.843530821419517zM-11.866209077661997,18.449200419135803L-160.9011198854611,56.62333384137828L-10.084865706263745,18.394818711106875zM161.62615404088754,-69.78253073374272L-0.8051586709835812,-26.84501511011032L161.64265189693418,-69.74394585763787zM161.64265189693418,-69.74394585763787L0.9809671592102315,-27.1929269482986L161.69207775894947,-69.62832110982679zM-10.084865706263745,18.394818711106875L-160.88708969482636,56.919036371795315L-8.270822053607622,18.2460154408357zM161.69207775894947,-69.62832110982679L2.755183078740955,-27.455512831118977L161.77427563253585,-69.43604610525179zM22.794090266174862,-22.09515288943251L165.21019905622438,-60.521739319553795L21.83611493336785,-23.00577955759347zM161.77427563253585,-69.43604610525179L4.510862315042864,-27.631632535090397L161.88896669512013,-69.16779032392922zM-8.270822053607622,18.2460154408357L-160.87702805662505,57.131204692019075L-6.431586456978913,18.003203074838567zM161.88896669512013,-69.16779032392922L6.241415269938224,-27.720444857952483L162.03574731469138,-68.82445623780163zM-6.431586456978913,18.003203074838567L-160.8709671796701,57.25888221814512L-4.574811083578501,17.667207803111143zM-4.574811083578501,17.667207803111143L-160.868943973761,57.30150416326556L-2.708254371152475,17.239278308456107zM162.03574731469138,-68.82445623780163L7.940311858619866,-27.721410814240134L162.2141255394441,-68.40723678079523zM23.654518707309432,-21.11490756679218L165.56400041698737,-59.412285013143915L22.794090266174862,-22.09515288943251zM162.2141255394441,-68.40723678079523L9.601099718239267,-27.634297090278853L162.42347284216518,-67.91755889152492zM162.42347284216518,-67.91755889152492L11.217428027125154,-27.45918952390676L162.6630711957464,-67.35711778113102zM24.413628532351662,-20.068595489333948L165.9311499299641,-58.2609762644877L23.654518707309432,-21.11490756679218zM-160.81352850037217,58.46976727942516L168.87433312166962,-26.222724240755838L-160.868943973761,57.30150416326556zM153.51592271909837,-83.4336554249697L161.62615404088754,-69.78253073374272L157.63461848756617,-77.32946718551372zM162.6630711957464,-67.35711778113102L12.783068934722529,-27.19648656960063L162.93210099665347,-66.72785202632423zM25.06801077956092,-18.960055800743884L166.31028305493047,-57.07207787352848L24.413628532351662,-20.068595489333948zM162.93210099665347,-66.72785202632423L14.291937896659059,-26.846911062245763L163.2296170958096,-66.03195559569356zM163.2296170958096,-66.03195559569356L15.738117240031421,-26.411496168263078L163.55457013436728,-65.27185894233997zM25.614637954884262,-17.79340791620135L166.612448414829,-55.827221189171524L25.06801077956092,-18.960055800743884zM168.87433312166962,-26.222724240755838L-160.81352850037217,58.46976727942516L-159.83413260995877,65.83702790837162zM163.55457013436728,-65.27185894233997L17.11588162523259,-25.891606868123493L163.9058330319786,-64.45024284830293zM26.05088791950763,-16.573035110285833L166.8914324790922,-54.54544921886165L25.614637954884262,-17.79340791620135zM163.9058330319786,-64.45024284830293L18.419715168656882,-25.288926785412816L164.2415070077291,-63.55934109884359zM26.37456684833488,-15.303574738392665L167.17571776954344,-53.23932068750973L26.05088791950763,-16.573035110285833zM164.2415070077291,-63.55934109884359L19.64433338769878,-24.605459883253882L164.54774661748877,-62.599041074343084zM157.63461848756617,-77.32946718551372L161.62615404088754,-69.78253073374272L161.1751119906008,-70.83751536962612zM164.54774661748877,-62.599041074343084L20.78471508932067,-23.843530821419517L164.8710350430531,-61.58528496631536zM26.583910204162937,-13.989900172767648L167.46422594678194,-51.913830970849176L26.37456684833488,-15.303574738392665zM168.87433312166962,-26.222724240755838L-159.83413260995877,65.83702790837162L-158.22027097863077,73.04031604670622zM164.8710350430531,-61.58528496631536L21.83611493336785,-23.00577955759347L165.21019905622438,-60.521739319553795zM26.677604803166,-12.637107869229146L167.75582120326456,-50.57408787812983L26.583910204162937,-13.989900172767648zM165.21019905622438,-60.521739319553795L22.794090266174862,-22.09515288943251L165.56400041698737,-59.412285013143915zM168.21878560003222,-47.84043631930833L26.677604803166,-12.637107869229146L26.654811005781156,-11.250494539975373zM165.56400041698737,-59.412285013143915L23.654518707309432,-21.11490756679218L165.9311499299641,-58.2609762644877zM168.3879776989481,-46.457275238835315L26.654811005781156,-11.250494539975373L26.515154919477617,-9.835538458139533zM165.9311499299641,-58.2609762644877L24.413628532351662,-20.068595489333948L166.31028305493047,-57.07207787352848z" style="fill:rgb(83,212,212)"/><path d="M164.10879928417222,-63.975501866669546L170.15145670879127,-45.6430227306429L167.84568099901367,-52.86870251143868z" style="fill:rgb(246,166,149)"/><path d="M168.5562716955284,-45.08132974042998L26.515154919477617,-9.835538458139533L26.258756108868383,-8.397880510623635zM168.87433312166962,-26.222724240755838L-158.22027097863077,73.04031604670622L-155.96326095898917,80.04748289202216zM166.31028305493047,-57.07207787352848L25.06801077956092,-18.960055800743884L166.612448414829,-55.827221189171524zM168.72301698527346,-43.718119215600886L26.258756108868383,-8.397880510623635L25.886225237655157,-6.943299773470147zM166.612448414829,-55.827221189171524L25.614637954884262,-17.79340791620135L166.8914324790922,-54.54544921886165zM168.8875288594866,-42.373167526543995L25.886225237655157,-6.943299773470147L25.39866084593405,-5.477687188511372zM166.8914324790922,-54.54544921886165L26.05088791950763,-16.573035110285833L167.17571776954344,-53.23932068750973z" style="fill:rgb(83,212,212)"/><path d="M-133.5424617712943,114.96722517752141L-145.28393505104353,99.56142187371697L-138.41121381352704,109.06314132915277z" style="fill:rgb(28,51,152)"/><path d="M163.9058330319786,-64.45024284830293L164.2415070077291,-63.55934109884359L164.10879928417222,-63.975501866669546zM169.01909687500557,-41.04424352332229L25.39866084593405,-5.477687188511372L24.797666513631327,-4.007023499095492zM167.17571776954344,-53.23932068750973L26.37456684833488,-15.303574738392665L167.46422594678194,-51.913830970849176zM169.0609318581064,-39.722419289022305L24.797666513631327,-4.007023499095492L24.085344557999782,-2.537351850652104z" style="fill:rgb(83,212,212)"/><path d="M170.15145670879127,-45.6430227306429L164.10879928417222,-63.975501866669546L166.4086081462629,-56.76375173409746z" style="fill:rgb(246,166,149)"/><path d="M168.87433312166962,-26.222724240755838L-155.96326095898917,80.04748289202216L-153.05679958194435,86.82570518011276zM169.10164333630598,-38.43598788340426L24.085344557999782,-2.537351850652104L23.264287384419465,-1.0747485427967371zM167.46422594678194,-51.913830970849176L26.583910204162937,-13.989900172767648L167.75582120326456,-50.57408787812983zM169.14106706521184,-37.190314405836546L23.264287384419465,-1.0747485427967371L22.337572005297897,0.37470372891634185z" style="fill:rgb(83,212,212)"/><path d="M166.4086081462629,-56.76375173409746L171.80452549615015,-38.09525525640415L170.15145670879127,-45.6430227306429z" style="fill:rgb(247,161,155)"/><path d="M167.75582120326456,-50.57408787812983L26.677604803166,-12.637107869229146L168.04939523381935,-49.22529574853137zM169.17903156522055,-35.99062595816739L22.337572005297897,0.37470372891634185L21.308759442516116,1.8049448403403745zM26.677604803166,-12.637107869229146L168.21878560003222,-47.84043631930833L168.04939523381935,-49.22529574853137zM169.2153781730937,-34.841991897160256L21.308759442516116,1.8049448403403745L20.18187346405027,3.209967495121537z" style="fill:rgb(83,212,212)"/><path d="M-31.174384127966025,6.408039055212944L-28.842814236826634,148.8301571918189L-25.635673224217534,16.515489386824765z" style="fill:rgb(247,158,158)"/><path d="M-145.28393505104353,99.56142187371697L-133.5424617712943,114.96722517752141L-140.41930089175756,105.45131830766934z" style="fill:rgb(28,51,152)"/><path d="M169.2499569100023,-33.7492940551126L20.18187346405027,3.209967495121537L18.961389636028635,4.583846059880055zM26.654811005781156,-11.250494539975373L168.3879776989481,-46.457275238835315L168.21878560003222,-47.84043631930833zM169.2334291294903,-32.70467101174969L18.961389636028635,4.583846059880055L17.652212743896083,5.920766045905728zM168.87433312166962,-26.222724240755838L-153.05679958194435,86.82570518011276L-149.49725926600087,93.34159336670983zM26.515154919477617,-9.835538458139533L168.5562716955284,-45.08132974042998L168.3879776989481,-46.457275238835315z" style="fill:rgb(83,212,212)"/><path d="M-35.62612728269257,138.95924726127862L-26.018086488572283,13.898181529441349L-31.54548486685356,3.7924947837050818z" style="fill:rgb(247,158,158)"/><path d="M-128.03592571223592,120.51011625920928L-140.41930089175756,105.45131830766934L-133.5424617712943,114.96722517752141z" style="fill:rgb(32,47,158)"/><path d="M169.17864965614746,-31.715908941758997L17.652212743896083,5.920766045905728L16.25966635354048,7.215054619478445zM166.31028305493047,-57.07207787352848L166.612448414829,-55.827221189171524L166.4086081462629,-56.76375173409746zM169.12780184648756,-30.79797010513959L16.25966635354048,7.215054619478445L14.789459812586212,8.461208206913668z" style="fill:rgb(83,212,212)"/><path d="M-35.43520141548709,138.94222387253615L-25.883143007840484,15.224755783300303L-31.416696489022442,5.11845360751411z" style="fill:rgb(247,158,158)"/><path d="M169.08108891936385,-29.954833011223098L14.789459812586212,8.461208206913668L13.24766299488013,9.653921597355021zM26.258756108868383,-8.397880510623635L168.72301698527346,-43.718119215600886L168.5562716955284,-45.08132974042998zM169.038722900416,-29.19017623620309L13.24766299488013,9.653921597355021L11.640683797489764,10.788115361864454zM169.00089815979857,-28.507339746355523L11.640683797489764,10.788115361864454L9.975234208564903,11.85896230501243z" style="fill:rgb(83,212,212)"/><path d="M171.80452549615015,-38.09525525640415L166.4086081462629,-56.76375173409746L168.04939523381935,-49.22529574853137z" style="fill:rgb(247,161,155)"/><path d="M168.87433312166962,-26.222724240755838L-0.8397427107781688,16.721071327424294L-2.708254371152475,17.239278308456107zM168.96776996505204,-27.90932199640696L9.975234208564903,11.85896230501243L8.258296591539507,12.86191079698266zM168.87696416857744,-26.270186046782932L1.022867069096129,16.114653998086567L-0.8397427107781688,16.721071327424294zM168.9394782260062,-27.398757785447167L8.258296591539507,12.86191079698266L6.497091018216128,13.792711086618091zM25.886225237655157,-6.943299773470147L168.8875288594866,-42.373167526543995L168.72301698527346,-43.718119215600886zM168.88483319111143,-26.41236149333306L2.8717276888999237,15.422489945574787L1.022867069096129,16.114653998086567zM168.9161648908272,-26.977900844166406L6.497091018216128,13.792711086618091L4.699039768983825,14.647432081408093zM168.89791823973877,-26.64861486551074L4.699039768983825,14.647432081408093L2.8717276888999237,15.422489945574787z" style="fill:rgb(83,212,212)"/><path d="M-34.674988715327686,138.8744714998082L-25.27618817920371,17.765190212745882L-30.81902996925621,7.656058493159827zM-34.10849661993053,138.82399672224014L-24.805632087241197,18.968782148589433L-30.351558913070118,8.857439854283282z" style="fill:rgb(247,158,158)"/><path d="M25.39866084593405,-5.477687188511372L169.01909687500557,-41.04424352332229L168.8875288594866,-42.373167526543995z" style="fill:rgb(83,212,212)"/><path d="M-23.363658741941553,-95.76739628902988L-35.689849820288316,138.96493093344898L-29.40991499757953,148.87853843094106zM-33.420374703207706,138.76266441082L-24.22540077968451,20.121329838528357L-29.773345674831308,10.00725096718899zM-26.396283439733622,13.998330853695771L-23.2828940454251,148.35592567293278L-20.851249232178805,24.128454895473983z" style="fill:rgb(247,158,158)"/><path d="M168.87433312166962,-26.222724240755838L-149.49725926600087,93.34159336670983L-145.28393505104353,99.56142187371697zM24.797666513631327,-4.007023499095492L169.0609318581064,-39.722419289022305L169.01909687500557,-41.04424352332229z" style="fill:rgb(83,212,212)"/><path d="M-32.61315175600015,138.69071725031625L-23.53733830216112,21.218057091229234L-29.08621005498865,11.100722772815377zM-25.30069317502272,14.822796994406147L-22.044311077951456,148.2502868332996L-19.75915432793631,24.958152202209238z" style="fill:rgb(247,158,158)"/><path d="M-140.41930089175756,105.45131830766934L-128.03592571223592,120.51011625920928L-134.90928704977054,110.977508437762z" style="fill:rgb(32,47,158)"/><path d="M24.085344557999782,-2.537351850652104L169.10164333630598,-38.43598788340426L169.0609318581064,-39.722419289022305z" style="fill:rgb(83,212,212)"/><path d="M171.80452549615015,-38.09525525640415L169.00828272325825,-41.38595752839907L172.78227142687658,-30.251401360098622z" style="fill:rgb(247,155,161)"/><path d="M-31.68981227158484,138.60842943204003L-22.74373180476939,22.25437350533128L-28.29243259310613,12.133273020096073z" style="fill:rgb(247,158,158)"/><path d="M169.00828272325825,-41.38595752839907L171.80452549615015,-38.09525525640415L168.04939523381935,-49.22529574853137z" style="fill:rgb(247,155,161)"/><path d="M23.264287384419465,-1.0747485427967371L169.14106706521184,-37.190314405836546L169.10164333630598,-38.43598788340426z" style="fill:rgb(83,212,212)"/><path d="M-30.653765095147396,138.5160981466227L-21.847310364125295,23.22589305582496L-27.394734472251688,13.100524903476709z" style="fill:rgb(247,158,158)"/><path d="M-121.90149432590675,125.65850611776588L-134.90928704977054,110.977508437762L-128.03592571223592,120.51011625920928z" style="fill:rgb(37,44,163)"/><path d="M22.337572005297897,0.37470372891634185L169.17903156522055,-35.99062595816739L169.14106706521184,-37.190314405836546zM21.308759442516116,1.8049448403403745L169.2153781730937,-34.841991897160256L169.17903156522055,-35.99062595816739zM168.87433312166962,-26.222724240755838L-145.28393505104353,99.56142187371697L-140.41930089175756,105.45131830766934zM20.18187346405027,3.209967495121537L169.2499569100023,-33.7492940551126L169.2153781730937,-34.841991897160256z" style="fill:rgb(83,212,212)"/><path d="M-18.521304518525383,17.72875631624101L-14.467019013146954,147.30246375359644L-13.013454144217429,27.89678198323113zM-26.909819769862075,138.18242287811375L-18.57505764625986,25.711343877047284L-24.111996683451075,15.570297826881875z" style="fill:rgb(247,158,158)"/><path d="M18.961389636028635,4.583846059880055L169.2334291294903,-32.70467101174969L169.2499569100023,-33.7492940551126z" style="fill:rgb(83,212,212)"/><path d="M-25.464611346985777,138.01714412536901L-17.303401437810017,26.38467846371848L-22.83465420077874,16.23749789429229z" style="fill:rgb(247,158,158)"/><path d="M17.652212743896083,5.920766045905728L169.17864965614746,-31.715908941758997L169.2334291294903,-32.70467101174969z" style="fill:rgb(83,212,212)"/><path d="M26.258756108868383,-8.397880510623635L35.28634663170612,134.58095837818803L31.307159200214123,1.9993289671834977zM-23.929017210531363,137.7961953163315L-15.949034668721367,26.97511549377621L-21.47352751870293,16.821379154294178z" style="fill:rgb(247,158,158)"/><path d="M16.25966635354048,7.215054619478445L169.12780184648756,-30.79797010513959L169.17864965614746,-31.715908941758997zM14.789459812586212,8.461208206913668L169.08108891936385,-29.954833011223098L169.12780184648756,-30.79797010513959z" style="fill:rgb(83,212,212)"/><path d="M-22.309823899040623,137.5632192595427L-14.517187618900026,27.47994105596518L-20.03386942409705,17.319247582816786z" style="fill:rgb(247,158,158)"/><path d="M-134.90928704977054,110.977508437762L-121.90149432590675,125.65850611776588L-128.76352193622597,116.10658165649365z" style="fill:rgb(37,44,163)"/><path d="M172.78227142687658,-30.251401360098622L169.26499283605852,-33.274350200150394L173.06465582498504,-22.140229896329593z" style="fill:rgb(246,149,166)"/><path d="M25.39866084593405,-5.477687188511372L34.25490320031263,134.9492269499729L30.46743440594041,4.9149136628386145z" style="fill:rgb(247,158,158)"/><path d="M13.24766299488013,9.653921597355021L169.038722900416,-29.19017623620309L169.08108891936385,-29.954833011223098zM11.640683797489764,10.788115361864454L169.00089815979857,-28.507339746355523L169.038722900416,-29.19017623620309z" style="fill:rgb(83,212,212)"/><path d="M24.797666513631327,-4.007023499095492L33.552260078132456,135.20010009632506L29.877972427554475,6.382357260557111z" style="fill:rgb(247,158,158)"/><path d="M169.26499283605852,-33.274350200150394L172.78227142687658,-30.251401360098622L169.00828272325825,-41.38595752839907z" style="fill:rgb(246,149,166)"/><path d="M30.15936188762612,124.15539942759932L31.686644057305266,-0.8511695145552223L26.654811005781156,-11.250494539975373z" style="fill:rgb(247,158,158)"/><path d="M9.975234208564903,11.85896230501243L168.96776996505204,-27.90932199640696L169.00089815979857,-28.507339746355523z" style="fill:rgb(83,212,212)"/><path d="M-115.15294540069397,130.37975677461864L-128.76352193622597,116.10658165649365L-121.90149432590675,125.65850611776588z" style="fill:rgb(42,41,169)"/><path d="M168.87433312166962,-26.222724240755838L-140.41930089175756,105.45131830766934L-134.90928704977054,110.977508437762z" style="fill:rgb(83,212,212)"/><path d="M-18.84553239305423,137.0647553197451L-11.443776370052966,28.223634792713455L-16.941805597343357,18.047919653803113z" style="fill:rgb(247,158,158)"/><path d="M8.258296591539507,12.86191079698266L168.9394782260062,-27.398757785447167L168.96776996505204,-27.90932199640696zM168.8875288594866,-42.373167526543995L169.01909687500557,-41.04424352332229L169.00828272325825,-41.38595752839907zM6.497091018216128,13.792711086618091L168.9161648908272,-26.977900844166406L168.9394782260062,-27.398757785447167z" style="fill:rgb(83,212,212)"/><path d="M29.962000665874427,124.22618514473162L31.554784013642102,0.563043054656728L26.515154919477617,-9.835538458139533zM-6.431586456978913,18.003203074838567L-1.121179211082883,145.02563465798104L-1.0107810574674367,28.23081374962334z" style="fill:rgb(247,158,158)"/><path d="M4.699039768983825,14.647432081408093L168.89791823973877,-26.64861486551074L168.9161648908272,-26.977900844166406zM-0.8397427107781688,16.721071327424294L168.87433312166962,-26.222724240755838L168.87696416857744,-26.270186046782932zM2.8717276888999237,15.422489945574787L168.88483319111143,-26.41236149333306L168.89791823973877,-26.64861486551074zM1.022867069096129,16.114653998086567L168.87696416857744,-26.270186046782932L168.88483319111143,-26.41236149333306z" style="fill:rgb(83,212,212)"/><path d="M-17.01364626410385,136.80116805443757L-9.814418442852773,28.458858815136704L-15.301676342902434,18.275129987890335zM-15.124539722855273,136.52934799723658L-8.13193965553898,28.601204535774873L-13.607518993089043,18.40916522463532zM29.176558184592896,124.50788768775315L30.944352063173916,3.4519141087281944L25.886225237655157,-6.943299773470147zM20.18187346405027,3.209967495121537L28.29769067027145,137.07616555368895L25.331448452920537,13.57473772511407zM-13.184602976726051,136.17215370374086L-6.403168521363701,28.64981486216338L-11.866209077661997,18.449200419135803zM17.652212743896083,5.920766045905728L25.463651540758004,138.0511992441683L22.833882507485207,16.272147590851127zM16.25966635354048,7.215054619478445L23.909821736274168,138.52115868612333L21.45806815339417,17.55909655070195zM4.699039768983825,14.647432081408093L11.122747114678992,142.20343661529594L10.020435901476212,24.93140629918619zM-11.202188260699923,135.78022222690578L-4.635173259375972,28.604243429498723L-10.084865706263745,18.394818711106875zM13.24766299488013,9.653921597355021L20.562694707365043,139.5335117055665L18.480538878444804,19.982163714065592zM11.640683797489764,10.788115361864454L18.78287704491892,140.0718227706729L16.89115240699765,21.107971066802385zM-9.185340307332687,135.38148132246093L-2.8352277660791065,28.464451724106024L-8.270822053607622,18.2460154408357zM27.04930127541323,125.2708382808811L29.178019138870464,7.848217061026907L24.085344557999782,-2.537351850652104zM28.401916024721583,-110.40103231464785L30.225236005344485,124.13177797881701L35.871463535386134,134.37206258441512zM26.098093081804073,125.61200082576657L28.370126593203526,9.306432310459227L23.264287384419465,-1.0747485427967371zM-5.079925805823449,134.5698274411735L0.8305791934989754,27.904120359219018L-4.574811083578501,17.667207803111143z" style="fill:rgb(247,158,158)"/><path d="M168.87433312166962,-26.222724240755838L-134.90928704977054,110.977508437762L-128.76352193622597,116.10658165649365z" style="fill:rgb(83,212,212)"/><path d="M25.03182327315727,125.99441844942925L27.457321213972925,10.750940093562937L22.337572005297897,0.37470372891634185zM23.854798318634046,126.4165604406004L26.443104815003977,12.175703166415076L21.308759442516116,1.8049448403403745zM-3.007446020231072,134.1600791549708L2.6811629315942924,27.48558232357321L-2.708254371152475,17.239278308456107z" style="fill:rgb(247,158,158)"/><path d="M-128.76352193622597,116.10658165649365L-115.15294540069397,130.37975677461864L-121.99554297537453,120.80579777173898z" style="fill:rgb(42,41,169)"/><path d="M173.06465582498504,-22.140229896329593L168.8022552593631,-24.921875864530307L172.6346099235483,-13.79326510168373z" style="fill:rgb(245,143,172)"/><path d="M-0.932555668536669,133.63908796881432L4.533214132245943,26.9768173693317L-0.8397427107781688,16.721071327424294zM1.1360689296151498,133.119647104944L6.378949860078346,26.379851311767368L1.022867069096129,16.114653998086567zM21.187891544144602,127.37307142914023L24.126759357990842,14.942147573219373L18.961389636028635,4.583846059880055zM3.1902326435018793,132.60384673518737L8.210597816413305,25.697111768154905L2.8717276888999237,15.422489945574787z" style="fill:rgb(247,158,158)"/><path d="M168.8022552593631,-24.921875864530307L173.06465582498504,-22.140229896329593L169.26499283605852,-33.274350200150394z" style="fill:rgb(245,143,172)"/><path d="M16.485819152141353,128.84838389865686L20.004953974385305,18.797524556062427L14.789459812586212,8.461208206913668zM7.222601979031213,131.5913285099444L11.80083170568762,24.085924381832037L6.497091018216128,13.792711086618091z" style="fill:rgb(247,158,158)"/><path d="M-107.8081327454253,134.64220077841026L-121.99554297537453,120.80579777173898L-115.15294540069397,130.37975677461864z" style="fill:rgb(48,39,174)"/><path d="M9.184516140227844,131.0722005993039L13.54427699821679,23.164213281968802L8.258296591539507,12.86191079698266zM11.099061827852067,130.48906373928776L15.243430559112864,22.17015878224729L9.975234208564903,11.85896230501243z" style="fill:rgb(247,158,158)"/><path d="M169.2499569100023,-33.7492940551126L169.2334291294903,-32.70467101174969L169.26499283605852,-33.274350200150394zM168.87433312166962,-26.222724240755838L-128.76352193622597,116.10658165649365L-121.99554297537453,120.80579777173898z" style="fill:rgb(83,212,212)"/><path d="M-121.99554297537453,120.80579777173898L-107.8081327454253,134.64220077841026L-114.62298139512735,125.04339344258211z" style="fill:rgb(48,39,174)"/><path d="M172.6346099235483,-13.79326510168373L167.6061917352577,-16.36268804118848L171.47842443999633,-5.244731098673049zM167.6061917352577,-16.36268804118848L172.6346099235483,-13.79326510168373L168.8022552593631,-24.921875864530307z" style="fill:rgb(244,137,177)"/><path d="M-99.88906968012924,138.41547998649685L-114.62298139512735,125.04339344258211L-107.8081327454253,134.64220077841026z" style="fill:rgb(54,37,179)"/><path d="M168.87433312166962,-26.222724240755838L-121.99554297537453,120.80579777173898L-114.62298139512735,125.04339344258211zM168.87433312166962,-26.222724240755838L167.6061917352577,-16.36268804118848L168.8022552593631,-24.921875864530307zM168.87433312166962,-26.222724240755838L-114.62298139512735,125.04339344258211L-106.66776991079006,128.78892307279722z" style="fill:rgb(83,212,212)"/><path d="M171.47842443999633,-5.244731098673049L165.6666207697886,-7.633586762098275L169.58603794739378,3.4685432015731106z" style="fill:rgb(242,131,182)"/><path d="M-114.62298139512735,125.04339344258211L-99.88906968012924,138.41547998649685L-106.66776991079006,128.78892307279722z" style="fill:rgb(54,37,179)"/><path d="M-91.42212570378449,141.67093993322734L-106.66776991079006,128.78892307279722L-99.88906968012924,138.41547998649685z" style="fill:rgb(60,35,184)"/><path d="M165.6666207697886,-7.633586762098275L171.47842443999633,-5.244731098673049L167.6061917352577,-16.36268804118848z" style="fill:rgb(242,131,182)"/><path d="M-26.018086488572283,13.898181529441349L-35.62612728269257,138.95924726127862L-29.346750724985824,148.87314600692795zM-25.883143007840484,15.224755783300303L-35.43520141548709,138.94222387253615L-29.157484491678062,148.85699538949103z" style="fill:rgb(247,158,158)"/><path d="M168.87433312166962,-26.222724240755838L165.6666207697886,-7.633586762098275L167.6061917352577,-16.36268804118848z" style="fill:rgb(83,212,212)"/><path d="M-25.27618817920371,17.765190212745882L-34.674988715327686,138.8744714998082L-28.403899315872255,148.79271792075733zM-24.805632087241197,18.968782148589433L-34.10849661993053,138.82399672224014L-27.842346445745328,148.74481952586513zM-24.22540077968451,20.121329838528357L-33.420374703207706,138.76266441082L-27.160224352178055,148.68664645816168z" style="fill:rgb(247,158,158)"/><path d="M168.87433312166962,-26.222724240755838L-106.66776991079006,128.78892307279722L-98.1561966609616,132.01365761223687z" style="fill:rgb(83,212,212)"/><path d="M-23.53733830216112,21.218057091229234L-32.61315175600015,138.69071725031625L-26.360050059004944,148.61839023672988zM-22.74373180476939,22.25437350533128L-31.68981227158484,138.60842943204003L-25.444777582157677,148.5403248421721zM-28.842814236826634,148.8301571918189L-31.174384127966025,6.408039055212944L-35.117765644499244,138.9139348298266zM-21.847310364125295,23.22589305582496L-30.653765095147396,138.5160981466227L-24.41778864297889,148.4527319494162z" style="fill:rgb(247,158,158)"/><path d="M168.87433312166962,-26.222724240755838L162.977478107587,1.2261013496671664L165.6666207697886,-7.633586762098275z" style="fill:rgb(83,212,212)"/><path d="M169.58603794739378,3.4685432015731106L162.977478107587,1.2261013496671664L166.9514496310403,12.307255408289114z" style="fill:rgb(240,125,187)"/><path d="M-106.66776991079006,128.78892307279722L-91.42212570378449,141.67093993322734L-98.1561966609616,132.01365761223687z" style="fill:rgb(60,35,184)"/><path d="M162.977478107587,1.2261013496671664L169.58603794739378,3.4685432015731106L165.6666207697886,-7.633586762098275z" style="fill:rgb(240,125,187)"/><path d="M-18.57505764625986,25.711343877047284L-26.909819769862075,138.18242287811375L-20.706655709990788,148.13618628388485z" style="fill:rgb(247,158,158)"/><path d="M168.87433312166962,-26.222724240755838L-98.1561966609616,132.01365761223687L-89.11901680050272,134.6908683095206z" style="fill:rgb(83,212,212)"/><path d="M-17.303401437810017,26.38467846371848L-25.464611346985777,138.01714412536901L-19.27433241256477,147.97761628555713zM-15.949034668721367,26.97511549377621L-23.929017210531363,137.7961953163315L-17.75268557759442,147.76391459908635zM-23.2828940454251,148.35592567293278L-26.396283439733622,13.998330853695771L-29.508846984997355,138.4140545756216z" style="fill:rgb(247,158,158)"/><path d="M-89.11901680050272,134.6908683095206L-91.42212570378449,141.67093993322734L-82.43803171748341,144.38191004141981z" style="fill:rgb(66,34,189)"/><path d="M-14.517187618900026,27.47994105596518L-22.309823899040623,137.5632192595427L-16.1482182380169,147.5385827263397zM-22.044311077951456,148.2502868332996L-25.30069317502272,14.822796994406147L-28.2593161980757,138.30269894160637z" style="fill:rgb(247,158,158)"/><path d="M168.87433312166962,-26.222724240755838L159.53709526292988,10.174718657881831L162.977478107587,1.2261013496671664z" style="fill:rgb(83,212,212)"/><path d="M-91.42212570378449,141.67093993322734L-89.11901680050272,134.6908683095206L-98.1561966609616,132.01365761223687z" style="fill:rgb(66,34,189)"/><path d="M-11.443776370052966,28.223634792713455L-18.84553239305423,137.0647553197451L-12.71549170834948,147.05648226322032zM-9.814418442852773,28.458858815136704L-17.01364626410385,136.80116805443757L-10.900330164756442,146.80155255975566z" style="fill:rgb(247,158,158)"/><path d="M168.87433312166962,-26.222724240755838L-89.11901680050272,134.6908683095206L-79.5914485490058,136.79630702974026z" style="fill:rgb(83,212,212)"/><path d="M-8.13193965553898,28.601204535774873L-15.124539722855273,136.52934799723658L-9.028494104007544,146.53866407744144z" style="fill:rgb(247,158,158)"/><path d="M166.9514496310403,12.307255408289114L159.53709526292988,10.174718657881831L163.57300055442371,21.22982044381316z" style="fill:rgb(237,120,191)"/><path d="M-6.403168521363701,28.64981486216338L-13.184602976726051,136.17215370374086L-7.106719283094519,146.1908482957611zM-14.467019013146954,147.30246375359644L-18.521304518525383,17.72875631624101L-20.61317646050396,137.31908759070242zM-4.635173259375972,28.604243429498723L-11.202188260699923,135.78022222690578L-5.1430275921977655,145.8085752024195z" style="fill:rgb(247,158,158)"/><path d="M159.53709526292988,10.174718657881831L166.9514496310403,12.307255408289114L162.977478107587,1.2261013496671664z" style="fill:rgb(237,120,191)"/><path d="M-2.8352277660791065,28.464451724106024L-9.185340307332687,135.38148132246093L-3.1452506653296983,145.41966494411417z" style="fill:rgb(247,158,158)"/><path d="M168.87433312166962,-26.222724240755838L155.34854202599175,19.168503842172452L159.53709526292988,10.174718657881831z" style="fill:rgb(83,212,212)"/><path d="M0.8305791934989754,27.904120359219018L-5.079925805823449,134.5698274411735L0.9212682203618608,144.62803844488874z" style="fill:rgb(247,158,158)"/><path d="M-79.5914485490058,136.79630702974026L-82.43803171748341,144.38191004141981L-72.97190195105682,146.52417854646257z" style="fill:rgb(73,33,193)"/><path d="M2.6811629315942924,27.48558232357321L-3.007446020231072,134.1600791549708L2.9740750230488335,144.22840510365708zM31.686644057305266,-0.8511695145552223L30.15936188762612,124.15539942759932L35.80627275863688,134.39533218552373zM4.533214132245943,26.9768173693317L-0.932555668536669,133.63908796881432L5.028687638945799,143.71782366465575z" style="fill:rgb(247,158,158)"/><path d="M168.87433312166962,-26.222724240755838L-79.5914485490058,136.79630702974026L-69.61311742722378,138.30850015123391z" style="fill:rgb(83,212,212)"/><path d="M31.554784013642102,0.563043054656728L29.962000665874427,124.22618514473162L35.61097213872482,134.46506366727104zM6.378949860078346,26.379851311767368L1.1360689296151498,133.119647104944L7.077074796617888,143.20879296229072z" style="fill:rgb(247,158,158)"/><path d="M-82.43803171748341,144.38191004141981L-79.5914485490058,136.79630702974026L-89.11901680050272,134.6908683095206z" style="fill:rgb(73,33,193)"/><path d="M8.210597816413305,25.697111768154905L3.1902326435018793,132.60384673518737L9.11112139377396,142.7033219873472zM30.944352063173916,3.4519141087281944L29.176558184592896,124.50788768775315L34.83371269425189,134.74257139531042zM11.80083170568762,24.085924381832037L7.222601979031213,131.5913285099444L13.103940409776328,141.71109548496034zM-1.121179211082883,145.02563465798104L-6.431586456978913,18.003203074838567L-7.141921719682908,134.97748592901362zM29.178019138870464,7.848217061026907L27.04930127541323,125.2708382808811L32.728620033478066,135.4941642041953zM13.54427699821679,23.164213281968802L9.184516140227844,131.0722005993039L15.046451159310227,141.20191683659948zM28.370126593203526,9.306432310459227L26.098093081804073,125.61200082576657L31.787317622384396,135.8302495391299z" style="fill:rgb(247,158,158)"/><path d="M168.87433312166962,-26.222724240755838L150.41979485084562,28.161874038574716L155.34854202599175,19.168503842172452z" style="fill:rgb(83,212,212)"/><path d="M15.243430559112864,22.17015878224729L11.099061827852067,130.48906373928776L16.941668966649615,140.62869377166217zM27.457321213972925,10.750940093562937L25.03182327315727,125.99441844942925L30.732150379356796,136.20697709162837z" style="fill:rgb(247,158,158)"/><path d="M163.57300055442371,21.22982044381316L155.34854202599175,19.168503842172452L159.45368612861577,30.19260513974809z" style="fill:rgb(234,114,195)"/><path d="M26.443104815003977,12.175703166415076L23.854798318634046,126.4165604406004L29.567373812080056,136.62283922434915zM20.004953974385305,18.797524556062427L16.485819152141353,128.84838389865686L22.273971241518918,139.01593028461352zM24.126759357990842,14.942147573219373L21.187891544144602,127.37307142914023L26.928208344821325,137.56512651036738zM35.28634663170612,134.58095837818803L26.258756108868383,-8.397880510623635L29.63395583511557,124.34383180393293z" style="fill:rgb(247,158,158)"/><path d="M155.34854202599175,19.168503842172452L163.57300055442371,21.22982044381316L159.53709526292988,10.174718657881831z" style="fill:rgb(234,114,195)"/><path d="M168.87433312166962,-26.222724240755838L-69.61311742722378,138.30850015123391L-59.22795643606677,139.2091144355997z" style="fill:rgb(83,212,212)"/><path d="M34.25490320031263,134.9492269499729L25.39866084593405,-5.477687188511372L28.59165317625216,124.7176648840611zM11.122747114678992,142.20343661529594L4.699039768983825,14.647432081408093L5.221774751159901,132.09374082085293zM33.552260078132456,135.20010009632506L24.797666513631327,-4.007023499095492L27.881609352028235,124.97233088458265z" style="fill:rgb(247,158,158)"/><path d="M-69.61311742722378,138.30850015123391L-72.97190195105682,146.52417854646257L-63.063199929525815,148.07628284687576z" style="fill:rgb(79,32,198)"/><path d="M18.78287704491892,140.0718227706729L11.640683797489764,10.788115361864454L12.959060118871625,129.9225574187944zM20.562694707365043,139.5335117055665L13.24766299488013,9.653921597355021L14.757053762530209,129.3749283393039zM28.29769067027145,137.07616555368895L20.18187346405027,3.209967495121537L22.57176470043628,126.87673055679552zM23.909821736274168,138.52115868612333L16.25966635354048,7.215054619478445L18.138397138268925,128.3450410219597zM25.463651540758004,138.0511992441683L17.652212743896083,5.920766045905728L19.708127367786087,127.86693704532503z" style="fill:rgb(247,158,158)"/><path d="M168.87433312166962,-26.222724240755838L144.76405214486417,37.10776382231203L150.41979485084562,28.161874038574716z" style="fill:rgb(83,212,212)"/><path d="M-72.97190195105682,146.52417854646257L-69.61311742722378,138.30850015123391L-79.5914485490058,136.79630702974026z" style="fill:rgb(79,32,198)"/><path d="M168.87433312166962,-26.222724240755838L-59.22795643606677,139.2091144355997L-48.48399302354201,139.48336977464254z" style="fill:rgb(83,212,212)"/><path d="M159.45368612861577,30.19260513974809L150.41979485084562,28.161874038574716L154.60138946242085,39.15020462202427z" style="fill:rgb(230,108,199)"/><path d="M168.87433312166962,-26.222724240755838L138.39978145461666,45.95798867547142L144.76405214486417,37.10776382231203z" style="fill:rgb(83,212,212)"/><path d="M150.41979485084562,28.161874038574716L159.45368612861577,30.19260513974809L155.34854202599175,19.168503842172452z" style="fill:rgb(230,108,199)"/><path d="M-59.22795643606677,139.2091144355997L-63.063199929525815,148.07628284687576L-52.75557144341335,149.01987088118716z" style="fill:rgb(86,32,201)"/><path d="M168.87433312166962,-26.222724240755838L-48.48399302354201,139.48336977464254L-37.433092634146774,139.12029150330784zM168.87433312166962,-26.222724240755838L131.35079606821876,54.66367003074169L138.39978145461666,45.95798867547142z" style="fill:rgb(83,212,212)"/><path d="M-63.063199929525815,148.07628284687576L-59.22795643606677,139.2091144355997L-69.61311742722378,138.30850015123391z" style="fill:rgb(86,32,201)"/><path d="M154.60138946242085,39.15020462202427L144.76405214486417,37.10776382231203L149.02906072606532,48.05578664334052z" style="fill:rgb(226,102,203)"/><path d="M168.87433312166962,-26.222724240755838L-37.433092634146774,139.12029150330784L-26.130621052360716,138.11297805205845zM168.87433312166962,-26.222724240755838L123.64629545266108,63.17569735487123L131.35079606821876,54.66367003074169z" style="fill:rgb(83,212,212)"/><path d="M144.76405214486417,37.10776382231203L154.60138946242085,39.15020462202427L150.41979485084562,28.161874038574716z" style="fill:rgb(226,102,203)"/><path d="M-48.48399302354201,139.48336977464254L-52.75557144341335,149.01987088118716L-42.09669472498567,149.34010915960792z" style="fill:rgb(94,32,205)"/><path d="M168.87433312166962,-26.222724240755838L-26.130621052360716,138.11297805205845L-14.635046538645087,136.4589194621539zM168.87433312166962,-26.222724240755838L115.32077762687717,71.44520382892044L123.64629545266108,63.17569735487123z" style="fill:rgb(83,212,212)"/><path d="M-52.75557144341335,149.01987088118716L-48.48399302354201,139.48336977464254L-59.22795643606677,139.2091144355997z" style="fill:rgb(94,32,205)"/><path d="M149.02906072606532,48.05578664334052L138.39978145461666,45.95798867547142L142.75487778661582,56.861446483572436z" style="fill:rgb(222,96,207)"/><path d="M168.87433312166962,-26.222724240755838L-14.635046538645087,136.4589194621539L-3.007446020231072,134.1600791549708zM168.87433312166962,-26.222724240755838L106.41379891760282,79.42405283204491L115.32077762687717,71.44520382892044z" style="fill:rgb(83,212,212)"/><path d="M138.39978145461666,45.95798867547142L149.02906072606532,48.05578664334052L144.76405214486417,37.10776382231203z" style="fill:rgb(222,96,207)"/><path d="M-37.433092634146774,139.12029150330784L-42.09669472498567,149.34010915960792L-31.13798882292813,149.02593235777428z" style="fill:rgb(101,32,208)"/><path d="M168.87433312166962,-26.222724240755838L-3.007446020231072,134.1600791549708L8.689018058675895,131.22310991473842zM168.87433312166962,-26.222724240755838L96.96981441155121,87.06538556105487L106.41379891760282,79.42405283204491zM168.87433312166962,-26.222724240755838L8.689018058675895,131.22310991473842L20.389694300642876,127.65934836439413z" style="fill:rgb(83,212,212)"/><path d="M142.75487778661582,56.861446483572436L131.35079606821876,54.66367003074169L135.80230862993,65.5186459684734z" style="fill:rgb(217,91,210)"/><path d="M-42.09669472498567,149.34010915960792L-37.433092634146774,139.12029150330784L-48.48399302354201,139.48336977464254z" style="fill:rgb(101,32,208)"/><path d="M168.87433312166962,-26.222724240755838L87.03777678851714,94.32409972814126L96.96981441155121,87.06538556105487zM168.87433312166962,-26.222724240755838L20.389694300642876,127.65934836439413L32.029073075118326,123.48480955318736zM168.87433312166962,-26.222724240755838L76.67074972088616,101.15737105903969L87.03777678851714,94.32409972814126zM168.87433312166962,-26.222724240755838L32.029073075118326,123.48480955318736L43.54144805271108,118.72015226441724zM168.87433312166962,-26.222724240755838L65.92543691758011,107.5251290918924L76.67074972088616,101.15737105903969zM168.87433312166962,-26.222724240755838L43.54144805271108,118.72015226441724L54.86158877119613,113.390485308115z" style="fill:rgb(83,212,212)"/><path d="M-26.130621052360716,138.11297805205845L-31.13798882292813,149.02593235777428L-19.93429971057695,148.0703076856481z" style="fill:rgb(108,33,211)"/><path d="M168.87433312166962,-26.222724240755838L54.86158877119613,113.390485308115L65.92543691758011,107.5251290918924z" style="fill:rgb(83,212,212)"/><path d="M131.35079606821876,54.66367003074169L142.75487778661582,56.861446483572436L138.39978145461666,45.95798867547142z" style="fill:rgb(217,91,210)"/><path d="M135.80230862993,65.5186459684734L123.64629545266108,63.17569735487123L128.2000987543387,73.97863867352238z" style="fill:rgb(212,85,213)"/><path d="M-31.13798882292813,149.02593235777428L-26.130621052360716,138.11297805205845L-37.433092634146774,139.12029150330784z" style="fill:rgb(108,33,211)"/><path d="M-14.635046538645087,136.4589194621539L-19.93429971057695,148.0703076856481L-8.54347943201504,146.47055025567337z" style="fill:rgb(116,34,214)"/><path d="M123.64629545266108,63.17569735487123L135.80230862993,65.5186459684734L131.35079606821876,54.66367003074169z" style="fill:rgb(212,85,213)"/><path d="M128.2000987543387,73.97863867352238L115.32077762687717,71.44520382892044L119.98217116731648,82.1929729622036z" style="fill:rgb(206,80,215)"/><path d="M-19.93429971057695,148.0703076856481L-14.635046538645087,136.4589194621539L-26.130621052360716,138.11297805205845z" style="fill:rgb(116,34,214)"/><path d="M-3.007446020231072,134.1600791549708L-8.54347943201504,146.47055025567337L2.9740750230488335,144.22840510365708z" style="fill:rgb(123,36,216)"/><path d="M115.32077762687717,71.44520382892044L128.2000987543387,73.97863867352238L123.64629545266108,63.17569735487123z" style="fill:rgb(206,80,215)"/><path d="M119.98217116731648,82.1929729622036L106.41379891760282,79.42405283204491L111.1875159744299,90.1139560767697z" style="fill:rgb(200,75,217)"/><path d="M-8.54347943201504,146.47055025567337L-3.007446020231072,134.1600791549708L-14.635046538645087,136.4589194621539z" style="fill:rgb(123,36,216)"/><path d="M8.689018058675895,131.22310991473842L2.9740750230488335,144.22840510365708L14.55595356881334,141.35026127091393z" style="fill:rgb(131,38,218)"/><path d="M111.1875159744299,90.1139560767697L96.96981441155121,87.06538556105487L101.85987669187021,97.6951979895697z" style="fill:rgb(194,70,219)"/><path d="M106.41379891760282,79.42405283204491L119.98217116731648,82.1929729622036L115.32077762687717,71.44520382892044z" style="fill:rgb(200,75,217)"/><path d="M20.389694300642876,127.65934836439413L14.55595356881334,141.35026127091393L26.13830995365494,137.8471478171911z" style="fill:rgb(138,40,220)"/><path d="M96.96981441155121,87.06538556105487L92.04746242888275,104.8920819202486L101.85987669187021,97.6951979895697z" style="fill:rgb(188,65,220)"/><path d="M2.9740750230488335,144.22840510365708L8.689018058675895,131.22310991473842L-3.007446020231072,134.1600791549708z" style="fill:rgb(131,38,218)"/><path d="M32.029073075118326,123.48480955318736L26.13830995365494,137.8471478171911L37.65649167615195,133.73473098997871z" style="fill:rgb(146,43,221)"/><path d="M96.96981441155121,87.06538556105487L111.1875159744299,90.1139560767697L106.41379891760282,79.42405283204491z" style="fill:rgb(194,70,219)"/><path d="M87.03777678851714,94.32409972814126L81.8025374077636,111.6622786474893L92.04746242888275,104.8920819202486z" style="fill:rgb(181,61,221)"/><path d="M43.54144805271108,118.72015226441724L37.65649167615195,133.73473098997871L49.04567153228744,129.0332812448726z" style="fill:rgb(153,46,222)"/><path d="M76.67074972088616,101.15737105903969L71.18093323368444,117.96621326657664L81.8025374077636,111.6622786474893z" style="fill:rgb(175,57,222)"/><path d="M14.55595356881334,141.35026127091393L20.389694300642876,127.65934836439413L8.689018058675895,131.22310991473842z" style="fill:rgb(138,40,220)"/><path d="M54.86158877119613,113.390485308115L49.04567153228744,129.0332812448726L60.241534722557034,123.76748544377514z" style="fill:rgb(160,49,222)"/><path d="M65.92543691758011,107.5251290918924L60.241534722557034,123.76748544377514L71.18093323368444,117.96621326657664z" style="fill:rgb(168,53,222)"/><path d="M92.04746242888275,104.8920819202486L96.96981441155121,87.06538556105487L87.03777678851714,94.32409972814126z" style="fill:rgb(188,65,220)"/><path d="M26.13830995365494,137.8471478171911L32.029073075118326,123.48480955318736L20.389694300642876,127.65934836439413z" style="fill:rgb(146,43,221)"/><path d="M81.8025374077636,111.6622786474893L87.03777678851714,94.32409972814126L76.67074972088616,101.15737105903969z" style="fill:rgb(181,61,221)"/><path d="M37.65649167615195,133.73473098997871L43.54144805271108,118.72015226441724L32.029073075118326,123.48480955318736z" style="fill:rgb(153,46,222)"/><path d="M71.18093323368444,117.96621326657664L76.67074972088616,101.15737105903969L65.92543691758011,107.5251290918924z" style="fill:rgb(175,57,222)"/><path d="M49.04567153228744,129.0332812448726L54.86158877119613,113.390485308115L43.54144805271108,118.72015226441724z" style="fill:rgb(160,49,222)"/><path d="M60.241534722557034,123.76748544377514L65.92543691758011,107.5251290918924L54.86158877119613,113.390485308115z" style="fill:rgb(168,53,222)"/></svg>
