<?xml version="1.0" encoding="UTF-8"?>
<!-- Generated by jsxcad -->
<!DOCTYPE svg PUBLIC "-//W3C//DTD SVG 1.1 Tiny//EN" "http://www.w3.org/Graphics/SVG/1.1/DTD/svg11-tiny.dtd">
<svg viewBox="-250 -250 500 500" width="500" height="500" xmlns="http://www.w3.org/2000/svg"><path d="M161.62615404088766,-69.78253073374277L-47.36844563468201,-97.13344350990916L-55.98448787420039,-92.5955264181106zM161.62615404088766,-69.78253073374277L-38.593661765581054,-101.34922318729974L-47.36844563468201,-97.13344350990916zM161.62615404088766,-69.78253073374277L-55.98448787420039,-92.5955264181106L-64.41906159606268,-87.74731217139811zM161.62615404088766,-69.78253073374277L-29.683088333965465,-105.23145992848448L-38.593661765581054,-101.34922318729974zM161.62615404088766,-69.78253073374277L-64.41906159606268,-87.74731217139811L-72.64961750279438,-82.60107462194134zM161.62615404088766,-69.78253073374277L-20.65994553222352,-108.76913433370582L-29.683088333965465,-105.23145992848448zM161.62615404088766,-69.78253073374277L-72.64961750279438,-82.60107462194134L-80.65377028344874,-77.16954614946589zM161.62615404088766,-69.78253073374277L-11.54777174025159,-111.95160103060006L-20.65994553222352,-108.76913433370582zM161.62615404088766,-69.78253073374277L-80.65377028344874,-77.16954614946589L-88.40925247267101,-71.46596373811089zM161.62615404088766,-69.78253073374277L-2.3704559161678094,-114.76863702994014L-11.54777174025159,-111.95160103060006zM161.62615404088766,-69.78253073374277L-88.40925247267101,-71.46596373811089L-95.89388766229104,-65.50409887525778zM161.62615404088766,-69.78253073374277L6.8477062057393585,-117.21039201445008L-2.3704559161678094,-114.76863702994014zM161.62615404088766,-69.78253073374277L-95.89388766229104,-65.50409887525778L-103.08559258710453,-59.29829636941542zM161.62615404088766,-69.78253073374277L16.08197332324101,-119.26740885502556L6.8477062057393585,-117.21039201445008zM161.62615404088766,-69.78253073374277L-103.08559258710453,-59.29829636941542L-109.96232092052942,-52.863536436283724zM161.62615404088766,-69.78253073374277L25.30711533742489,-120.93069691733633L16.08197332324101,-119.26740885502556zM161.62615404088766,-69.78253073374277L-109.96232092052942,-52.863536436283724L-116.50211963588261,-46.21545733075534zM161.62615404088766,-69.78253073374277L34.497374400246976,-122.19167706144793L25.30711533742489,-120.93069691733633zM161.62615404088766,-69.78253073374277L-116.50211963588261,-46.21545733075534L-122.68309282866619,-39.37043178602688zM161.62615404088766,-69.78253073374277L43.62642357518626,-123.04231255655135L34.497374400246976,-122.19167706144793zM161.62615404088766,-69.78253073374277L-122.68309282866619,-39.37043178602688L-128.48342808954956,-32.34559656608968zM161.62615404088766,-69.78253073374277L52.66735230525755,-123.47509251648786L43.62642357518626,-123.04231255655135zM161.62615404088766,-69.78253073374277L-128.48342808954956,-32.34559656608968L-133.88143359353717,-25.158926330049116zM161.62615404088766,-69.78253073374277L61.59262345291627,-123.48309109903165L52.66735230525755,-123.47509251648786zM161.62615404088766,-69.78253073374277L-133.88143359353717,-25.158926330049116L-138.8555825602435,-17.829265421537592zM161.62615404088766,-69.78253073374277L70.37408375158074,-123.06009388359531L61.59262345291627,-123.48309109903165zM161.62615404088766,-69.78253073374277L-138.8555825602435,-17.829265421537592L-143.38454759952688,-10.376395001600496zM-6.1685934731328365,-25.30510118133688L-154.49733301584615,13.741743931441341L-154.54020743029267,13.872076593086813zM-7.93604981914909,-24.633062418902828L-154.54020743029267,13.872076593086813L-154.61148873799598,14.088787402917305zM-4.386568437563631,-25.899243447579746L-154.4830250663616,13.69824927486544L-154.49733301584615,13.741743931441341zM-9.682422763561094,-23.88565831022185L-154.61148873799598,14.088787402917305L-154.71093784658478,14.391119202247026zM-11.401278780517762,-23.065683141274103L-154.71093784658478,14.391119202247026L-154.83819757700462,14.778009391503375zM-13.086280358875722,-22.176176918063575L-154.83819757700462,14.778009391503375L-154.99281785692966,15.248095162922535zM-14.731209378123355,-21.22041463646571L-154.99281785692966,15.248095162922535L-155.1742741789099,15.799719553560365zM-16.32998281633954,-20.201901972929424L-155.1742741789099,15.799719553560365L-155.3818952422156,16.430930158854395zM161.62615404088766,-69.78253073374277L78.98292544995307,-122.20062154711621L70.37408375158074,-123.06009388359531zM-17.876670406613723,-19.124365916227248L-155.3818952422156,16.430930158854395L-155.61496621577524,17.13948786856023zM-19.365509953866205,-17.99173868385835L-155.61496621577524,17.13948786856023L-155.87263698420603,17.922867643382805zM-20.790931172988554,-16.808152140617416L-155.87263698420603,17.922867643382805L-156.154013232427,18.7782718947412zM161.62615404088766,-69.78253073374277L-143.38454759952688,-10.376395001600496L-147.44727524008033,-2.8210681743127695zM-22.147567387122503,-15.577922616198355L-156.154013232427,18.7782718947412L-156.45806431260556,19.70262487938807zM-23.430275244802647,-14.305543178646845L-156.45806431260556,19.70262487938807L-156.63370545730467,20.236590448552445zM-23.430275244802647,-14.305543178646845L-156.63370545730467,20.236590448552445L-156.7490109532934,20.683489769922225zM-24.634152644061878,-12.995668967226734L-156.7490109532934,20.683489769922225L-157.01503794266537,21.714512713355408zM161.62615404088766,-69.78253073374277L87.38972987140734,-120.90001074387474L78.98292544995307,-122.20062154711621zM-25.75455001736739,-11.653105274891898L-157.01503794266537,21.714512713355408L-157.2957829754268,22.802610839510944zM-26.787099052264523,-10.282790815950413L-157.2957829754268,22.802610839510944L-157.5902358460016,23.943799393048348zM161.62615404088766,-69.78253073374277L-147.44727524008033,-2.8210681743127695L-151.02309364200758,4.814940456891023zM-27.727710452427754,-8.889789473700569L-157.5902358460016,23.943799393048348L-157.89729850767958,25.13387541561039zM-28.572607460100368,-7.4792708687780625L-157.89729850767958,25.13387541561039L-158.21584017306324,26.368428820995383zM161.62615404088766,-69.78253073374277L95.56446985543245,-119.15458058734599L87.38972987140734,-120.90001074387474zM-29.318336056990624,-6.056496510482148L-158.21584017306324,26.368428820995383L-158.54466595655157,27.64285284349797zM-29.961770412271377,-4.626804773270313L-158.54466595655157,27.64285284349797L-158.62993670456788,27.973290447688104zM-29.961770412271377,-4.626804773270313L-158.62993670456788,27.973290447688104L-158.8080164571624,28.93294321362483zM161.62615404088766,-69.78253073374277L-151.02309364200758,4.814940456891023L-154.09177831194222,12.50879868728415zM-30.500145511644593,-3.1955916742896417L-158.8080164571624,28.93294321362483L-159.0516896204782,30.246072760985157zM-9.682422763561094,-23.88565831022185L-7.93604981914909,-24.633062418902828L-154.61148873799598,14.088787402917305zM-11.401278780517762,-23.065683141274103L-9.682422763561094,-23.88565831022185L-154.71093784658478,14.391119202247026zM-7.93604981914909,-24.633062418902828L-6.1685934731328365,-25.30510118133688L-154.54020743029267,13.872076593086813zM-13.086280358875722,-22.176176918063575L-11.401278780517762,-23.065683141274103L-154.83819757700462,14.778009391503375zM-6.1685934731328365,-25.30510118133688L-4.386568437563631,-25.899243447579746L-154.49733301584615,13.741743931441341zM-14.731209378123355,-21.22041463646571L-13.086280358875722,-22.176176918063575L-154.99281785692966,15.248095162922535zM-4.386568437563631,-25.899243447579746L-2.5965508829211257,-26.41321447194177L-154.4830250663616,13.69824927486544zM-16.32998281633954,-20.201901972929424L-14.731209378123355,-21.22041463646571L-155.1742741789099,15.799719553560365zM-17.876670406613723,-19.124365916227248L-16.32998281633954,-20.201901972929424L-155.3818952422156,16.430930158854395zM161.62615404088766,-69.78253073374277L103.47653246256607,-116.96165178092053L95.56446985543245,-119.15458058734599zM-30.93105601177421,-1.7682963608433526L-159.0516896204782,30.246072760985157L-159.29992776484173,31.58380500839908zM-19.365509953866205,-17.99173868385835L-17.876670406613723,-19.124365916227248L-155.61496621577524,17.13948786856023zM161.62615404088766,-69.78253073374277L-154.09177831194222,12.50879868728415L-154.4830250663616,13.69824927486544zM-20.790931172988554,-16.808152140617416L-19.365509953866205,-17.99173868385835L-155.87263698420603,17.922867643382805zM-22.147567387122503,-15.577922616198355L-20.790931172988554,-16.808152140617416L-156.154013232427,18.7782718947412zM-31.252476492230016,-0.35038151842094306L-159.29992776484173,31.58380500839908L-159.5517766215747,32.94100525816626zM-23.430275244802647,-14.305543178646845L-22.147567387122503,-15.577922616198355L-156.45806431260556,19.70262487938807zM-31.462770860639303,1.0526850816282285L-159.5517766215747,32.94100525816626L-159.80627360876377,34.312435881780075zM-24.634152644061878,-12.995668967226734L-23.430275244802647,-14.305543178646845L-156.7490109532934,20.683489769922225zM-25.75455001736739,-11.653105274891898L-24.634152644061878,-12.995668967226734L-157.01503794266537,21.714512713355408zM-31.5607145292732,2.435450225768271L-159.80627360876377,34.312435881780075L-160.0624176905216,35.69275473811028zM161.62615404088766,-69.78253073374277L111.09481677771038,-114.31973253280748L103.47653246256607,-116.96165178092053zM-26.787099052264523,-10.282790815950413L-25.75455001736739,-11.653105274891898L-157.2957829754268,22.802610839510944z" style="fill:rgb(83,212,212)"/><path d="M-6.154690128249875,-12.863049171510879L-13.086280358875722,-22.176176918063575L-7.823429439242831,-11.981843983653336z" style="fill:rgb(168,53,222)"/><path d="M-4.451976522336323,-13.674518358350083L-11.401278780517762,-23.065683141274103L-6.154690128249875,-12.863049171510879z" style="fill:rgb(160,49,222)"/><path d="M-7.823429439242831,-11.981843983653336L-14.731209378123355,-21.22041463646571L-9.452030813572309,-11.034153711018503z" style="fill:rgb(175,57,222)"/><path d="M-2.7215682862047026,-14.41324531890561L-9.682422763561094,-23.88565831022185L-4.451976522336323,-13.674518358350083z" style="fill:rgb(153,46,222)"/><path d="M-9.452030813572309,-11.034153711018503L-16.32998281633954,-20.201901972929424L-11.034466873340287,-10.023455977262152z" style="fill:rgb(181,61,221)"/><path d="M-0.9698456479444593,-15.0764663058794L-7.93604981914909,-24.633062418902828L-2.7215682862047026,-14.41324531890561z" style="fill:rgb(146,43,221)"/><path d="M-11.034466873340287,-10.023455977262152L-17.876670406613723,-19.124365916227248L-12.564864098607577,-8.953450137282326z" style="fill:rgb(188,65,220)"/><path d="M0.7967306057634996,-15.661677166923258L-6.1685934731328365,-25.30510118133688L-0.9698456479444593,-15.0764663058794z" style="fill:rgb(138,40,220)"/><path d="M-31.54548486685358,3.7924947837050844L-160.0624176905216,35.69275473811028L-160.2129322784078,37.0490780119713zM-27.727710452427754,-8.889789473700569L-26.787099052264523,-10.282790815950413L-157.5902358460016,23.943799393048348z" style="fill:rgb(83,212,212)"/><path d="M-12.564864098607577,-8.953450137282326L-19.365509953866205,-17.99173868385835L-14.037518653733319,-7.828044048619854z" style="fill:rgb(194,70,219)"/><path d="M2.571637880200359,-16.166639752230473L-4.386568437563631,-25.899243447579746L0.7967306057634996,-15.661677166923258z" style="fill:rgb(131,38,218)"/><path d="M-14.037518653733319,-7.828044048619854L-20.790931172988554,-16.808152140617416L-15.446915301376814,-6.651345102564333z" style="fill:rgb(200,75,217)"/><path d="M4.348309975439354,-16.589386466352757L-2.5965508829211257,-26.41321447194177L2.571637880200359,-16.166639752230473z" style="fill:rgb(123,36,216)"/><path d="M-28.572607460100368,-7.4792708687780625L-27.727710452427754,-8.889789473700569L-157.89729850767958,25.13387541561039z" style="fill:rgb(83,212,212)"/><path d="M-15.446915301376814,-6.651345102564333L-22.147567387122503,-15.577922616198355L-16.78774733605887,-5.427648468752883z" style="fill:rgb(206,80,215)"/><path d="M6.120157364813218,-16.92823259480279L-0.8051586709835817,-26.845015110110342L4.348309975439354,-16.589386466352757z" style="fill:rgb(116,34,214)"/><path d="M-31.416696489022463,5.1184536075141125L-160.2129322784078,37.0490780119713L-160.36323614194094,38.40352261445738z" style="fill:rgb(83,212,212)"/><path d="M-16.78774733605887,-5.427648468752883L-23.430275244802647,-14.305543178646845L-18.054928448300135,-4.161425539669846z" style="fill:rgb(212,85,213)"/><path d="M7.880585875898186,-17.181775192358238L0.9809671592102321,-27.192926948298613L6.120157364813218,-16.92823259480279z" style="fill:rgb(108,33,211)"/><path d="M-29.318336056990624,-6.056496510482148L-28.572607460100368,-7.4792708687780625L-158.21584017306324,26.368428820995383z" style="fill:rgb(83,212,212)"/><path d="M-18.054928448300135,-4.161425539669846L-24.634152644061878,-12.995668967226734L-19.243608889389858,-2.857310809718962z" style="fill:rgb(217,91,210)"/><path d="M9.623017435873457,-17.348910263626095L2.7551830787409566,-27.455512831118995L7.880585875898186,-17.181775192358238z" style="fill:rgb(101,32,208)"/><path d="M-31.17438412796605,6.408039055212949L-160.36323614194094,38.40352261445738L-160.51274034891628,39.75069301444407z" style="fill:rgb(83,212,212)"/><path d="M-6.154690128249875,-12.863049171510879L-11.401278780517762,-23.065683141274103L-13.086280358875722,-22.176176918063575z" style="fill:rgb(168,53,222)"/><path d="M-4.451976522336323,-13.674518358350083L-9.682422763561094,-23.88565831022185L-11.401278780517762,-23.065683141274103z" style="fill:rgb(160,49,222)"/><path d="M-7.823429439242831,-11.981843983653336L-13.086280358875722,-22.176176918063575L-14.731209378123355,-21.22041463646571z" style="fill:rgb(175,57,222)"/><path d="M-2.7215682862047026,-14.41324531890561L-7.93604981914909,-24.633062418902828L-9.682422763561094,-23.88565831022185z" style="fill:rgb(153,46,222)"/><path d="M-9.452030813572309,-11.034153711018503L-14.731209378123355,-21.22041463646571L-16.32998281633954,-20.201901972929424z" style="fill:rgb(181,61,221)"/><path d="M-0.9698456479444593,-15.0764663058794L-6.1685934731328365,-25.30510118133688L-7.93604981914909,-24.633062418902828z" style="fill:rgb(146,43,221)"/><path d="M-11.034466873340287,-10.023455977262152L-16.32998281633954,-20.201901972929424L-17.876670406613723,-19.124365916227248z" style="fill:rgb(188,65,220)"/><path d="M-29.961770412271377,-4.626804773270313L-29.318336056990624,-6.056496510482148L-158.54466595655157,27.64285284349797z" style="fill:rgb(83,212,212)"/><path d="M-19.243608889389858,-2.857310809718962L-25.75455001736739,-11.653105274891898L-20.349201223274427,-1.5200902938900116z" style="fill:rgb(222,96,207)"/><path d="M11.340911118309489,-17.428828827582688L4.510862315042868,-27.631632535090414L9.623017435873457,-17.348910263626095z" style="fill:rgb(94,32,205)"/><path d="M0.7967306057634996,-15.661677166923258L-4.386568437563631,-25.899243447579746L-6.1685934731328365,-25.30510118133688z" style="fill:rgb(138,40,220)"/><path d="M-12.564864098607577,-8.953450137282326L-17.876670406613723,-19.124365916227248L-19.365509953866205,-17.99173868385835z" style="fill:rgb(194,70,219)"/><path d="M161.62615404088766,-69.78253073374277L118.38773270318376,-111.22861526802176L111.09481677771038,-114.31973253280748z" style="fill:rgb(83,212,212)"/><path d="M2.571637880200359,-16.166639752230473L-2.5965508829211257,-26.41321447194177L-4.386568437563631,-25.899243447579746z" style="fill:rgb(131,38,218)"/><path d="M-14.037518653733319,-7.828044048619854L-19.365509953866205,-17.99173868385835L-20.790931172988554,-16.808152140617416z" style="fill:rgb(200,75,217)"/><path d="M-30.819029969256235,7.656058493159833L-160.51274034891628,39.75069301444407L-160.6608350417152,41.08518111465573z" style="fill:rgb(83,212,212)"/><path d="M-20.349201223274427,-1.5200902938900116L-26.787099052264523,-10.282790815950413L-21.367387081639333,-0.15468705439220723z" style="fill:rgb(226,102,203)"/><path d="M13.02778014879241,-17.421027099424983L6.241415269938227,-27.7204448579525L11.340911118309489,-17.428828827582688z" style="fill:rgb(86,32,201)"/><path d="M4.348309975439354,-16.589386466352757L-0.8051586709835817,-26.845015110110342L-2.5965508829211257,-26.41321447194177z" style="fill:rgb(123,36,216)"/><path d="M-30.500145511644593,-3.1955916742896417L-29.961770412271377,-4.626804773270313L-158.8080164571624,28.93294321362483z" style="fill:rgb(83,212,212)"/><path d="M-15.446915301376814,-6.651345102564333L-20.790931172988554,-16.808152140617416L-22.147567387122503,-15.577922616198355z" style="fill:rgb(206,80,215)"/><path d="M6.120157364813218,-16.92823259480279L0.9809671592102321,-27.192926948298613L-0.8051586709835817,-26.845015110110342z" style="fill:rgb(116,34,214)"/><path d="M-16.78774733605887,-5.427648468752883L-22.147567387122503,-15.577922616198355L-23.430275244802647,-14.305543178646845z" style="fill:rgb(212,85,213)"/><path d="M-21.367387081639333,-0.15468705439220723L-27.727710452427754,-8.889789473700569L-22.2941379618353,1.2338527408377402z" style="fill:rgb(230,108,199)"/><path d="M14.67721793811418,-17.325310162255057L7.9403118586198715,-27.721410814240148L13.02778014879241,-17.421027099424983z" style="fill:rgb(79,32,198)"/><path d="M-30.351558913070136,8.857439854283287L-160.6608350417152,41.08518111465573L-160.80692379450994,42.401596292870444z" style="fill:rgb(83,212,212)"/><path d="M7.880585875898186,-17.181775192358238L2.7551830787409566,-27.455512831118995L0.9809671592102321,-27.192926948298613z" style="fill:rgb(108,33,211)"/><path d="M-30.93105601177421,-1.7682963608433526L-30.500145511644593,-3.1955916742896417L-159.0516896204782,30.246072760985157z" style="fill:rgb(83,212,212)"/><path d="M-18.054928448300135,-4.161425539669846L-23.430275244802647,-14.305543178646845L-24.634152644061878,-12.995668967226734z" style="fill:rgb(217,91,210)"/><path d="M-22.2941379618353,1.2338527408377402L-28.572607460100368,-7.4792708687780625L-23.125726788278236,2.6403737810925216z" style="fill:rgb(234,114,195)"/><path d="M16.282916981549164,-17.14179769747245L9.601099718239272,-27.63429709027887L14.67721793811418,-17.325310162255057z" style="fill:rgb(73,33,193)"/><path d="M9.623017435873457,-17.348910263626095L4.510862315042868,-27.631632535090414L2.7551830787409566,-27.455512831118995z" style="fill:rgb(101,32,208)"/><path d="M-19.243608889389858,-2.857310809718962L-24.634152644061878,-12.995668967226734L-25.75455001736739,-11.653105274891898z" style="fill:rgb(222,96,207)"/><path d="M-29.773345674831326,10.007250967188996L-160.80692379450994,42.401596292870444L-160.9141400959368,43.36773003986766zM-31.252476492230016,-0.35038151842094306L-30.93105601177421,-1.7682963608433526L-159.29992776484173,31.58380500839908z" style="fill:rgb(83,212,212)"/><path d="M-23.125726788278236,2.6403737810925216L-29.318336056990624,-6.056496510482148L-23.858752432026165,4.059627782520857z" style="fill:rgb(237,120,191)"/><path d="M11.340911118309489,-17.428828827582688L6.241415269938227,-27.7204448579525L4.510862315042868,-27.631632535090414z" style="fill:rgb(94,32,205)"/><path d="M-29.773345674831326,10.007250967188996L-160.9141400959368,43.36773003986766L-160.92487926886616,43.68802027998297z" style="fill:rgb(83,212,212)"/><path d="M17.838690170665593,-16.87092471192455L11.21742802712516,-27.45918952390677L16.282916981549164,-17.14179769747245z" style="fill:rgb(66,34,189)"/><path d="M-20.349201223274427,-1.5200902938900116L-25.75455001736739,-11.653105274891898L-26.787099052264523,-10.282790815950413z" style="fill:rgb(226,102,203)"/><path d="M13.02778014879241,-17.421027099424983L7.9403118586198715,-27.721410814240148L6.241415269938227,-27.7204448579525z" style="fill:rgb(86,32,201)"/><path d="M-21.367387081639333,-0.15468705439220723L-26.787099052264523,-10.282790815950413L-27.727710452427754,-8.889789473700569z" style="fill:rgb(230,108,199)"/><path d="M-23.858752432026165,4.059627782520857L-29.961770412271377,-4.626804773270313L-24.49014644254975,5.486289540877478z" style="fill:rgb(240,125,187)"/><path d="M-29.086210054988673,11.100722772815386L-160.92487926886616,43.68802027998297L-160.9664649457513,44.92694377173757zM-31.462770860639303,1.0526850816282285L-31.252476492230016,-0.35038151842094306L-159.5517766215747,32.94100525816626z" style="fill:rgb(83,212,212)"/><path d="M19.338490344775696,-16.513442966430986L12.783068934722538,-27.196486569600648L17.838690170665593,-16.87092471192455z" style="fill:rgb(60,35,184)"/><path d="M161.62615404088766,-69.78253073374277L125.32335116450544,-107.68950489457687L118.38773270318376,-111.22861526802176z" style="fill:rgb(83,212,212)"/><path d="M14.67721793811418,-17.325310162255057L9.601099718239272,-27.63429709027887L7.9403118586198715,-27.721410814240148z" style="fill:rgb(79,32,198)"/><path d="M-22.2941379618353,1.2338527408377402L-27.727710452427754,-8.889789473700569L-28.572607460100368,-7.4792708687780625z" style="fill:rgb(234,114,195)"/><path d="M-24.49014644254975,5.486289540877478L-30.500145511644593,-3.1955916742896417L-25.017186530159307,6.914972081007143z" style="fill:rgb(242,131,182)"/><path d="M-28.29243259310615,12.133273020096079L-160.9664649457513,44.92694377173757L-161.00693221769436,46.13264334177211z" style="fill:rgb(83,212,212)"/><path d="M20.776438693516287,-16.07042709099703L14.29193789665907,-26.84691106224578L19.338490344775696,-16.513442966430986z" style="fill:rgb(54,37,179)"/><path d="M-31.5607145292732,2.435450225768271L-31.462770860639303,1.0526850816282285L-159.80627360876377,34.312435881780075z" style="fill:rgb(83,212,212)"/><path d="M16.282916981549164,-17.14179769747245L11.21742802712516,-27.45918952390677L9.601099718239272,-27.63429709027887z" style="fill:rgb(73,33,193)"/><path d="M-23.125726788278236,2.6403737810925216L-28.572607460100368,-7.4792708687780625L-29.318336056990624,-6.056496510482148z" style="fill:rgb(237,120,191)"/><path d="M-25.017186530159307,6.914972081007143L-30.93105601177421,-1.7682963608433526L-25.437515606110967,8.34024572056948z" style="fill:rgb(244,137,177)"/><path d="M22.146841434375855,-15.543272637258204L15.738117240031428,-26.411496168263096L20.776438693516287,-16.07042709099703z" style="fill:rgb(48,39,174)"/><path d="M-27.394734472251706,13.100524903476714L-161.00693221769436,46.13264334177211L-161.04611893451118,47.30009772371435zM-31.54548486685358,3.7924947837050844L-31.5607145292732,2.435450225768271L-160.0624176905216,35.69275473811028z" style="fill:rgb(83,212,212)"/><path d="M17.838690170665593,-16.87092471192455L12.783068934722538,-27.196486569600648L11.21742802712516,-27.45918952390677z" style="fill:rgb(66,34,189)"/><path d="M-23.858752432026165,4.059627782520857L-29.318336056990624,-6.056496510482148L-29.961770412271377,-4.626804773270313z" style="fill:rgb(240,125,187)"/><path d="M-25.437515606110967,8.34024572056948L-31.252476492230016,-0.35038151842094306L-25.749160208025458,9.75665689191984z" style="fill:rgb(245,143,172)"/><path d="M23.444214705062098,-14.933697241806755L17.1158816252326,-25.891606868123514L22.146841434375855,-15.543272637258204z" style="fill:rgb(42,41,169)"/><path d="M-26.396283439733637,13.998330853695776L-161.04611893451118,47.30009772371435L-161.08385304909817,48.424409591762426z" style="fill:rgb(83,212,212)"/><path d="M19.338490344775696,-16.513442966430986L14.29193789665907,-26.84691106224578L12.783068934722538,-27.196486569600648z" style="fill:rgb(60,35,184)"/><path d="M-31.416696489022463,5.1184536075141125L-31.54548486685358,3.7924947837050844L-160.2129322784078,37.0490780119713z" style="fill:rgb(83,212,212)"/><path d="M-24.49014644254975,5.486289540877478L-29.961770412271377,-4.626804773270313L-30.500145511644593,-3.1955916742896417z" style="fill:rgb(242,131,182)"/><path d="M-25.749160208025458,9.75665689191984L-31.462770860639303,1.0526850816282285L-25.950528263249748,11.158743600160141z" style="fill:rgb(246,149,166)"/><path d="M-25.300693175022737,14.822796994406154L-161.08385304909817,48.424409591762426L-161.11998973619166,49.500837789417965z" style="fill:rgb(83,212,212)"/><path d="M24.663307853415503,-14.243733441563444L18.419715168656893,-25.28892678541283L23.444214705062098,-14.933697241806755z" style="fill:rgb(37,44,163)"/><path d="M20.776438693516287,-16.07042709099703L15.738117240031428,-26.411496168263096L14.29193789665907,-26.84691106224578z" style="fill:rgb(54,37,179)"/><path d="M161.62615404088766,-69.78253073374277L131.86951748425224,-103.70517258111786L125.32335116450544,-107.68950489457687z" style="fill:rgb(83,212,212)"/><path d="M-25.017186530159307,6.914972081007143L-30.500145511644593,-3.1955916742896417L-30.93105601177421,-1.7682963608433526z" style="fill:rgb(244,137,177)"/><path d="M-31.17438412796605,6.408039055212949L-31.416696489022463,5.1184536075141125L-160.36323614194094,38.40352261445738z" style="fill:rgb(83,212,212)"/><path d="M-25.950528263249748,11.158743600160141L-31.5607145292732,2.435450225768271L-26.040427772598782,12.541056718393346z" style="fill:rgb(247,155,161)"/><path d="M-24.111996683451093,15.570297826881884L-161.11998973619166,49.500837789417965L-161.1543567317352,50.52480709545327z" style="fill:rgb(83,212,212)"/><path d="M22.146841434375855,-15.543272637258204L17.1158816252326,-25.891606868123514L15.738117240031428,-26.411496168263096z" style="fill:rgb(48,39,174)"/><path d="M25.799120547988053,-13.475737535987054L19.644333387698794,-24.605459883253896L24.663307853415503,-14.243733441563444z" style="fill:rgb(32,47,158)"/><path d="M-25.437515606110967,8.34024572056948L-30.93105601177421,-1.7682963608433526L-31.252476492230016,-0.35038151842094306z" style="fill:rgb(245,143,172)"/><path d="M-30.819029969256235,7.656058493159833L-31.17438412796605,6.408039055212949L-160.51274034891628,39.75069301444407zM-22.834654200778754,16.237497894292297L-161.1543567317352,50.52480709545327L-161.16929963669165,50.969872183362284zM-22.834654200778754,16.237497894292297L-161.16929963669165,50.969872183362284L-161.14503609230255,51.48130150572743z" style="fill:rgb(83,212,212)"/><path d="M-26.040427772598782,12.541056718393346L-31.54548486685358,3.7924947837050844L-26.018086488572298,13.898181529441354z" style="fill:rgb(247,161,155)"/><path d="M23.444214705062098,-14.933697241806755L18.419715168656893,-25.28892678541283L17.1158816252326,-25.891606868123514z" style="fill:rgb(42,41,169)"/><path d="M26.846937113251002,-12.632378241524284L20.78471508932068,-23.84353082141953L25.799120547988053,-13.475737535987054z" style="fill:rgb(28,51,152)"/><path d="M-25.749160208025458,9.75665689191984L-31.252476492230016,-0.35038151842094306L-31.462770860639303,1.0526850816282285z" style="fill:rgb(246,149,166)"/><path d="M-30.351558913070136,8.857439854283287L-30.819029969256235,7.656058493159833L-160.6608350417152,41.08518111465573zM-21.473527518702948,16.821379154294185L-161.14503609230255,51.48130150572743L-161.10292569770462,52.36900274815853z" style="fill:rgb(83,212,212)"/><path d="M24.663307853415503,-14.243733441563444L19.644333387698794,-24.605459883253896L18.419715168656893,-25.28892678541283z" style="fill:rgb(37,44,163)"/><path d="M-26.018086488572298,13.898181529441354L-31.416696489022463,5.1184536075141125L-25.883143007840502,15.224755783300312z" style="fill:rgb(246,166,149)"/><path d="M-25.950528263249748,11.158743600160141L-31.462770860639303,1.0526850816282285L-31.5607145292732,2.435450225768271z" style="fill:rgb(247,155,161)"/><path d="M27.802329743450723,-11.716630189523002L21.836114933367863,-23.00577955759349L26.846937113251002,-12.632378241524284z" style="fill:rgb(24,55,146)"/><path d="M-20.033869424097063,17.319247582816796L-161.10292569770462,52.36900274815853L-161.06382515938043,53.19316125256792zM-29.773345674831326,10.007250967188996L-30.351558913070136,8.857439854283287L-160.80692379450994,42.401596292870444z" style="fill:rgb(83,212,212)"/><path d="M25.799120547988053,-13.475737535987054L20.78471508932068,-23.84353082141953L19.644333387698794,-24.605459883253896z" style="fill:rgb(32,47,158)"/><path d="M161.62615404088766,-69.78253073374277L137.99395098660037,-99.28008813903045L131.86951748425224,-103.70517258111786z" style="fill:rgb(83,212,212)"/><path d="M-25.883143007840502,15.224755783300312L-31.17438412796605,6.408039055212949L-25.63567322421755,16.515489386824772z" style="fill:rgb(245,172,143)"/><path d="M-18.521304518525397,17.72875631624102L-161.06382515938043,53.19316125256792L-161.02792367900878,53.95018712552028z" style="fill:rgb(83,212,212)"/><path d="M-26.040427772598782,12.541056718393346L-31.5607145292732,2.435450225768271L-31.54548486685358,3.7924947837050844z" style="fill:rgb(247,161,155)"/><path d="M28.66119791375106,-10.731773928567232L22.79409026617488,-22.095152889432526L27.802329743450723,-11.716630189523002z" style="fill:rgb(20,59,140)"/><path d="M-29.086210054988673,11.100722772815386L-29.773345674831326,10.007250967188996L-160.92487926886616,43.68802027998297zM-16.941805597343368,18.047919653803124L-161.02792367900878,53.95018712552028L-160.9953512246791,54.6367780974889z" style="fill:rgb(83,212,212)"/><path d="M26.846937113251002,-12.632378241524284L21.836114933367863,-23.00577955759349L20.78471508932068,-23.84353082141953z" style="fill:rgb(28,51,152)"/><path d="M-25.63567322421755,16.515489386824772L-30.819029969256235,7.656058493159833L-25.27618817920373,17.76519021274589z" style="fill:rgb(244,177,137)"/><path d="M-26.018086488572298,13.898181529441354L-31.54548486685358,3.7924947837050844L-31.416696489022463,5.1184536075141125z" style="fill:rgb(246,166,149)"/><path d="M29.41978389156586,-9.681385348059326L23.65451870730945,-21.114907566792198L28.66119791375106,-10.731773928567232z" style="fill:rgb(17,63,135)"/><path d="M-15.301676342902445,18.275129987890345L-160.9953512246791,54.6367780974889L-160.96627075052254,55.24992031280347zM-28.29243259310615,12.133273020096079L-29.086210054988673,11.100722772815386L-160.9664649457513,44.92694377173757zM-13.607518993089053,18.40916522463533L-160.96627075052254,55.24992031280347L-160.94078822538256,55.78691868403776z" style="fill:rgb(83,212,212)"/><path d="M27.802329743450723,-11.716630189523002L22.79409026617488,-22.095152889432526L21.836114933367863,-23.00577955759349z" style="fill:rgb(24,55,146)"/><path d="M-25.27618817920373,17.76519021274589L-30.351558913070136,8.857439854283287L-24.80563208724121,18.96878214858944z" style="fill:rgb(242,182,131)"/><path d="M-25.883143007840502,15.224755783300312L-31.416696489022463,5.1184536075141125L-31.17438412796605,6.408039055212949z" style="fill:rgb(245,172,143)"/><path d="M161.6426518969343,-69.74394585763793L-2.5965508829211257,-26.41321447194177L-0.8051586709835817,-26.845015110110342z" style="fill:rgb(83,212,212)"/><path d="M30.07468322886765,-8.569324668585118L24.41362853235168,-20.068595489333966L29.41978389156586,-9.681385348059326z" style="fill:rgb(14,67,129)"/><path d="M-11.866209077662006,18.449200419135813L-160.94078822538256,55.78691868403776L-160.919045922124,56.24539719837111zM161.69207775894958,-69.62832110982683L-0.8051586709835817,-26.845015110110342L0.9809671592102321,-27.192926948298613zM-27.394734472251706,13.100524903476714L-28.29243259310615,12.133273020096079L-161.00693221769436,46.13264334177211zM-10.084865706263752,18.394818711106886L-160.919045922124,56.24539719837111L-160.90111988546118,56.62333384137832zM161.774275632536,-69.43604610525185L0.9809671592102321,-27.192926948298613L2.7551830787409566,-27.455512831118995z" style="fill:rgb(83,212,212)"/><path d="M28.66119791375106,-10.731773928567232L23.65451870730945,-21.114907566792198L22.79409026617488,-22.095152889432526z" style="fill:rgb(20,59,140)"/><path d="M-8.270822053607628,18.24601544083571L-160.90111988546118,56.62333384137832L-160.88708969482644,56.91903637179535z" style="fill:rgb(83,212,212)"/><path d="M-24.80563208724121,18.96878214858944L-29.773345674831326,10.007250967188996L-24.225400779684524,20.121329838528364z" style="fill:rgb(240,187,125)"/><path d="M-25.63567322421755,16.515489386824772L-31.17438412796605,6.408039055212949L-30.819029969256235,7.656058493159833z" style="fill:rgb(244,177,137)"/><path d="M161.88896669512022,-69.16779032392927L2.7551830787409566,-27.455512831118995L4.510862315042868,-27.631632535090414zM-6.431586456978917,18.003203074838574L-160.88708969482644,56.91903637179535L-160.8770280566252,57.13120469201911zM-26.396283439733637,13.998330853695776L-27.394734472251706,13.100524903476714L-161.04611893451118,47.30009772371435zM-4.5748110835785045,17.667207803111154L-160.8770280566252,57.13120469201911L-160.8709671796702,57.258882218145146zM161.62615404088766,-69.78253073374277L143.66439936400795,-94.42057271273524L137.99395098660037,-99.28008813903045zM162.0357473146915,-68.82445623780167L4.510862315042868,-27.631632535090414L6.241415269938227,-27.7204448579525zM-2.708254371152477,17.239278308456118L-160.8709671796702,57.258882218145146L-160.8689439737611,57.3015041632656z" style="fill:rgb(83,212,212)"/><path d="M29.41978389156586,-9.681385348059326L24.41362853235168,-20.068595489333966L23.65451870730945,-21.114907566792198z" style="fill:rgb(17,63,135)"/><path d="M-25.27618817920373,17.76519021274589L-30.819029969256235,7.656058493159833L-30.351558913070136,8.857439854283287z" style="fill:rgb(242,182,131)"/><path d="M162.2141255394442,-68.40723678079529L6.241415269938227,-27.7204448579525L7.9403118586198715,-27.721410814240148zM-25.300693175022737,14.822796994406154L-26.396283439733637,13.998330853695776L-161.08385304909817,48.424409591762426zM162.4234728421653,-67.91755889152496L7.9403118586198715,-27.721410814240148L9.601099718239272,-27.63429709027887z" style="fill:rgb(83,212,212)"/><path d="M30.07468322886765,-8.569324668585118L25.068010779560936,-18.9600558007439L24.41362853235168,-20.068595489333966z" style="fill:rgb(14,67,129)"/><path d="M-24.80563208724121,18.96878214858944L-30.351558913070136,8.857439854283287L-29.773345674831326,10.007250967188996z" style="fill:rgb(240,187,125)"/><path d="M-24.111996683451093,15.570297826881884L-25.300693175022737,14.822796994406154L-161.11998973619166,49.500837789417965zM162.6630711957465,-67.35711778113107L9.601099718239272,-27.63429709027887L11.21742802712516,-27.45918952390677zM162.9321009966536,-66.72785202632427L11.21742802712516,-27.45918952390677L12.783068934722538,-27.196486569600648zM-22.834654200778754,16.237497894292297L-24.111996683451093,15.570297826881884L-161.1543567317352,50.52480709545327zM163.22961709580972,-66.0319555956936L12.783068934722538,-27.196486569600648L14.29193789665907,-26.84691106224578zM-21.473527518702948,16.821379154294185L-22.834654200778754,16.237497894292297L-161.14503609230255,51.48130150572743zM161.62615404088766,-69.78253073374277L148.8489068739126,-89.13493912405487L143.66439936400795,-94.42057271273524zM163.55457013436742,-65.27185894234002L14.29193789665907,-26.84691106224578L15.738117240031428,-26.411496168263096zM-20.033869424097063,17.319247582816796L-21.473527518702948,16.821379154294185L-161.10292569770462,52.36900274815853zM163.90583303197872,-64.45024284830298L15.738117240031428,-26.411496168263096L17.1158816252326,-25.891606868123514zM-18.521304518525397,17.72875631624102L-20.033869424097063,17.319247582816796L-161.06382515938043,53.19316125256792zM164.2415070077292,-63.559341098843646L17.1158816252326,-25.891606868123514L18.419715168656893,-25.28892678541283zM-16.941805597343368,18.047919653803124L-18.521304518525397,17.72875631624102L-161.02792367900878,53.95018712552028zM-15.301676342902445,18.275129987890345L-16.941805597343368,18.047919653803124L-160.9953512246791,54.6367780974889zM164.54774661748888,-62.59904107434312L18.419715168656893,-25.28892678541283L19.644333387698794,-24.605459883253896zM-13.607518993089053,18.40916522463533L-15.301676342902445,18.275129987890345L-160.96627075052254,55.24992031280347zM164.87103504305324,-61.585284966315406L19.644333387698794,-24.605459883253896L20.78471508932068,-23.84353082141953zM161.62615404088766,-69.78253073374277L153.51592271909848,-83.43365542496974L148.8489068739126,-89.13493912405487zM-11.866209077662006,18.449200419135813L-13.607518993089053,18.40916522463533L-160.94078822538256,55.78691868403776zM-10.084865706263752,18.394818711106886L-11.866209077662006,18.449200419135813L-160.919045922124,56.24539719837111zM161.6426518969343,-69.74394585763793L161.62615404088766,-69.78253073374277L-2.5965508829211257,-26.41321447194177zM165.21019905622452,-60.52173931955384L20.78471508932068,-23.84353082141953L21.836114933367863,-23.00577955759349zM161.69207775894958,-69.62832110982683L161.6426518969343,-69.74394585763793L-0.8051586709835817,-26.845015110110342zM161.774275632536,-69.43604610525185L161.69207775894958,-69.62832110982683L0.9809671592102321,-27.192926948298613zM-8.270822053607628,18.24601544083571L-10.084865706263752,18.394818711106886L-160.90111988546118,56.62333384137832zM161.88896669512022,-69.16779032392927L161.774275632536,-69.43604610525185L2.7551830787409566,-27.455512831118995zM-6.431586456978917,18.003203074838574L-8.270822053607628,18.24601544083571L-160.88708969482644,56.91903637179535zM162.0357473146915,-68.82445623780167L161.88896669512022,-69.16779032392927L4.510862315042868,-27.631632535090414zM165.56400041698748,-59.41228501314395L21.836114933367863,-23.00577955759349L22.79409026617488,-22.095152889432526zM-4.5748110835785045,17.667207803111154L-6.431586456978917,18.003203074838574L-160.8770280566252,57.13120469201911zM162.2141255394442,-68.40723678079529L162.0357473146915,-68.82445623780167L6.241415269938227,-27.7204448579525zM-2.708254371152477,17.239278308456118L-4.5748110835785045,17.667207803111154L-160.8709671796702,57.258882218145146zM162.4234728421653,-67.91755889152496L162.2141255394442,-68.40723678079529L7.9403118586198715,-27.721410814240148zM165.93114992996422,-58.260976264487745L22.79409026617488,-22.095152889432526L23.65451870730945,-21.114907566792198zM162.6630711957465,-67.35711778113107L162.4234728421653,-67.91755889152496L9.601099718239272,-27.63429709027887zM162.9321009966536,-66.72785202632427L162.6630711957465,-67.35711778113107L11.21742802712516,-27.45918952390677zM166.31028305493055,-57.07207787352852L23.65451870730945,-21.114907566792198L24.41362853235168,-20.068595489333966zM161.62615404088766,-69.78253073374277L157.63461848756623,-77.32946718551375L153.51592271909848,-83.43365542496974zM163.22961709580972,-66.0319555956936L162.9321009966536,-66.72785202632427L12.783068934722538,-27.196486569600648zM166.61244841482912,-55.82722118917157L24.41362853235168,-20.068595489333966L25.068010779560936,-18.9600558007439zM163.55457013436742,-65.27185894234002L163.22961709580972,-66.0319555956936L14.29193789665907,-26.84691106224578zM163.90583303197872,-64.45024284830298L163.55457013436742,-65.27185894234002L15.738117240031428,-26.411496168263096zM166.89143247909234,-54.54544921886169L25.068010779560936,-18.9600558007439L25.61463795488428,-17.793407916201364zM164.2415070077292,-63.559341098843646L163.90583303197872,-64.45024284830298L17.1158816252326,-25.891606868123514zM167.17571776954355,-53.23932068750977L25.61463795488428,-17.793407916201364L26.050887919507648,-16.573035110285847zM164.54774661748888,-62.59904107434312L164.2415070077292,-63.559341098843646L18.419715168656893,-25.28892678541283zM161.62615404088766,-69.78253073374277L161.17511199060093,-70.83751536962617L157.63461848756623,-77.32946718551375zM167.46422594678202,-51.913830970849205L26.050887919507648,-16.573035110285847L26.3745668483349,-15.30357473839268zM164.87103504305324,-61.585284966315406L164.54774661748888,-62.59904107434312L19.644333387698794,-24.605459883253896zM167.7558212032647,-50.574087878129866L26.3745668483349,-15.30357473839268L26.58391020416295,-13.989900172767657zM165.21019905622452,-60.52173931955384L164.87103504305324,-61.585284966315406L20.78471508932068,-23.84353082141953zM168.04939523381947,-49.22529574853141L26.58391020416295,-13.989900172767657L26.677604803166016,-12.637107869229157zM165.56400041698748,-59.41228501314395L165.21019905622452,-60.52173931955384L21.836114933367863,-23.00577955759349zM168.21878560003233,-47.84043631930836L26.677604803166016,-12.637107869229157L26.65481100578117,-11.250494539975382zM165.93114992996422,-58.260976264487745L165.56400041698748,-59.41228501314395L22.79409026617488,-22.095152889432526zM168.38797769894822,-46.45727523883534L26.65481100578117,-11.250494539975382L26.51515491947763,-9.83553845813954zM166.31028305493055,-57.07207787352852L165.93114992996422,-58.260976264487745L23.65451870730945,-21.114907566792198zM168.55627169552855,-45.08132974043001L26.51515491947763,-9.83553845813954L26.2587561088684,-8.39788051062364zM166.61244841482912,-55.82722118917157L166.31028305493055,-57.07207787352852L24.41362853235168,-20.068595489333966zM168.7230169852736,-43.71811921560092L26.2587561088684,-8.39788051062364L25.88622523765518,-6.9432997734701525zM166.89143247909234,-54.54544921886169L166.61244841482912,-55.82722118917157L25.068010779560936,-18.9600558007439z" style="fill:rgb(83,212,212)"/><path d="M167.84568099901378,-52.868702511438705L166.40860814626302,-56.7637517340975L170.1514567087914,-45.64302273064293z" style="fill:rgb(246,166,149)"/><path d="M168.8875288594867,-42.37316752654402L25.88622523765518,-6.9432997734701525L25.398660845934067,-5.477687188511377z" style="fill:rgb(83,212,212)"/><path d="M167.84568099901378,-52.868702511438705L164.10879928417233,-63.9755018666696L166.40860814626302,-56.7637517340975z" style="fill:rgb(246,166,149)"/><path d="M167.17571776954355,-53.23932068750977L166.89143247909234,-54.54544921886169L25.61463795488428,-17.793407916201364z" style="fill:rgb(83,212,212)"/><path d="M-133.5424617712944,114.9672251775215L-145.28393505104364,99.56142187371704L-138.4112138135271,109.06314132915286z" style="fill:rgb(28,51,152)"/><path d="M164.2415070077292,-63.559341098843646L164.10879928417233,-63.9755018666696L163.90583303197872,-64.45024284830298zM169.0190968750057,-41.044243523322315L25.398660845934067,-5.477687188511377L24.797666513631345,-4.007023499095496zM167.46422594678202,-51.913830970849205L167.17571776954355,-53.23932068750977L26.050887919507648,-16.573035110285847zM169.0609318581065,-39.72241928902233L24.797666513631345,-4.007023499095496L24.0853445579998,-2.537351850652106zM167.7558212032647,-50.574087878129866L167.46422594678202,-51.913830970849205L26.3745668483349,-15.30357473839268zM169.1016433363061,-38.43598788340429L24.0853445579998,-2.537351850652106L23.264287384419475,-1.0747485427967378zM169.14106706521196,-37.190314405836574L23.264287384419475,-1.0747485427967378L22.33757200529791,0.3747037289163421zM168.04939523381947,-49.22529574853141L167.7558212032647,-50.574087878129866L26.58391020416295,-13.989900172767657zM169.17903156522067,-35.99062595816741L22.33757200529791,0.3747037289163421L21.30875944251613,1.8049448403403754zM168.21878560003233,-47.84043631930836L168.04939523381947,-49.22529574853141L26.677604803166016,-12.637107869229157zM169.21537817309385,-34.841991897160284L21.30875944251613,1.8049448403403754L20.18187346405028,3.209967495121539z" style="fill:rgb(83,212,212)"/><path d="M-133.5424617712944,114.9672251775215L-140.41930089175767,105.45131830766941L-145.28393505104364,99.56142187371704z" style="fill:rgb(28,51,152)"/><path d="M169.24995691000245,-33.74929405511263L20.18187346405028,3.209967495121539L18.961389636028645,4.583846059880058zM168.38797769894822,-46.45727523883534L168.21878560003233,-47.84043631930836L26.65481100578117,-11.250494539975382z" style="fill:rgb(83,212,212)"/><path d="M170.1514567087914,-45.64302273064293L168.04939523381947,-49.22529574853141L171.80452549615023,-38.09525525640418z" style="fill:rgb(247,161,155)"/><path d="M169.23342912949042,-32.70467101174971L18.961389636028645,4.583846059880058L17.652212743896094,5.920766045905731z" style="fill:rgb(83,212,212)"/><path d="M170.1514567087914,-45.64302273064293L166.40860814626302,-56.7637517340975L168.04939523381947,-49.22529574853141z" style="fill:rgb(247,161,155)"/><path d="M168.55627169552855,-45.08132974043001L168.38797769894822,-46.45727523883534L26.51515491947763,-9.83553845813954z" style="fill:rgb(83,212,212)"/><path d="M-128.035925712236,120.51011625920937L-140.41930089175767,105.45131830766941L-133.5424617712944,114.9672251775215z" style="fill:rgb(32,47,158)"/><path d="M8.689018058675902,131.2231099147385L-160.8689439737611,57.3015041632656L-160.81352850037229,58.4697672794252zM169.17864965614757,-31.715908941759018L17.652212743896094,5.920766045905731L16.259666353540496,7.215054619478449zM166.61244841482912,-55.82722118917157L166.40860814626302,-56.7637517340975L166.31028305493055,-57.07207787352852zM169.1278018464877,-30.797970105139612L16.259666353540496,7.215054619478449L14.789459812586221,8.461208206913673zM169.08108891936396,-29.95483301122312L14.789459812586221,8.461208206913673L13.247662994880141,9.653921597355028zM168.7230169852736,-43.71811921560092L168.55627169552855,-45.08132974043001L26.2587561088684,-8.39788051062364zM169.0387229004161,-29.19017623620311L13.247662994880141,9.653921597355028L11.640683797489771,10.788115361864463zM169.00089815979868,-28.50733974635554L11.640683797489771,10.788115361864463L9.97523420856491,11.858962305012438zM168.87433312166974,-26.222724240755856L-0.8397427107781693,16.7210713274243L-2.708254371152477,17.239278308456118zM168.96776996505216,-27.909321996406977L9.97523420856491,11.858962305012438L8.258296591539512,12.861910796982666zM168.8769641685776,-26.270186046782953L1.02286706909613,16.114653998086578L-0.8397427107781693,16.7210713274243zM168.93947822600632,-27.398757785447184L8.258296591539512,12.861910796982666L6.497091018216134,13.792711086618096zM168.8875288594867,-42.37316752654402L168.7230169852736,-43.71811921560092L25.88622523765518,-6.9432997734701525zM168.88483319111157,-26.412361493333076L2.871727688899926,15.422489945574796L1.02286706909613,16.114653998086578zM168.9161648908273,-26.977900844166424L6.497091018216134,13.792711086618096L4.699039768983828,14.647432081408098zM168.8979182397389,-26.648614865510762L4.699039768983828,14.647432081408098L2.871727688899926,15.422489945574796zM8.689018058675902,131.2231099147385L-160.81352850037229,58.4697672794252L-159.83413260995889,65.83702790837167zM169.0190968750057,-41.044243523322315L168.8875288594867,-42.37316752654402L25.398660845934067,-5.477687188511377zM169.0609318581065,-39.72241928902233L169.0190968750057,-41.044243523322315L24.797666513631345,-4.007023499095496z" style="fill:rgb(83,212,212)"/><path d="M-128.035925712236,120.51011625920937L-134.90928704977063,110.97750843776207L-140.41930089175767,105.45131830766941z" style="fill:rgb(32,47,158)"/><path d="M169.1016433363061,-38.43598788340429L169.0609318581065,-39.72241928902233L24.0853445579998,-2.537351850652106z" style="fill:rgb(83,212,212)"/><path d="M171.80452549615023,-38.09525525640418L169.0082827232584,-41.385957528399096L172.78227142687672,-30.251401360098644zM171.80452549615023,-38.09525525640418L168.04939523381947,-49.22529574853141L169.0082827232584,-41.385957528399096z" style="fill:rgb(247,155,161)"/><path d="M169.14106706521196,-37.190314405836574L169.1016433363061,-38.43598788340429L23.264287384419475,-1.0747485427967378z" style="fill:rgb(83,212,212)"/><path d="M-121.90149432590684,125.658506117766L-134.90928704977063,110.97750843776207L-128.035925712236,120.51011625920937z" style="fill:rgb(37,44,163)"/><path d="M8.689018058675902,131.2231099147385L-159.83413260995889,65.83702790837167L-158.22027097863085,73.04031604670627zM169.17903156522067,-35.99062595816741L169.14106706521196,-37.190314405836574L22.33757200529791,0.3747037289163421zM169.21537817309385,-34.841991897160284L169.17903156522067,-35.99062595816741L21.30875944251613,1.8049448403403754zM169.24995691000245,-33.74929405511263L169.21537817309385,-34.841991897160284L20.18187346405028,3.209967495121539zM169.23342912949042,-32.70467101174971L169.24995691000245,-33.74929405511263L18.961389636028645,4.583846059880058zM169.17864965614757,-31.715908941759018L169.23342912949042,-32.70467101174971L17.652212743896094,5.920766045905731zM8.689018058675902,131.2231099147385L-158.22027097863085,73.04031604670627L-155.96326095898928,80.0474828920222zM169.1278018464877,-30.797970105139612L169.17864965614757,-31.715908941759018L16.259666353540496,7.215054619478449zM169.08108891936396,-29.95483301122312L169.1278018464877,-30.797970105139612L14.789459812586221,8.461208206913673z" style="fill:rgb(83,212,212)"/><path d="M-121.90149432590684,125.658506117766L-128.76352193622606,116.10658165649373L-134.90928704977063,110.97750843776207z" style="fill:rgb(37,44,163)"/><path d="M172.78227142687672,-30.251401360098644L169.26499283605864,-33.274350200150415L173.06465582498518,-22.14022989632961z" style="fill:rgb(246,149,166)"/><path d="M169.0387229004161,-29.19017623620311L169.08108891936396,-29.95483301122312L13.247662994880141,9.653921597355028zM169.00089815979868,-28.50733974635554L169.0387229004161,-29.19017623620311L11.640683797489771,10.788115361864463z" style="fill:rgb(83,212,212)"/><path d="M172.78227142687672,-30.251401360098644L169.0082827232584,-41.385957528399096L169.26499283605864,-33.274350200150415z" style="fill:rgb(246,149,166)"/><path d="M168.96776996505216,-27.909321996406977L169.00089815979868,-28.50733974635554L9.97523420856491,11.858962305012438z" style="fill:rgb(83,212,212)"/><path d="M-115.15294540069405,130.37975677461873L-128.76352193622606,116.10658165649373L-121.90149432590684,125.658506117766z" style="fill:rgb(42,41,169)"/><path d="M168.93947822600632,-27.398757785447184L168.96776996505216,-27.909321996406977L8.258296591539512,12.861910796982666zM169.0190968750057,-41.044243523322315L169.0082827232584,-41.385957528399096L168.8875288594867,-42.37316752654402zM168.9161648908273,-26.977900844166424L168.93947822600632,-27.398757785447184L6.497091018216134,13.792711086618096zM168.8979182397389,-26.648614865510762L168.9161648908273,-26.977900844166424L4.699039768983828,14.647432081408098zM168.87433312166974,-26.222724240755856L168.8769641685776,-26.270186046782953L-0.8397427107781693,16.7210713274243zM168.88483319111157,-26.412361493333076L168.8979182397389,-26.648614865510762L2.871727688899926,15.422489945574796zM168.8769641685776,-26.270186046782953L168.88483319111157,-26.412361493333076L1.02286706909613,16.114653998086578zM8.689018058675902,131.2231099147385L-155.96326095898928,80.0474828920222L-153.05679958194446,86.82570518011282z" style="fill:rgb(83,212,212)"/><path d="M-115.15294540069405,130.37975677461873L-121.99554297537462,120.80579777173907L-128.76352193622606,116.10658165649373z" style="fill:rgb(42,41,169)"/><path d="M173.06465582498518,-22.14022989632961L168.80225525936322,-24.921875864530328L172.63460992354848,-13.793265101683744zM173.06465582498518,-22.14022989632961L169.26499283605864,-33.274350200150415L168.80225525936322,-24.921875864530328z" style="fill:rgb(245,143,172)"/><path d="M-107.80813274542537,134.64220077841037L-121.99554297537462,120.80579777173907L-115.15294540069405,130.37975677461873z" style="fill:rgb(48,39,174)"/><path d="M8.689018058675902,131.2231099147385L-153.05679958194446,86.82570518011282L-149.49725926600095,93.34159336670989zM169.23342912949042,-32.70467101174971L169.26499283605864,-33.274350200150415L169.24995691000245,-33.74929405511263zM8.689018058675902,131.2231099147385L168.87433312166974,-26.222724240755856L-160.8689439737611,57.3015041632656zM8.689018058675902,131.2231099147385L-149.49725926600095,93.34159336670989L-145.28393505104364,99.56142187371704z" style="fill:rgb(83,212,212)"/><path d="M-107.80813274542537,134.64220077841037L-114.62298139512745,125.04339344258223L-121.99554297537462,120.80579777173907z" style="fill:rgb(48,39,174)"/><path d="M172.63460992354848,-13.793265101683744L167.60619173525782,-16.362688041188495L171.47842443999645,-5.244731098673053zM172.63460992354848,-13.793265101683744L168.80225525936322,-24.921875864530328L167.60619173525782,-16.362688041188495z" style="fill:rgb(244,137,177)"/><path d="M-99.88906968012932,138.41547998649696L-114.62298139512745,125.04339344258223L-107.80813274542537,134.64220077841037z" style="fill:rgb(54,37,179)"/><path d="M8.689018058675902,131.2231099147385L-145.28393505104364,99.56142187371704L-140.41930089175767,105.45131830766941z" style="fill:rgb(83,212,212)"/><path d="M171.47842443999645,-5.244731098673053L165.66662076978872,-7.633586762098281L169.5860379473939,3.4685432015731132z" style="fill:rgb(242,131,182)"/><path d="M-99.88906968012932,138.41547998649696L-106.66776991079011,128.7889230727973L-114.62298139512745,125.04339344258223z" style="fill:rgb(54,37,179)"/><path d="M-91.42212570378453,141.67093993322746L-106.66776991079011,128.7889230727973L-99.88906968012932,138.41547998649696z" style="fill:rgb(60,35,184)"/><path d="M171.47842443999645,-5.244731098673053L167.60619173525782,-16.362688041188495L165.66662076978872,-7.633586762098281z" style="fill:rgb(242,131,182)"/><path d="M8.689018058675902,131.2231099147385L-140.41930089175767,105.45131830766941L-134.90928704977063,110.97750843776207z" style="fill:rgb(83,212,212)"/><path d="M169.5860379473939,3.4685432015731132L162.9774781075871,1.2261013496671673L166.95144963104045,12.307255408289125z" style="fill:rgb(240,125,187)"/><path d="M-91.42212570378453,141.67093993322746L-98.15619666096165,132.01365761223695L-106.66776991079011,128.7889230727973z" style="fill:rgb(60,35,184)"/><path d="M8.689018058675902,131.2231099147385L-134.90928704977063,110.97750843776207L-128.76352193622606,116.10658165649373z" style="fill:rgb(83,212,212)"/><path d="M-82.43803171748347,144.38191004141993L-98.15619666096165,132.01365761223695L-91.42212570378453,141.67093993322746z" style="fill:rgb(66,34,189)"/><path d="M169.5860379473939,3.4685432015731132L165.66662076978872,-7.633586762098281L162.9774781075871,1.2261013496671673z" style="fill:rgb(240,125,187)"/><path d="M8.689018058675902,131.2231099147385L-128.76352193622606,116.10658165649373L-121.99554297537462,120.80579777173907z" style="fill:rgb(83,212,212)"/><path d="M166.95144963104045,12.307255408289125L159.53709526293,10.174718657881838L163.57300055442386,21.229820443813175z" style="fill:rgb(237,120,191)"/><path d="M-82.43803171748347,144.38191004141993L-89.11901680050279,134.6908683095207L-98.15619666096165,132.01365761223695z" style="fill:rgb(66,34,189)"/><path d="M-72.97190195105688,146.52417854646268L-89.11901680050279,134.6908683095207L-82.43803171748347,144.38191004141993z" style="fill:rgb(73,33,193)"/><path d="M166.95144963104045,12.307255408289125L162.9774781075871,1.2261013496671673L159.53709526293,10.174718657881838z" style="fill:rgb(237,120,191)"/><path d="M8.689018058675902,131.2231099147385L168.80225525936322,-24.921875864530328L168.87433312166974,-26.222724240755856zM8.689018058675902,131.2231099147385L-121.99554297537462,120.80579777173907L-114.62298139512745,125.04339344258223z" style="fill:rgb(83,212,212)"/><path d="M163.57300055442386,21.229820443813175L155.34854202599186,19.168503842172463L159.45368612861589,30.19260513974811z" style="fill:rgb(234,114,195)"/><path d="M8.689018058675902,131.2231099147385L167.60619173525782,-16.362688041188495L168.80225525936322,-24.921875864530328z" style="fill:rgb(83,212,212)"/><path d="M-72.97190195105688,146.52417854646268L-79.59144854900586,136.79630702974035L-89.11901680050279,134.6908683095207z" style="fill:rgb(73,33,193)"/><path d="M-63.06319992952587,148.07628284687587L-79.59144854900586,136.79630702974035L-72.97190195105688,146.52417854646268z" style="fill:rgb(79,32,198)"/><path d="M163.57300055442386,21.229820443813175L159.53709526293,10.174718657881838L155.34854202599186,19.168503842172463z" style="fill:rgb(234,114,195)"/><path d="M8.689018058675902,131.2231099147385L-114.62298139512745,125.04339344258223L-106.66776991079011,128.7889230727973zM8.689018058675902,131.2231099147385L165.66662076978872,-7.633586762098281L167.60619173525782,-16.362688041188495z" style="fill:rgb(83,212,212)"/><path d="M159.45368612861589,30.19260513974811L150.4197948508457,28.161874038574737L154.601389462421,39.1502046220243z" style="fill:rgb(230,108,199)"/><path d="M-63.06319992952587,148.07628284687587L-69.61311742722384,138.308500151234L-79.59144854900586,136.79630702974035z" style="fill:rgb(79,32,198)"/><path d="M-52.75557144341338,149.01987088118725L-69.61311742722384,138.308500151234L-63.06319992952587,148.07628284687587z" style="fill:rgb(86,32,201)"/><path d="M8.689018058675902,131.2231099147385L-106.66776991079011,128.7889230727973L-98.15619666096165,132.01365761223695z" style="fill:rgb(83,212,212)"/><path d="M159.45368612861589,30.19260513974811L155.34854202599186,19.168503842172463L150.4197948508457,28.161874038574737z" style="fill:rgb(230,108,199)"/><path d="M8.689018058675902,131.2231099147385L162.9774781075871,1.2261013496671673L165.66662076978872,-7.633586762098281z" style="fill:rgb(83,212,212)"/><path d="M154.601389462421,39.1502046220243L144.76405214486425,37.10776382231206L149.02906072606544,48.05578664334055z" style="fill:rgb(226,102,203)"/><path d="M8.689018058675902,131.2231099147385L-98.15619666096165,132.01365761223695L-89.11901680050279,134.6908683095207z" style="fill:rgb(83,212,212)"/><path d="M-42.096694724985696,149.34010915960803L-59.22795643606681,139.2091144355998L-52.75557144341338,149.01987088118725z" style="fill:rgb(94,32,205)"/><path d="M-52.75557144341338,149.01987088118725L-59.22795643606681,139.2091144355998L-69.61311742722384,138.308500151234z" style="fill:rgb(86,32,201)"/><path d="M154.601389462421,39.1502046220243L150.4197948508457,28.161874038574737L144.76405214486425,37.10776382231206z" style="fill:rgb(226,102,203)"/><path d="M8.689018058675902,131.2231099147385L159.53709526293,10.174718657881838L162.9774781075871,1.2261013496671673zM8.689018058675902,131.2231099147385L-89.11901680050279,134.6908683095207L-79.59144854900586,136.79630702974035z" style="fill:rgb(83,212,212)"/><path d="M149.02906072606544,48.05578664334055L138.39978145461674,45.957988675471455L142.7548777866159,56.86144648357248z" style="fill:rgb(222,96,207)"/><path d="M-31.13798882292815,149.0259323577744L-48.48399302354205,139.48336977464265L-42.096694724985696,149.34010915960803z" style="fill:rgb(101,32,208)"/><path d="M-42.096694724985696,149.34010915960803L-48.48399302354205,139.48336977464265L-59.22795643606681,139.2091144355998z" style="fill:rgb(94,32,205)"/><path d="M8.689018058675902,131.2231099147385L155.34854202599186,19.168503842172463L159.53709526293,10.174718657881838z" style="fill:rgb(83,212,212)"/><path d="M149.02906072606544,48.05578664334055L144.76405214486425,37.10776382231206L138.39978145461674,45.957988675471455z" style="fill:rgb(222,96,207)"/><path d="M8.689018058675902,131.2231099147385L-79.59144854900586,136.79630702974035L-69.61311742722384,138.308500151234z" style="fill:rgb(83,212,212)"/><path d="M142.7548777866159,56.86144648357248L131.35079606821884,54.66367003074173L135.8023086299301,65.51864596847345z" style="fill:rgb(217,91,210)"/><path d="M-19.93429971057697,148.0703076856482L-37.433092634146796,139.12029150330795L-31.13798882292815,149.0259323577744z" style="fill:rgb(108,33,211)"/><path d="M8.689018058675902,131.2231099147385L150.4197948508457,28.161874038574737L155.34854202599186,19.168503842172463z" style="fill:rgb(83,212,212)"/><path d="M-31.13798882292815,149.0259323577744L-37.433092634146796,139.12029150330795L-48.48399302354205,139.48336977464265z" style="fill:rgb(101,32,208)"/><path d="M142.7548777866159,56.86144648357248L138.39978145461674,45.957988675471455L131.35079606821884,54.66367003074173z" style="fill:rgb(217,91,210)"/><path d="M8.689018058675902,131.2231099147385L-69.61311742722384,138.308500151234L-59.22795643606681,139.2091144355998z" style="fill:rgb(83,212,212)"/><path d="M135.8023086299301,65.51864596847345L123.64629545266118,63.17569735487129L128.2000987543388,73.97863867352241z" style="fill:rgb(212,85,213)"/><path d="M-8.543479432015046,146.47055025567346L-26.130621052360738,138.11297805205854L-19.93429971057697,148.0703076856482z" style="fill:rgb(116,34,214)"/><path d="M8.689018058675902,131.2231099147385L144.76405214486425,37.10776382231206L150.4197948508457,28.161874038574737z" style="fill:rgb(83,212,212)"/><path d="M-19.93429971057697,148.0703076856482L-26.130621052360738,138.11297805205854L-37.433092634146796,139.12029150330795z" style="fill:rgb(108,33,211)"/><path d="M135.8023086299301,65.51864596847345L131.35079606821884,54.66367003074173L123.64629545266118,63.17569735487129z" style="fill:rgb(212,85,213)"/><path d="M8.689018058675902,131.2231099147385L-59.22795643606681,139.2091144355998L-48.48399302354205,139.48336977464265z" style="fill:rgb(83,212,212)"/><path d="M128.2000987543388,73.97863867352241L115.32077762687726,71.4452038289205L119.98217116731658,82.19297296220365z" style="fill:rgb(206,80,215)"/><path d="M2.9740750230488353,144.2284051036572L-14.635046538645097,136.458919462154L-8.543479432015046,146.47055025567346z" style="fill:rgb(123,36,216)"/><path d="M8.689018058675902,131.2231099147385L138.39978145461674,45.957988675471455L144.76405214486425,37.10776382231206z" style="fill:rgb(83,212,212)"/><path d="M-8.543479432015046,146.47055025567346L-14.635046538645097,136.458919462154L-26.130621052360738,138.11297805205854z" style="fill:rgb(116,34,214)"/><path d="M8.689018058675902,131.2231099147385L-48.48399302354205,139.48336977464265L-37.433092634146796,139.12029150330795z" style="fill:rgb(83,212,212)"/><path d="M128.2000987543388,73.97863867352241L123.64629545266118,63.17569735487129L115.32077762687726,71.4452038289205z" style="fill:rgb(206,80,215)"/><path d="M119.98217116731658,82.19297296220365L106.4137989176029,79.42405283204496L111.18751597442997,90.11395607676975z" style="fill:rgb(200,75,217)"/><path d="M14.555953568813353,141.35026127091405L-3.0074460202310744,134.16007915497087L2.9740750230488353,144.2284051036572z" style="fill:rgb(131,38,218)"/><path d="M8.689018058675902,131.2231099147385L131.35079606821884,54.66367003074173L138.39978145461674,45.957988675471455zM8.689018058675902,131.2231099147385L-37.433092634146796,139.12029150330795L-26.130621052360738,138.11297805205854z" style="fill:rgb(83,212,212)"/><path d="M2.9740750230488353,144.2284051036572L-3.0074460202310744,134.16007915497087L-14.635046538645097,136.458919462154z" style="fill:rgb(123,36,216)"/><path d="M111.18751597442997,90.11395607676975L96.96981441155128,87.06538556105494L101.8598766918703,97.69519798956979z" style="fill:rgb(194,70,219)"/><path d="M119.98217116731658,82.19297296220365L115.32077762687726,71.4452038289205L106.4137989176029,79.42405283204496z" style="fill:rgb(200,75,217)"/><path d="M26.138309953654957,137.8471478171912L8.689018058675902,131.2231099147385L14.555953568813353,141.35026127091405z" style="fill:rgb(138,40,220)"/><path d="M8.689018058675902,131.2231099147385L123.64629545266118,63.17569735487129L131.35079606821884,54.66367003074173z" style="fill:rgb(83,212,212)"/><path d="M101.8598766918703,97.69519798956979L87.0377767885172,94.32409972814133L92.04746242888282,104.89208192024869z" style="fill:rgb(188,65,220)"/><path d="M8.689018058675902,131.2231099147385L-26.130621052360738,138.11297805205854L-14.635046538645097,136.458919462154z" style="fill:rgb(83,212,212)"/><path d="M37.65649167615198,133.73473098997883L20.389694300642894,127.65934836439425L26.138309953654957,137.8471478171912z" style="fill:rgb(146,43,221)"/><path d="M14.555953568813353,141.35026127091405L8.689018058675902,131.2231099147385L-3.0074460202310744,134.16007915497087z" style="fill:rgb(131,38,218)"/><path d="M111.18751597442997,90.11395607676975L106.4137989176029,79.42405283204496L96.96981441155128,87.06538556105494z" style="fill:rgb(194,70,219)"/><path d="M8.689018058675902,131.2231099147385L115.32077762687726,71.4452038289205L123.64629545266118,63.17569735487129z" style="fill:rgb(83,212,212)"/><path d="M92.04746242888282,104.89208192024869L76.67074972088622,101.15737105903978L81.80253740776367,111.66227864748939z" style="fill:rgb(181,61,221)"/><path d="M49.04567153228748,129.03328124487268L32.02907307511835,123.48480955318745L37.65649167615198,133.73473098997883z" style="fill:rgb(153,46,222)"/><path d="M81.80253740776367,111.66227864748939L65.92543691758016,107.52512909189248L71.1809332336845,117.96621326657674z" style="fill:rgb(175,57,222)"/><path d="M8.689018058675902,131.2231099147385L-14.635046538645097,136.458919462154L-3.0074460202310744,134.16007915497087z" style="fill:rgb(83,212,212)"/><path d="M60.241534722557084,123.76748544377523L43.54144805271112,118.72015226441732L49.04567153228748,129.03328124487268z" style="fill:rgb(160,49,222)"/><path d="M71.1809332336845,117.96621326657674L54.861588771196175,113.39048530811509L60.241534722557084,123.76748544377523z" style="fill:rgb(168,53,222)"/><path d="M26.138309953654957,137.8471478171912L20.389694300642894,127.65934836439425L8.689018058675902,131.2231099147385z" style="fill:rgb(138,40,220)"/><path d="M101.8598766918703,97.69519798956979L96.96981441155128,87.06538556105494L87.0377767885172,94.32409972814133z" style="fill:rgb(188,65,220)"/><path d="M8.689018058675902,131.2231099147385L106.4137989176029,79.42405283204496L115.32077762687726,71.4452038289205z" style="fill:rgb(83,212,212)"/><path d="M37.65649167615198,133.73473098997883L32.02907307511835,123.48480955318745L20.389694300642894,127.65934836439425z" style="fill:rgb(146,43,221)"/><path d="M92.04746242888282,104.89208192024869L87.0377767885172,94.32409972814133L76.67074972088622,101.15737105903978z" style="fill:rgb(181,61,221)"/><path d="M8.689018058675902,131.2231099147385L96.96981441155128,87.06538556105494L106.4137989176029,79.42405283204496z" style="fill:rgb(83,212,212)"/><path d="M49.04567153228748,129.03328124487268L43.54144805271112,118.72015226441732L32.02907307511835,123.48480955318745z" style="fill:rgb(153,46,222)"/><path d="M81.80253740776367,111.66227864748939L76.67074972088622,101.15737105903978L65.92543691758016,107.52512909189248z" style="fill:rgb(175,57,222)"/><path d="M60.241534722557084,123.76748544377523L54.861588771196175,113.39048530811509L43.54144805271112,118.72015226441732z" style="fill:rgb(160,49,222)"/><path d="M71.1809332336845,117.96621326657674L65.92543691758016,107.52512909189248L54.861588771196175,113.39048530811509z" style="fill:rgb(168,53,222)"/><path d="M8.689018058675902,131.2231099147385L87.0377767885172,94.32409972814133L96.96981441155128,87.06538556105494zM8.689018058675902,131.2231099147385L20.389694300642894,127.65934836439425L32.02907307511835,123.48480955318745zM8.689018058675902,131.2231099147385L76.67074972088622,101.15737105903978L87.0377767885172,94.32409972814133zM8.689018058675902,131.2231099147385L32.02907307511835,123.48480955318745L43.54144805271112,118.72015226441732zM8.689018058675902,131.2231099147385L65.92543691758016,107.52512909189248L76.67074972088622,101.15737105903978zM8.689018058675902,131.2231099147385L43.54144805271112,118.72015226441732L54.861588771196175,113.39048530811509zM8.689018058675902,131.2231099147385L54.861588771196175,113.39048530811509L65.92543691758016,107.52512909189248z" style="fill:rgb(83,212,212)"/></svg>
